{"glyphs":{"0":{"ha":442,"x_min":46,"x_max":397,"o":"m 139 -28 q 72 -1 99 -28 q 46 90 46 25 q 56 182 46 126 q 87 298 67 238 q 138 411 107 358 q 208 497 168 464 q 300 531 249 531 q 375 492 353 531 q 397 389 397 454 q 378 248 397 321 q 325 113 360 175 q 243 11 290 50 q 139 -28 196 -28 m 156 17 q 231 54 197 17 q 291 149 265 92 q 332 261 317 206 q 344 313 336 274 q 353 390 353 351 q 342 448 353 424 q 303 472 332 472 q 233 434 268 472 q 172 338 199 396 q 128 217 144 279 q 111 104 111 154 q 122 41 111 65 q 156 17 132 17 z "},"1":{"ha":382,"x_min":56,"x_max":350,"o":"m 121 -21 q 94 4 94 -21 q 100 33 94 17 q 164 216 140 151 q 198 311 188 281 q 208 357 208 342 q 206 367 208 364 q 204 375 204 369 q 208 393 204 381 q 144 351 178 371 q 75 314 111 332 q 68 313 72 313 q 56 324 58 313 l 56 328 q 64 340 56 338 q 162 408 117 368 q 249 490 207 449 q 256 502 251 497 q 264 513 260 507 q 282 530 268 524 q 310 538 296 536 q 321 539 315 539 q 332 539 326 539 q 350 526 350 539 q 347 514 350 518 q 282 385 325 471 q 203 178 239 300 q 189 140 197 156 q 176 107 181 124 q 183 89 183 104 q 178 53 183 74 q 172 21 174 32 q 154 -7 171 7 q 121 -21 138 -21 z "},"2":{"ha":569,"x_min":21,"x_max":544,"o":"m 483 -49 q 478 -43 478 -49 q 478 -37 478 -37 q 492 -12 489 -24 q 496 8 496 -1 q 474 40 496 31 q 422 50 453 50 q 331 44 376 50 q 238 32 285 39 q 131 13 188 24 q 33 -12 74 3 l 31 -12 q 24 -6 26 -12 q 21 11 21 1 q 21 18 21 14 q 22 25 21 22 q 43 50 25 39 q 83 70 61 61 q 121 85 106 79 q 235 149 175 110 q 347 234 294 188 q 433 331 400 281 q 469 429 467 381 q 453 467 471 451 q 396 482 435 482 q 306 467 357 482 q 207 430 256 451 q 125 388 158 408 q 117 385 122 385 q 110 397 107 385 q 117 422 110 408 q 133 440 124 435 q 165 461 142 444 q 209 494 188 478 q 235 510 231 510 q 240 500 243 510 q 235 488 240 493 q 224 476 229 482 q 284 498 247 486 q 364 519 321 510 q 444 529 407 529 q 515 513 486 529 q 544 454 544 497 q 517 363 544 408 q 443 272 489 317 q 343 188 397 228 q 237 115 289 149 q 144 56 185 81 q 219 74 172 65 q 317 88 265 82 q 413 94 369 94 q 467 92 440 94 q 513 78 494 89 q 531 46 531 68 q 522 4 531 26 q 501 -33 513 -18 q 483 -49 490 -49 z "},"3":{"ha":681,"x_min":-4,"x_max":661,"o":"m 186 -250 q 46 -215 96 -250 q -4 -106 -4 -181 q 29 -10 -4 -50 q 114 50 63 29 q 219 71 165 71 q 235 58 235 71 q 219 50 235 50 q 145 32 183 50 q 81 -19 107 14 q 56 -99 56 -53 q 95 -190 56 -160 q 201 -219 135 -219 q 335 -197 271 -219 q 451 -133 400 -174 q 533 -38 503 -93 q 563 81 563 17 q 527 179 563 138 q 397 221 492 221 q 317 210 357 221 q 256 199 278 199 q 233 219 233 199 q 243 242 233 231 q 268 254 253 254 q 364 263 310 254 q 469 291 418 271 q 553 344 519 311 q 586 426 586 378 q 567 464 586 449 q 510 479 549 479 q 421 464 471 479 q 324 427 371 449 q 244 385 276 406 q 236 382 242 382 q 228 394 228 382 q 234 419 228 406 q 250 438 240 432 q 281 458 258 442 q 323 491 303 475 q 347 507 343 507 q 354 497 354 507 q 349 485 354 490 q 339 474 343 479 q 398 495 361 483 q 477 517 435 507 q 557 526 519 526 q 631 509 601 526 q 661 443 661 492 q 640 380 661 411 q 587 322 619 349 q 518 278 554 296 q 450 254 482 261 q 598 210 557 253 q 639 100 639 167 q 602 -33 639 31 q 502 -144 565 -96 q 358 -222 439 -193 q 186 -250 276 -250 z "},"4":{"ha":614,"x_min":4,"x_max":649,"o":"m 344 -244 q 318 -219 318 -244 q 324 -190 318 -207 l 406 46 q 240 30 328 40 q 89 10 151 19 q 51 -1 76 8 q 18 -12 25 -10 q 8 -6 13 -14 q 4 11 4 1 q 15 40 4 33 q 74 82 33 50 q 171 160 115 114 q 286 258 226 207 q 400 358 346 310 q 494 441 454 406 q 547 490 533 476 q 554 502 550 497 q 563 513 558 507 q 581 530 567 524 q 608 538 594 536 q 619 539 614 539 q 631 539 625 539 q 649 526 649 539 q 646 514 649 518 q 582 376 624 471 q 494 161 540 282 q 485 137 492 156 q 469 94 478 118 l 492 94 q 547 92 519 94 q 592 78 574 89 q 610 46 610 68 q 601 4 610 26 q 581 -33 592 -18 q 563 -49 569 -49 q 557 -43 557 -49 q 557 -37 557 -37 q 572 -12 568 -24 q 575 8 575 -1 q 553 40 575 31 q 501 50 532 50 q 479 49 492 50 q 454 49 467 49 q 431 -22 443 14 q 410 -84 418 -58 q 400 -117 401 -110 q 407 -135 407 -119 q 402 -171 407 -150 q 396 -203 397 -192 q 378 -231 394 -217 q 344 -244 361 -244 m 94 63 q 107 64 103 63 q 192 74 138 68 q 309 84 247 79 q 422 92 371 89 l 518 364 q 524 389 524 379 q 518 397 524 397 q 507 393 515 397 q 464 360 497 386 q 384 295 431 333 q 285 214 338 257 q 183 131 232 171 q 94 63 133 92 z "},"5":{"ha":681,"x_min":54,"x_max":757,"o":"m 239 -221 q 98 -181 142 -221 q 54 -90 54 -142 q 78 -12 54 -50 q 148 50 103 25 q 256 75 193 75 q 269 63 269 75 q 256 56 269 56 q 178 35 211 56 q 126 -17 144 15 q 108 -82 108 -49 q 142 -158 108 -125 q 253 -192 176 -192 q 409 -159 339 -192 q 521 -65 479 -126 q 563 81 563 -4 q 547 153 563 119 q 494 208 531 186 q 396 229 458 229 q 318 219 356 229 q 256 199 281 210 q 249 197 253 197 q 238 205 242 197 q 233 219 233 213 q 251 238 233 231 q 277 299 264 264 q 303 369 290 335 q 325 428 315 404 q 321 442 321 431 q 325 471 321 458 q 349 493 328 486 q 406 506 371 500 q 497 519 450 515 q 582 526 543 524 q 639 528 621 528 q 694 525 667 528 q 739 512 721 522 q 757 479 757 501 q 748 438 757 460 q 728 400 739 415 q 710 385 717 385 q 704 390 704 385 q 704 396 704 396 q 719 421 715 410 q 722 442 722 432 q 695 471 722 464 q 638 478 668 478 q 521 472 583 478 q 403 454 458 467 q 347 342 372 400 q 306 243 321 283 q 338 256 318 250 q 386 261 358 261 q 512 249 454 261 q 604 202 569 236 q 639 100 639 168 q 585 -65 639 7 q 440 -179 531 -137 q 239 -221 350 -221 z "},"6":{"ha":782,"x_min":74,"x_max":731,"o":"m 208 6 q 115 33 157 6 q 74 128 74 60 q 115 286 74 206 q 225 444 157 367 q 374 591 293 521 q 537 719 456 661 q 685 821 618 778 q 717 835 707 835 q 731 817 731 835 q 729 803 731 811 q 725 788 728 794 q 697 756 721 775 q 645 720 674 738 q 599 694 617 703 q 435 581 515 644 q 288 445 354 518 q 181 295 221 372 q 138 142 140 218 q 165 66 136 90 q 231 42 193 42 q 379 73 308 42 q 510 157 450 104 q 613 274 569 210 q 649 382 649 329 q 638 424 649 407 q 604 443 628 442 q 596 444 600 443 q 588 444 592 444 q 478 410 532 444 q 379 320 424 375 q 306 203 335 265 q 272 86 278 140 q 257 65 271 65 q 243 90 243 65 q 273 217 243 149 q 354 347 303 286 q 470 446 406 407 q 606 485 535 485 q 677 462 647 485 q 707 383 707 439 q 707 372 707 378 q 706 358 707 365 q 644 219 694 283 q 519 108 593 156 q 363 33 444 60 q 208 6 282 6 z "},"7":{"ha":583,"x_min":24,"x_max":618,"o":"m 58 -250 q 40 -236 43 -250 q 38 -208 38 -222 q 58 -102 38 -158 q 107 8 78 -46 q 164 99 136 61 q 301 264 221 174 q 504 467 381 354 q 399 474 457 472 q 269 476 342 476 q 203 468 240 476 q 133 432 167 460 q 81 347 100 404 q 50 324 72 324 q 32 331 40 324 q 24 351 24 339 q 31 394 24 374 q 46 439 38 415 q 56 466 47 444 q 75 508 64 488 q 96 529 86 529 q 102 516 104 531 q 93 481 100 501 q 79 440 86 460 q 142 498 101 476 q 240 519 182 519 q 348 515 289 519 q 456 506 407 511 q 525 496 506 500 q 549 515 536 504 q 571 526 563 526 q 600 513 583 526 q 618 488 617 499 q 615 479 618 481 q 431 318 506 389 q 303 190 356 247 q 207 81 251 132 q 147 -5 179 49 q 93 -116 115 -58 q 71 -218 71 -174 q 72 -228 71 -224 q 72 -239 72 -233 q 58 -250 72 -250 z "},"8":{"ha":569,"x_min":44,"x_max":704,"o":"m 393 28 q 291 -12 344 3 q 189 -28 238 -28 q 86 1 128 -28 q 44 99 44 31 q 76 184 44 142 q 153 263 108 226 q 236 326 197 300 q 267 345 251 336 q 300 364 282 354 q 226 434 257 396 q 194 525 194 472 q 235 638 194 590 q 340 713 276 686 q 471 740 403 740 q 563 719 528 740 q 599 646 599 699 q 593 603 599 625 q 583 586 592 597 q 564 575 575 575 q 557 585 553 575 q 561 597 557 589 q 565 622 565 610 q 530 683 565 663 q 454 704 494 704 q 367 691 414 704 q 286 645 319 678 q 253 554 253 613 q 285 467 253 503 q 360 399 318 431 q 497 483 429 438 q 610 582 565 528 q 654 704 654 636 q 664 736 654 725 q 683 747 674 747 q 704 714 704 747 q 704 706 704 710 q 703 696 704 701 q 640 559 689 614 q 524 463 592 504 q 385 381 457 421 q 459 326 424 353 q 518 270 494 300 q 542 201 542 240 q 542 192 542 197 q 540 182 542 188 q 494 102 535 144 q 393 28 454 60 m 107 108 q 106 100 106 104 q 106 93 106 96 q 139 33 106 51 q 219 14 172 14 q 303 26 260 14 q 383 60 346 38 q 444 114 421 83 q 468 182 468 144 q 447 244 468 217 q 394 297 426 272 q 325 346 361 321 q 262 304 293 326 q 203 256 231 282 q 138 178 165 221 q 107 108 110 136 z "},"9":{"ha":711,"x_min":60,"x_max":688,"o":"m 115 -51 q 82 -64 94 -64 q 60 -39 60 -64 q 67 -18 60 -28 q 99 11 74 -7 q 144 39 125 29 q 153 42 149 42 q 160 42 157 42 q 169 42 164 42 q 179 44 174 43 q 337 153 256 92 q 487 290 418 215 q 599 447 556 364 q 642 619 642 531 q 606 703 642 682 q 514 724 569 724 q 406 702 468 724 q 285 640 343 681 q 188 543 226 600 q 149 417 149 486 q 192 354 149 363 q 209 352 200 353 q 226 351 218 351 q 336 378 281 351 q 439 450 392 406 q 518 547 486 494 q 556 651 550 600 q 571 672 558 672 q 583 650 583 672 q 551 535 583 594 q 466 424 519 475 q 347 342 413 374 q 211 311 281 311 q 197 311 204 311 q 182 313 189 311 q 119 339 147 315 q 92 422 92 363 q 131 556 92 494 q 233 663 169 617 q 371 733 296 708 q 518 758 446 758 q 653 722 618 758 q 688 621 688 686 q 650 451 688 532 q 549 298 613 371 q 410 161 486 225 q 258 44 335 97 q 115 -51 181 -10 z "},"A":{"ha":860,"x_min":56,"x_max":801,"o":"m 82 -10 l 68 -10 q 56 0 56 -10 q 56 8 56 3 q 58 22 57 14 q 115 207 75 117 q 199 375 154 297 q 167 374 181 375 q 129 374 153 374 q 115 383 115 374 q 127 405 115 393 q 153 417 139 417 l 222 417 q 325 570 268 492 q 443 725 382 649 q 564 867 504 801 q 556 889 556 878 q 569 916 556 900 q 617 932 582 932 q 641 923 633 932 q 649 903 649 914 q 644 883 649 894 q 672 800 656 854 q 703 680 688 746 q 733 545 719 614 q 754 418 746 476 q 800 403 800 417 q 758 382 800 389 q 761 353 757 382 q 772 278 765 324 q 785 184 779 233 q 797 94 792 135 q 801 32 801 53 q 781 6 801 18 q 743 -6 760 -6 q 726 6 726 -6 l 726 22 q 723 103 726 51 q 715 213 719 156 q 706 315 710 269 q 699 379 701 361 q 477 376 593 378 q 254 375 361 375 q 165 196 207 290 q 110 6 124 101 q 100 -7 108 -4 q 82 -10 92 -10 m 274 414 l 694 417 q 672 549 686 482 q 642 677 657 617 q 614 781 626 738 q 596 840 601 825 q 482 711 543 785 q 366 560 421 638 q 274 414 311 482 z "},"Á":{"ha":860,"x_min":56,"x_max":801,"o":"m 82 -10 l 68 -10 q 56 0 56 -10 q 56 8 56 3 q 58 22 57 14 q 115 207 75 117 q 199 375 154 297 q 167 374 181 375 q 129 374 153 374 q 115 383 115 374 q 127 405 115 393 q 153 417 139 417 l 222 417 q 325 570 268 492 q 443 725 382 649 q 564 867 504 801 q 556 889 556 878 q 569 916 556 900 q 617 932 582 932 q 641 923 633 932 q 649 903 649 914 q 644 883 649 894 q 672 800 656 854 q 703 680 688 746 q 733 545 719 614 q 754 418 746 476 q 800 403 800 417 q 758 382 800 389 q 761 353 757 382 q 772 278 765 324 q 785 184 779 233 q 797 94 792 135 q 801 32 801 53 q 781 6 801 18 q 743 -6 760 -6 q 726 6 726 -6 l 726 22 q 723 103 726 51 q 715 213 719 156 q 706 315 710 269 q 699 379 701 361 q 477 376 593 378 q 254 375 361 375 q 165 196 207 290 q 110 6 124 101 q 100 -7 108 -4 q 82 -10 92 -10 m 274 414 l 694 417 q 672 549 686 482 q 642 677 657 617 q 614 781 626 738 q 596 840 601 825 q 482 711 543 785 q 366 560 421 638 q 274 414 311 482 m 493 975 q 489 979 489 975 q 518 1012 489 988 q 590 1069 546 1037 q 679 1132 633 1102 q 692 1137 686 1137 q 713 1125 705 1137 q 719 1101 721 1112 l 719 1098 q 709 1082 719 1088 q 652 1052 691 1071 q 572 1012 613 1032 q 500 976 530 992 q 493 975 498 975 z "},"Ă":{"ha":860,"x_min":56,"x_max":801,"o":"m 82 -10 l 68 -10 q 56 0 56 -10 q 56 8 56 3 q 58 22 57 14 q 115 207 75 117 q 199 375 154 297 q 167 374 181 375 q 129 374 153 374 q 115 383 115 374 q 127 405 115 393 q 153 417 139 417 l 222 417 q 325 570 268 492 q 443 725 382 649 q 564 867 504 801 q 556 889 556 878 q 569 916 556 900 q 617 932 582 932 q 641 923 633 932 q 649 903 649 914 q 644 883 649 894 q 672 800 656 854 q 703 680 688 746 q 733 545 719 614 q 754 418 746 476 q 800 403 800 417 q 758 382 800 389 q 761 353 757 382 q 772 278 765 324 q 785 184 779 233 q 797 94 792 135 q 801 32 801 53 q 781 6 801 18 q 743 -6 760 -6 q 726 6 726 -6 l 726 22 q 723 103 726 51 q 715 213 719 156 q 706 315 710 269 q 699 379 701 361 q 477 376 593 378 q 254 375 361 375 q 165 196 207 290 q 110 6 124 101 q 100 -7 108 -4 q 82 -10 92 -10 m 274 414 l 694 417 q 672 549 686 482 q 642 677 657 617 q 614 781 626 738 q 596 840 601 825 q 482 711 543 785 q 366 560 421 638 q 274 414 311 482 m 604 985 q 565 993 588 985 q 526 1020 543 1001 q 510 1071 510 1039 q 513 1083 510 1075 q 525 1090 515 1090 q 533 1088 528 1090 q 540 1078 538 1086 q 565 1042 547 1060 q 613 1025 582 1025 q 666 1037 640 1025 q 710 1076 692 1049 q 726 1089 715 1089 q 738 1087 733 1089 q 739 1075 743 1085 q 681 1006 717 1028 q 604 985 644 985 z "},"Ắ":{"ha":860,"x_min":56,"x_max":801,"o":"m 82 -10 l 68 -10 q 56 0 56 -10 q 56 8 56 3 q 58 22 57 14 q 115 207 75 117 q 199 375 154 297 q 167 374 181 375 q 129 374 153 374 q 115 383 115 374 q 127 405 115 393 q 153 417 139 417 l 222 417 q 325 570 268 492 q 443 725 382 649 q 564 867 504 801 q 556 889 556 878 q 569 916 556 900 q 617 932 582 932 q 641 923 633 932 q 649 903 649 914 q 644 883 649 894 q 672 800 656 854 q 703 680 688 746 q 733 545 719 614 q 754 418 746 476 q 800 403 800 417 q 758 382 800 389 q 761 353 757 382 q 772 278 765 324 q 785 184 779 233 q 797 94 792 135 q 801 32 801 53 q 781 6 801 18 q 743 -6 760 -6 q 726 6 726 -6 l 726 22 q 723 103 726 51 q 715 213 719 156 q 706 315 710 269 q 699 379 701 361 q 477 376 593 378 q 254 375 361 375 q 165 196 207 290 q 110 6 124 101 q 100 -7 108 -4 q 82 -10 92 -10 m 274 414 l 694 417 q 672 549 686 482 q 642 677 657 617 q 614 781 626 738 q 596 840 601 825 q 482 711 543 785 q 366 560 421 638 q 274 414 311 482 m 501 1081 q 499 1086 497 1082 q 533 1109 500 1093 q 615 1144 565 1125 q 715 1181 664 1164 q 728 1182 722 1183 q 744 1166 740 1179 q 744 1142 749 1153 q 744 1139 744 1140 q 731 1126 742 1129 q 669 1112 710 1121 q 584 1094 628 1103 q 508 1081 540 1086 q 501 1081 506 1079 m 604 978 q 568 983 589 978 q 533 1003 547 989 q 518 1047 518 1018 q 520 1058 518 1051 q 532 1065 522 1065 q 539 1063 535 1065 q 546 1054 543 1061 q 568 1026 553 1038 q 613 1015 583 1015 q 660 1021 638 1015 q 701 1053 683 1026 q 717 1064 707 1064 q 728 1051 735 1064 q 674 993 707 1008 q 604 978 640 978 z "},"Ặ":{"ha":860,"x_min":56,"x_max":801,"o":"m 82 -10 l 68 -10 q 56 0 56 -10 q 56 8 56 3 q 58 22 57 14 q 115 207 75 117 q 199 375 154 297 q 167 374 181 375 q 129 374 153 374 q 115 383 115 374 q 127 405 115 393 q 153 417 139 417 l 222 417 q 325 570 268 492 q 443 725 382 649 q 564 867 504 801 q 556 889 556 878 q 569 916 556 900 q 617 932 582 932 q 641 923 633 932 q 649 903 649 914 q 644 883 649 894 q 672 800 656 854 q 703 680 688 746 q 733 545 719 614 q 754 418 746 476 q 800 403 800 417 q 758 382 800 389 q 761 353 757 382 q 772 278 765 324 q 785 184 779 233 q 797 94 792 135 q 801 32 801 53 q 781 6 801 18 q 743 -6 760 -6 q 726 6 726 -6 l 726 22 q 723 103 726 51 q 715 213 719 156 q 706 315 710 269 q 699 379 701 361 q 477 376 593 378 q 254 375 361 375 q 165 196 207 290 q 110 6 124 101 q 100 -7 108 -4 q 82 -10 92 -10 m 274 414 l 694 417 q 672 549 686 482 q 642 677 657 617 q 614 781 626 738 q 596 840 601 825 q 482 711 543 785 q 366 560 421 638 q 274 414 311 482 m 393 -173 q 376 -160 384 -173 q 367 -141 367 -148 q 386 -114 367 -128 q 427 -89 404 -100 q 461 -78 449 -78 q 465 -79 464 -78 l 465 -78 q 466 -79 465 -79 q 466 -80 466 -80 q 458 -89 466 -81 q 448 -99 450 -96 q 434 -126 440 -107 q 419 -158 428 -144 q 393 -173 409 -173 m 604 985 q 565 993 588 985 q 526 1020 543 1001 q 510 1071 510 1039 q 513 1083 510 1075 q 525 1090 515 1090 q 533 1088 528 1090 q 540 1078 538 1086 q 565 1042 547 1060 q 613 1025 582 1025 q 666 1037 640 1025 q 710 1076 692 1049 q 726 1089 715 1089 q 738 1087 733 1089 q 739 1075 743 1085 q 681 1006 717 1028 q 604 985 644 985 z "},"Ằ":{"ha":860,"x_min":56,"x_max":801,"o":"m 82 -10 l 68 -10 q 56 0 56 -10 q 56 8 56 3 q 58 22 57 14 q 115 207 75 117 q 199 375 154 297 q 167 374 181 375 q 129 374 153 374 q 115 383 115 374 q 127 405 115 393 q 153 417 139 417 l 222 417 q 325 570 268 492 q 443 725 382 649 q 564 867 504 801 q 556 889 556 878 q 569 916 556 900 q 617 932 582 932 q 641 923 633 932 q 649 903 649 914 q 644 883 649 894 q 672 800 656 854 q 703 680 688 746 q 733 545 719 614 q 754 418 746 476 q 800 403 800 417 q 758 382 800 389 q 761 353 757 382 q 772 278 765 324 q 785 184 779 233 q 797 94 792 135 q 801 32 801 53 q 781 6 801 18 q 743 -6 760 -6 q 726 6 726 -6 l 726 22 q 723 103 726 51 q 715 213 719 156 q 706 315 710 269 q 699 379 701 361 q 477 376 593 378 q 254 375 361 375 q 165 196 207 290 q 110 6 124 101 q 100 -7 108 -4 q 82 -10 92 -10 m 274 414 l 694 417 q 672 549 686 482 q 642 677 657 617 q 614 781 626 738 q 596 840 601 825 q 482 711 543 785 q 366 560 421 638 q 274 414 311 482 m 751 1086 q 744 1086 747 1085 q 669 1100 713 1092 q 584 1117 625 1108 q 522 1132 543 1126 q 508 1144 511 1135 q 508 1146 508 1146 q 508 1147 508 1146 q 508 1172 504 1158 q 525 1188 513 1185 q 538 1186 531 1189 q 638 1150 589 1169 q 720 1115 688 1131 q 754 1092 753 1099 q 751 1086 756 1088 m 604 969 q 568 976 589 969 q 533 1001 547 983 q 518 1047 518 1018 q 520 1058 518 1051 q 532 1065 522 1065 q 539 1063 535 1065 q 546 1054 543 1061 q 568 1026 553 1038 q 613 1015 583 1015 q 660 1021 638 1015 q 701 1053 683 1026 q 717 1064 707 1064 q 728 1051 735 1064 q 674 989 707 1008 q 604 969 640 969 z "},"Ẳ":{"ha":860,"x_min":56,"x_max":801,"o":"m 82 -10 l 68 -10 q 56 0 56 -10 q 56 8 56 3 q 58 22 57 14 q 115 207 75 117 q 199 375 154 297 q 167 374 181 375 q 129 374 153 374 q 115 383 115 374 q 127 405 115 393 q 153 417 139 417 l 222 417 q 325 570 268 492 q 443 725 382 649 q 564 867 504 801 q 556 889 556 878 q 569 916 556 900 q 617 932 582 932 q 641 923 633 932 q 649 903 649 914 q 644 883 649 894 q 672 800 656 854 q 703 680 688 746 q 733 545 719 614 q 754 418 746 476 q 800 403 800 417 q 758 382 800 389 q 761 353 757 382 q 772 278 765 324 q 785 184 779 233 q 797 94 792 135 q 801 32 801 53 q 781 6 801 18 q 743 -6 760 -6 q 726 6 726 -6 l 726 22 q 723 103 726 51 q 715 213 719 156 q 706 315 710 269 q 699 379 701 361 q 477 376 593 378 q 254 375 361 375 q 165 196 207 290 q 110 6 124 101 q 100 -7 108 -4 q 82 -10 92 -10 m 274 414 l 694 417 q 672 549 686 482 q 642 677 657 617 q 614 781 626 738 q 596 840 601 825 q 482 711 543 785 q 366 560 421 638 q 274 414 311 482 m 611 1092 q 632 1111 626 1104 q 644 1129 638 1118 q 651 1153 651 1140 q 628 1178 651 1178 q 578 1169 600 1178 q 557 1161 557 1161 q 551 1171 547 1161 q 578 1198 558 1188 q 619 1213 597 1208 q 654 1219 642 1218 q 662 1220 658 1219 q 668 1221 665 1221 q 699 1213 690 1221 q 707 1190 707 1204 q 701 1163 707 1178 q 689 1133 696 1149 q 656 1095 676 1108 q 624 1082 636 1082 q 611 1092 611 1082 m 604 978 q 568 983 589 978 q 533 1003 547 989 q 518 1047 518 1018 q 520 1058 518 1051 q 532 1065 522 1065 q 539 1063 535 1065 q 546 1054 543 1061 q 568 1026 553 1038 q 613 1015 583 1015 q 660 1021 638 1015 q 701 1053 683 1026 q 717 1064 707 1064 q 728 1051 735 1064 q 674 993 707 1008 q 604 978 640 978 z "},"Ẵ":{"ha":860,"x_min":56,"x_max":801,"o":"m 82 -10 l 68 -10 q 56 0 56 -10 q 56 8 56 3 q 58 22 57 14 q 115 207 75 117 q 199 375 154 297 q 167 374 181 375 q 129 374 153 374 q 115 383 115 374 q 127 405 115 393 q 153 417 139 417 l 222 417 q 325 570 268 492 q 443 725 382 649 q 564 867 504 801 q 556 889 556 878 q 569 916 556 900 q 617 932 582 932 q 641 923 633 932 q 649 903 649 914 q 644 883 649 894 q 672 800 656 854 q 703 680 688 746 q 733 545 719 614 q 754 418 746 476 q 800 403 800 417 q 758 382 800 389 q 761 353 757 382 q 772 278 765 324 q 785 184 779 233 q 797 94 792 135 q 801 32 801 53 q 781 6 801 18 q 743 -6 760 -6 q 726 6 726 -6 l 726 22 q 723 103 726 51 q 715 213 719 156 q 706 315 710 269 q 699 379 701 361 q 477 376 593 378 q 254 375 361 375 q 165 196 207 290 q 110 6 124 101 q 100 -7 108 -4 q 82 -10 92 -10 m 274 414 l 694 417 q 672 549 686 482 q 642 677 657 617 q 614 781 626 738 q 596 840 601 825 q 482 711 543 785 q 366 560 421 638 q 274 414 311 482 m 678 1111 q 619 1127 647 1111 q 561 1143 592 1143 q 522 1128 535 1143 q 497 1113 508 1113 q 495 1113 496 1113 q 494 1114 494 1114 q 505 1131 494 1121 q 528 1151 515 1142 q 546 1164 540 1161 q 588 1175 563 1175 q 644 1163 617 1175 q 700 1150 672 1150 q 728 1157 717 1150 q 750 1175 740 1164 q 757 1171 757 1175 q 739 1140 757 1153 q 701 1119 721 1126 q 678 1111 682 1111 m 604 978 q 568 987 589 978 q 533 1014 547 996 q 518 1061 518 1032 q 520 1072 518 1065 q 532 1079 522 1079 q 539 1077 535 1079 q 546 1068 543 1075 q 568 1040 553 1051 q 613 1029 583 1029 q 660 1035 638 1029 q 701 1067 683 1040 q 717 1078 707 1078 q 728 1065 735 1078 q 674 1000 707 1022 q 604 978 640 978 z "},"Â":{"ha":860,"x_min":56,"x_max":801,"o":"m 82 -10 l 68 -10 q 56 0 56 -10 q 56 8 56 3 q 58 22 57 14 q 115 207 75 117 q 199 375 154 297 q 167 374 181 375 q 129 374 153 374 q 115 383 115 374 q 127 405 115 393 q 153 417 139 417 l 222 417 q 325 570 268 492 q 443 725 382 649 q 564 867 504 801 q 556 889 556 878 q 569 916 556 900 q 617 932 582 932 q 641 923 633 932 q 649 903 649 914 q 644 883 649 894 q 672 800 656 854 q 703 680 688 746 q 733 545 719 614 q 754 418 746 476 q 800 403 800 417 q 758 382 800 389 q 761 353 757 382 q 772 278 765 324 q 785 184 779 233 q 797 94 792 135 q 801 32 801 53 q 781 6 801 18 q 743 -6 760 -6 q 726 6 726 -6 l 726 22 q 723 103 726 51 q 715 213 719 156 q 706 315 710 269 q 699 379 701 361 q 477 376 593 378 q 254 375 361 375 q 165 196 207 290 q 110 6 124 101 q 100 -7 108 -4 q 82 -10 92 -10 m 274 414 l 694 417 q 672 549 686 482 q 642 677 657 617 q 614 781 626 738 q 596 840 601 825 q 482 711 543 785 q 366 560 421 638 q 274 414 311 482 m 461 1010 q 460 1011 458 1010 q 519 1064 485 1036 q 618 1129 554 1092 l 626 1133 l 629 1133 q 638 1129 633 1133 q 706 1067 682 1094 q 750 1014 729 1040 q 746 1010 754 1010 q 743 1011 744 1010 q 685 1046 717 1031 q 618 1069 654 1061 q 542 1040 583 1060 q 467 1011 500 1021 q 461 1010 464 1010 z "},"Ấ":{"ha":860,"x_min":56,"x_max":801,"o":"m 82 -10 l 68 -10 q 56 0 56 -10 q 56 8 56 3 q 58 22 57 14 q 115 207 75 117 q 199 375 154 297 q 167 374 181 375 q 129 374 153 374 q 115 383 115 374 q 127 405 115 393 q 153 417 139 417 l 222 417 q 325 570 268 492 q 443 725 382 649 q 564 867 504 801 q 556 889 556 878 q 569 916 556 900 q 617 932 582 932 q 641 923 633 932 q 649 903 649 914 q 644 883 649 894 q 672 800 656 854 q 703 680 688 746 q 733 545 719 614 q 754 418 746 476 q 800 403 800 417 q 758 382 800 389 q 761 353 757 382 q 772 278 765 324 q 785 184 779 233 q 797 94 792 135 q 801 32 801 53 q 781 6 801 18 q 743 -6 760 -6 q 726 6 726 -6 l 726 22 q 723 103 726 51 q 715 213 719 156 q 706 315 710 269 q 699 379 701 361 q 477 376 593 378 q 254 375 361 375 q 165 196 207 290 q 110 6 124 101 q 100 -7 108 -4 q 82 -10 92 -10 m 274 414 l 694 417 q 672 549 686 482 q 642 677 657 617 q 614 781 626 738 q 596 840 601 825 q 482 711 543 785 q 366 560 421 638 q 274 414 311 482 m 494 1108 q 492 1114 490 1110 q 526 1137 493 1121 q 608 1172 558 1153 q 708 1208 657 1192 q 721 1210 715 1211 q 738 1194 733 1207 q 738 1169 742 1181 q 738 1167 738 1168 q 724 1154 735 1157 q 662 1140 703 1149 q 577 1122 621 1131 q 501 1108 533 1114 q 494 1108 499 1107 m 465 979 q 464 981 464 979 q 510 1016 464 990 q 619 1078 557 1042 q 624 1081 622 1079 q 628 1082 626 1082 l 631 1082 q 639 1078 635 1082 q 701 1024 683 1044 q 746 983 719 1003 q 742 979 750 979 q 740 980 740 979 q 739 981 740 981 q 682 1003 708 994 q 619 1021 656 1013 q 544 1001 585 1011 q 471 981 503 990 q 465 979 468 979 z "},"Ậ":{"ha":860,"x_min":56,"x_max":801,"o":"m 82 -10 l 68 -10 q 56 0 56 -10 q 56 8 56 3 q 58 22 57 14 q 115 207 75 117 q 199 375 154 297 q 167 374 181 375 q 129 374 153 374 q 115 383 115 374 q 127 405 115 393 q 153 417 139 417 l 222 417 q 325 570 268 492 q 443 725 382 649 q 564 867 504 801 q 556 889 556 878 q 569 916 556 900 q 617 932 582 932 q 641 923 633 932 q 649 903 649 914 q 644 883 649 894 q 672 800 656 854 q 703 680 688 746 q 733 545 719 614 q 754 418 746 476 q 800 403 800 417 q 758 382 800 389 q 761 353 757 382 q 772 278 765 324 q 785 184 779 233 q 797 94 792 135 q 801 32 801 53 q 781 6 801 18 q 743 -6 760 -6 q 726 6 726 -6 l 726 22 q 723 103 726 51 q 715 213 719 156 q 706 315 710 269 q 699 379 701 361 q 477 376 593 378 q 254 375 361 375 q 165 196 207 290 q 110 6 124 101 q 100 -7 108 -4 q 82 -10 92 -10 m 274 414 l 694 417 q 672 549 686 482 q 642 677 657 617 q 614 781 626 738 q 596 840 601 825 q 482 711 543 785 q 366 560 421 638 q 274 414 311 482 m 393 -173 q 376 -160 384 -173 q 367 -141 367 -148 q 386 -114 367 -128 q 427 -89 404 -100 q 461 -78 449 -78 q 465 -79 464 -78 l 465 -78 q 466 -79 465 -79 q 466 -80 466 -80 q 458 -89 466 -81 q 448 -99 450 -96 q 434 -126 440 -107 q 419 -158 428 -144 q 393 -173 409 -173 m 461 1010 q 460 1011 458 1010 q 519 1064 485 1036 q 618 1129 554 1092 l 626 1133 l 629 1133 q 638 1129 633 1133 q 706 1067 682 1094 q 750 1014 729 1040 q 746 1010 754 1010 q 743 1011 744 1010 q 685 1046 717 1031 q 618 1069 654 1061 q 542 1040 583 1060 q 467 1011 500 1021 q 461 1010 464 1010 z "},"Ầ":{"ha":860,"x_min":56,"x_max":801,"o":"m 82 -10 l 68 -10 q 56 0 56 -10 q 56 8 56 3 q 58 22 57 14 q 115 207 75 117 q 199 375 154 297 q 167 374 181 375 q 129 374 153 374 q 115 383 115 374 q 127 405 115 393 q 153 417 139 417 l 222 417 q 325 570 268 492 q 443 725 382 649 q 564 867 504 801 q 556 889 556 878 q 569 916 556 900 q 617 932 582 932 q 641 923 633 932 q 649 903 649 914 q 644 883 649 894 q 672 800 656 854 q 703 680 688 746 q 733 545 719 614 q 754 418 746 476 q 800 403 800 417 q 758 382 800 389 q 761 353 757 382 q 772 278 765 324 q 785 184 779 233 q 797 94 792 135 q 801 32 801 53 q 781 6 801 18 q 743 -6 760 -6 q 726 6 726 -6 l 726 22 q 723 103 726 51 q 715 213 719 156 q 706 315 710 269 q 699 379 701 361 q 477 376 593 378 q 254 375 361 375 q 165 196 207 290 q 110 6 124 101 q 100 -7 108 -4 q 82 -10 92 -10 m 274 414 l 694 417 q 672 549 686 482 q 642 677 657 617 q 614 781 626 738 q 596 840 601 825 q 482 711 543 785 q 366 560 421 638 q 274 414 311 482 m 744 1114 q 738 1114 740 1113 q 662 1128 706 1119 q 577 1145 618 1136 q 515 1160 536 1154 q 501 1172 504 1163 q 501 1174 501 1174 q 501 1175 501 1174 q 501 1199 497 1186 q 518 1215 506 1213 q 531 1214 524 1217 q 631 1178 582 1197 q 713 1142 681 1158 q 747 1119 746 1126 q 744 1114 749 1115 m 465 979 q 464 981 464 979 q 510 1016 464 990 q 619 1078 557 1042 q 624 1081 622 1079 q 628 1082 626 1082 l 631 1082 q 639 1078 635 1082 q 701 1024 683 1044 q 746 983 719 1003 q 742 979 750 979 q 740 980 740 979 q 739 981 740 981 q 682 1003 708 994 q 619 1021 656 1013 q 544 1001 585 1011 q 471 981 503 990 q 465 979 468 979 z "},"Ẩ":{"ha":860,"x_min":56,"x_max":825,"o":"m 82 -10 l 68 -10 q 56 0 56 -10 q 56 8 56 3 q 58 22 57 14 q 115 207 75 117 q 199 375 154 297 q 167 374 181 375 q 129 374 153 374 q 115 383 115 374 q 127 405 115 393 q 153 417 139 417 l 222 417 q 325 570 268 492 q 443 725 382 649 q 564 867 504 801 q 556 889 556 878 q 569 916 556 900 q 617 932 582 932 q 641 923 633 932 q 649 903 649 914 q 644 883 649 894 q 672 800 656 854 q 703 680 688 746 q 733 545 719 614 q 754 418 746 476 q 800 403 800 417 q 758 382 800 389 q 761 353 757 382 q 772 278 765 324 q 785 184 779 233 q 797 94 792 135 q 801 32 801 53 q 781 6 801 18 q 743 -6 760 -6 q 726 6 726 -6 l 726 22 q 723 103 726 51 q 715 213 719 156 q 706 315 710 269 q 699 379 701 361 q 477 376 593 378 q 254 375 361 375 q 165 196 207 290 q 110 6 124 101 q 100 -7 108 -4 q 82 -10 92 -10 m 274 414 l 694 417 q 672 549 686 482 q 642 677 657 617 q 614 781 626 738 q 596 840 601 825 q 482 711 543 785 q 366 560 421 638 q 274 414 311 482 m 729 1056 q 750 1075 744 1068 q 763 1093 756 1082 q 769 1117 769 1104 q 746 1142 769 1142 q 697 1133 718 1142 q 675 1125 675 1125 q 669 1135 665 1125 q 696 1162 676 1151 q 738 1177 715 1172 q 772 1183 760 1182 q 780 1184 776 1183 q 786 1185 783 1185 q 817 1176 808 1185 q 825 1154 825 1168 q 819 1127 825 1142 q 807 1097 814 1113 q 774 1059 794 1072 q 742 1046 754 1046 q 729 1056 729 1046 m 465 979 q 464 981 464 979 q 510 1016 464 990 q 619 1078 557 1042 q 624 1081 622 1079 q 628 1082 626 1082 l 631 1082 q 639 1078 635 1082 q 701 1024 683 1044 q 746 983 719 1003 q 742 979 750 979 q 740 980 740 979 q 739 981 740 981 q 682 1003 708 994 q 619 1021 656 1013 q 544 1001 585 1011 q 471 981 503 990 q 465 979 468 979 z "},"Ẫ":{"ha":860,"x_min":56,"x_max":801,"o":"m 82 -10 l 68 -10 q 56 0 56 -10 q 56 8 56 3 q 58 22 57 14 q 115 207 75 117 q 199 375 154 297 q 167 374 181 375 q 129 374 153 374 q 115 383 115 374 q 127 405 115 393 q 153 417 139 417 l 222 417 q 325 570 268 492 q 443 725 382 649 q 564 867 504 801 q 556 889 556 878 q 569 916 556 900 q 617 932 582 932 q 641 923 633 932 q 649 903 649 914 q 644 883 649 894 q 672 800 656 854 q 703 680 688 746 q 733 545 719 614 q 754 418 746 476 q 800 403 800 417 q 758 382 800 389 q 761 353 757 382 q 772 278 765 324 q 785 184 779 233 q 797 94 792 135 q 801 32 801 53 q 781 6 801 18 q 743 -6 760 -6 q 726 6 726 -6 l 726 22 q 723 103 726 51 q 715 213 719 156 q 706 315 710 269 q 699 379 701 361 q 477 376 593 378 q 254 375 361 375 q 165 196 207 290 q 110 6 124 101 q 100 -7 108 -4 q 82 -10 92 -10 m 274 414 l 694 417 q 672 549 686 482 q 642 677 657 617 q 614 781 626 738 q 596 840 601 825 q 482 711 543 785 q 366 560 421 638 q 274 414 311 482 m 671 1125 q 612 1141 640 1125 q 554 1157 583 1157 q 514 1142 526 1157 q 490 1126 501 1126 q 488 1128 488 1126 q 498 1145 488 1135 q 521 1165 508 1156 q 539 1178 533 1175 q 581 1189 557 1189 q 638 1176 610 1189 q 693 1164 665 1164 q 743 1189 722 1164 q 750 1185 750 1189 q 732 1153 750 1167 q 694 1133 714 1140 q 671 1125 675 1125 m 465 979 q 464 981 464 979 q 510 1016 464 990 q 619 1078 557 1042 q 624 1081 622 1079 q 628 1082 626 1082 l 631 1082 q 639 1078 635 1082 q 701 1024 683 1044 q 746 983 719 1003 q 742 979 750 979 q 740 980 740 979 q 739 981 740 981 q 682 1003 708 994 q 619 1021 656 1013 q 544 1001 585 1011 q 471 981 503 990 q 465 979 468 979 z "},"Ä":{"ha":860,"x_min":56,"x_max":801,"o":"m 82 -10 l 68 -10 q 56 0 56 -10 q 56 8 56 3 q 58 22 57 14 q 115 207 75 117 q 199 375 154 297 q 167 374 181 375 q 129 374 153 374 q 115 383 115 374 q 127 405 115 393 q 153 417 139 417 l 222 417 q 325 570 268 492 q 443 725 382 649 q 564 867 504 801 q 556 889 556 878 q 569 916 556 900 q 617 932 582 932 q 641 923 633 932 q 649 903 649 914 q 644 883 649 894 q 672 800 656 854 q 703 680 688 746 q 733 545 719 614 q 754 418 746 476 q 800 403 800 417 q 758 382 800 389 q 761 353 757 382 q 772 278 765 324 q 785 184 779 233 q 797 94 792 135 q 801 32 801 53 q 781 6 801 18 q 743 -6 760 -6 q 726 6 726 -6 l 726 22 q 723 103 726 51 q 715 213 719 156 q 706 315 710 269 q 699 379 701 361 q 477 376 593 378 q 254 375 361 375 q 165 196 207 290 q 110 6 124 101 q 100 -7 108 -4 q 82 -10 92 -10 m 274 414 l 694 417 q 672 549 686 482 q 642 677 657 617 q 614 781 626 738 q 596 840 601 825 q 482 711 543 785 q 366 560 421 638 q 274 414 311 482 m 664 993 q 643 1005 647 993 q 639 1031 639 1017 q 663 1079 639 1056 q 710 1103 688 1103 q 718 1099 717 1103 q 710 1055 718 1081 q 701 1022 701 1029 q 688 1002 701 1008 q 664 993 675 996 m 514 993 q 495 1005 500 993 q 490 1031 490 1017 q 514 1079 490 1056 q 561 1103 538 1103 q 568 1099 567 1103 q 560 1055 568 1081 q 551 1022 551 1029 q 538 1002 551 1008 q 514 993 525 996 z "},"Ạ":{"ha":860,"x_min":56,"x_max":801,"o":"m 82 -10 l 68 -10 q 56 0 56 -10 q 56 8 56 3 q 58 22 57 14 q 115 207 75 117 q 199 375 154 297 q 167 374 181 375 q 129 374 153 374 q 115 383 115 374 q 127 405 115 393 q 153 417 139 417 l 222 417 q 325 570 268 492 q 443 725 382 649 q 564 867 504 801 q 556 889 556 878 q 569 916 556 900 q 617 932 582 932 q 641 923 633 932 q 649 903 649 914 q 644 883 649 894 q 672 800 656 854 q 703 680 688 746 q 733 545 719 614 q 754 418 746 476 q 800 403 800 417 q 758 382 800 389 q 761 353 757 382 q 772 278 765 324 q 785 184 779 233 q 797 94 792 135 q 801 32 801 53 q 781 6 801 18 q 743 -6 760 -6 q 726 6 726 -6 l 726 22 q 723 103 726 51 q 715 213 719 156 q 706 315 710 269 q 699 379 701 361 q 477 376 593 378 q 254 375 361 375 q 165 196 207 290 q 110 6 124 101 q 100 -7 108 -4 q 82 -10 92 -10 m 274 414 l 694 417 q 672 549 686 482 q 642 677 657 617 q 614 781 626 738 q 596 840 601 825 q 482 711 543 785 q 366 560 421 638 q 274 414 311 482 m 393 -173 q 376 -160 384 -173 q 367 -141 367 -148 q 386 -114 367 -128 q 427 -89 404 -100 q 461 -78 449 -78 q 465 -79 464 -78 l 465 -78 q 466 -79 465 -79 q 466 -80 466 -80 q 458 -89 466 -81 q 448 -99 450 -96 q 434 -126 440 -107 q 419 -158 428 -144 q 393 -173 409 -173 z "},"À":{"ha":860,"x_min":56,"x_max":801,"o":"m 82 -10 l 68 -10 q 56 0 56 -10 q 56 8 56 3 q 58 22 57 14 q 115 207 75 117 q 199 375 154 297 q 167 374 181 375 q 129 374 153 374 q 115 383 115 374 q 127 405 115 393 q 153 417 139 417 l 222 417 q 325 570 268 492 q 443 725 382 649 q 564 867 504 801 q 556 889 556 878 q 569 916 556 900 q 617 932 582 932 q 641 923 633 932 q 649 903 649 914 q 644 883 649 894 q 672 800 656 854 q 703 680 688 746 q 733 545 719 614 q 754 418 746 476 q 800 403 800 417 q 758 382 800 389 q 761 353 757 382 q 772 278 765 324 q 785 184 779 233 q 797 94 792 135 q 801 32 801 53 q 781 6 801 18 q 743 -6 760 -6 q 726 6 726 -6 l 726 22 q 723 103 726 51 q 715 213 719 156 q 706 315 710 269 q 699 379 701 361 q 477 376 593 378 q 254 375 361 375 q 165 196 207 290 q 110 6 124 101 q 100 -7 108 -4 q 82 -10 92 -10 m 274 414 l 694 417 q 672 549 686 482 q 642 677 657 617 q 614 781 626 738 q 596 840 601 825 q 482 711 543 785 q 366 560 421 638 q 274 414 311 482 m 715 969 q 719 974 719 969 q 691 1007 719 982 q 619 1064 662 1031 q 529 1127 575 1097 q 516 1131 522 1131 q 496 1119 503 1131 q 489 1095 488 1107 l 489 1093 q 499 1077 489 1083 q 556 1046 518 1065 q 636 1007 595 1027 q 708 971 678 987 q 715 969 711 969 z "},"Ả":{"ha":860,"x_min":56,"x_max":801,"o":"m 82 -10 l 68 -10 q 56 0 56 -10 q 56 8 56 3 q 58 22 57 14 q 115 207 75 117 q 199 375 154 297 q 167 374 181 375 q 129 374 153 374 q 115 383 115 374 q 127 405 115 393 q 153 417 139 417 l 222 417 q 325 570 268 492 q 443 725 382 649 q 564 867 504 801 q 556 889 556 878 q 569 916 556 900 q 617 932 582 932 q 641 923 633 932 q 649 903 649 914 q 644 883 649 894 q 672 800 656 854 q 703 680 688 746 q 733 545 719 614 q 754 418 746 476 q 800 403 800 417 q 758 382 800 389 q 761 353 757 382 q 772 278 765 324 q 785 184 779 233 q 797 94 792 135 q 801 32 801 53 q 781 6 801 18 q 743 -6 760 -6 q 726 6 726 -6 l 726 22 q 723 103 726 51 q 715 213 719 156 q 706 315 710 269 q 699 379 701 361 q 477 376 593 378 q 254 375 361 375 q 165 196 207 290 q 110 6 124 101 q 100 -7 108 -4 q 82 -10 92 -10 m 274 414 l 694 417 q 672 549 686 482 q 642 677 657 617 q 614 781 626 738 q 596 840 601 825 q 482 711 543 785 q 366 560 421 638 q 274 414 311 482 m 589 997 q 620 1032 611 1017 q 629 1075 629 1047 q 606 1100 629 1100 q 556 1092 578 1100 q 535 1083 535 1083 q 529 1093 525 1083 q 556 1120 536 1110 q 597 1135 575 1131 q 632 1142 619 1140 q 640 1142 636 1142 q 646 1143 643 1143 q 678 1130 668 1143 q 689 1103 689 1117 q 681 1072 689 1090 q 667 1039 674 1054 q 634 1001 654 1014 q 601 988 614 988 q 589 997 589 988 z "},"Ā":{"ha":860,"x_min":56,"x_max":801,"o":"m 82 -10 l 68 -10 q 56 0 56 -10 q 56 8 56 3 q 58 22 57 14 q 115 207 75 117 q 199 375 154 297 q 167 374 181 375 q 129 374 153 374 q 115 383 115 374 q 127 405 115 393 q 153 417 139 417 l 222 417 q 325 570 268 492 q 443 725 382 649 q 564 867 504 801 q 556 889 556 878 q 569 916 556 900 q 617 932 582 932 q 641 923 633 932 q 649 903 649 914 q 644 883 649 894 q 672 800 656 854 q 703 680 688 746 q 733 545 719 614 q 754 418 746 476 q 800 403 800 417 q 758 382 800 389 q 761 353 757 382 q 772 278 765 324 q 785 184 779 233 q 797 94 792 135 q 801 32 801 53 q 781 6 801 18 q 743 -6 760 -6 q 726 6 726 -6 l 726 22 q 723 103 726 51 q 715 213 719 156 q 706 315 710 269 q 699 379 701 361 q 477 376 593 378 q 254 375 361 375 q 165 196 207 290 q 110 6 124 101 q 100 -7 108 -4 q 82 -10 92 -10 m 274 414 l 694 417 q 672 549 686 482 q 642 677 657 617 q 614 781 626 738 q 596 840 601 825 q 482 711 543 785 q 366 560 421 638 q 274 414 311 482 m 503 999 q 476 1001 483 999 q 468 1007 468 1004 q 486 1023 468 1017 q 529 1033 504 1029 q 575 1038 554 1038 q 640 1035 601 1038 q 710 1026 679 1032 q 740 1013 740 1021 q 724 1002 740 1006 q 704 999 708 999 l 503 999 z "},"Ą":{"ha":860,"x_min":56,"x_max":801,"o":"m 82 -10 l 68 -10 q 56 0 56 -10 q 56 8 56 3 q 58 22 57 14 q 115 207 75 117 q 199 375 154 297 q 167 374 181 375 q 129 374 153 374 q 115 383 115 374 q 127 405 115 393 q 153 417 139 417 l 222 417 q 325 570 268 492 q 443 725 382 649 q 564 867 504 801 q 556 889 556 878 q 569 916 556 900 q 617 932 582 932 q 641 923 633 932 q 649 903 649 914 q 644 883 649 894 q 672 800 656 854 q 703 680 688 746 q 733 545 719 614 q 754 418 746 476 q 800 403 800 417 q 758 382 800 389 q 761 353 757 382 q 772 278 765 324 q 785 184 779 233 q 797 94 792 135 q 801 32 801 53 q 781 6 801 18 q 743 -6 760 -6 q 726 6 726 -6 l 726 22 q 723 103 726 51 q 715 213 719 156 q 706 315 710 269 q 699 379 701 361 q 477 376 593 378 q 254 375 361 375 q 165 196 207 290 q 110 6 124 101 q 100 -7 108 -4 q 82 -10 92 -10 m 274 414 l 694 417 q 672 549 686 482 q 642 677 657 617 q 614 781 626 738 q 596 840 601 825 q 482 711 543 785 q 366 560 421 638 q 274 414 311 482 m 639 -210 q 572 -197 596 -210 q 547 -151 547 -183 q 554 -112 547 -137 q 573 -59 561 -86 q 599 -12 585 -32 q 631 13 614 8 q 640 14 635 14 q 651 8 647 14 q 619 -50 636 -14 q 601 -114 601 -86 q 654 -171 601 -171 q 696 -162 674 -171 q 736 -147 718 -154 q 758 -139 754 -139 q 774 -151 774 -139 q 756 -178 774 -167 q 715 -196 739 -189 q 670 -206 692 -203 q 639 -210 649 -210 z "},"Å":{"ha":860,"x_min":56,"x_max":801,"o":"m 82 -10 l 68 -10 q 56 0 56 -10 q 56 8 56 3 q 58 22 57 14 q 115 207 75 117 q 199 375 154 297 q 167 374 181 375 q 129 374 153 374 q 115 383 115 374 q 127 405 115 393 q 153 417 139 417 l 222 417 q 325 570 268 492 q 443 725 382 649 q 564 867 504 801 q 556 889 556 878 q 569 916 556 900 q 617 932 582 932 q 641 923 633 932 q 649 903 649 914 q 644 883 649 894 q 672 800 656 854 q 703 680 688 746 q 733 545 719 614 q 754 418 746 476 q 800 403 800 417 q 758 382 800 389 q 761 353 757 382 q 772 278 765 324 q 785 184 779 233 q 797 94 792 135 q 801 32 801 53 q 781 6 801 18 q 743 -6 760 -6 q 726 6 726 -6 l 726 22 q 723 103 726 51 q 715 213 719 156 q 706 315 710 269 q 699 379 701 361 q 477 376 593 378 q 254 375 361 375 q 165 196 207 290 q 110 6 124 101 q 100 -7 108 -4 q 82 -10 92 -10 m 274 414 l 694 417 q 672 549 686 482 q 642 677 657 617 q 614 781 626 738 q 596 840 601 825 q 482 711 543 785 q 366 560 421 638 q 274 414 311 482 m 606 993 q 553 1008 575 993 q 532 1049 532 1024 q 555 1099 532 1071 q 613 1149 578 1128 q 683 1171 647 1171 q 740 1149 719 1171 q 761 1099 761 1126 q 716 1019 761 1046 q 606 993 671 993 m 626 1021 q 689 1039 667 1021 q 711 1099 711 1057 q 672 1149 711 1149 q 633 1134 654 1149 q 597 1099 613 1119 q 582 1063 582 1079 q 626 1021 582 1021 z "},"Ã":{"ha":860,"x_min":56,"x_max":801,"o":"m 82 -10 l 68 -10 q 56 0 56 -10 q 56 8 56 3 q 58 22 57 14 q 115 207 75 117 q 199 375 154 297 q 167 374 181 375 q 129 374 153 374 q 115 383 115 374 q 127 405 115 393 q 153 417 139 417 l 222 417 q 325 570 268 492 q 443 725 382 649 q 564 867 504 801 q 556 889 556 878 q 569 916 556 900 q 617 932 582 932 q 641 923 633 932 q 649 903 649 914 q 644 883 649 894 q 672 800 656 854 q 703 680 688 746 q 733 545 719 614 q 754 418 746 476 q 800 403 800 417 q 758 382 800 389 q 761 353 757 382 q 772 278 765 324 q 785 184 779 233 q 797 94 792 135 q 801 32 801 53 q 781 6 801 18 q 743 -6 760 -6 q 726 6 726 -6 l 726 22 q 723 103 726 51 q 715 213 719 156 q 706 315 710 269 q 699 379 701 361 q 477 376 593 378 q 254 375 361 375 q 165 196 207 290 q 110 6 124 101 q 100 -7 108 -4 q 82 -10 92 -10 m 274 414 l 694 417 q 672 549 686 482 q 642 677 657 617 q 614 781 626 738 q 596 840 601 825 q 482 711 543 785 q 366 560 421 638 q 274 414 311 482 m 664 975 q 618 985 641 975 q 573 1004 595 995 q 528 1013 551 1013 q 495 1004 508 1013 q 473 986 481 995 q 454 977 464 977 q 451 980 451 977 q 464 999 451 987 q 490 1023 476 1012 q 510 1037 505 1034 q 560 1051 532 1051 q 626 1036 594 1051 q 690 1021 657 1021 q 723 1029 709 1021 q 748 1051 737 1037 q 756 1045 756 1051 q 735 1009 756 1024 q 691 985 713 994 q 664 975 670 975 z "},"Æ":{"ha":1333,"x_min":25,"x_max":1329,"o":"m 49 -10 l 36 -10 q 25 -6 25 -10 q 35 22 25 1 q 140 207 76 117 q 269 375 204 297 q 238 374 251 375 q 200 374 224 374 q 189 381 189 374 q 204 403 189 390 q 235 417 219 417 l 304 417 q 445 570 369 490 q 600 728 521 650 q 756 868 679 806 l 738 868 q 707 879 707 868 q 735 897 707 894 q 803 903 764 899 q 828 915 819 904 q 847 938 836 926 q 883 949 858 949 q 903 944 894 949 q 911 928 911 939 q 906 917 906 915 q 899 903 906 918 q 948 902 913 903 q 1071 901 983 901 q 1173 902 1114 901 q 1308 903 1232 903 q 1329 882 1329 903 q 1315 844 1329 868 q 1286 821 1301 821 q 1267 838 1276 821 q 1239 857 1258 856 q 1183 860 1221 860 q 1121 860 1144 860 q 1087 859 1103 860 q 1056 858 1071 858 q 983 859 1019 858 q 885 861 946 860 q 872 809 881 850 q 854 713 864 768 q 835 599 844 657 q 818 492 825 540 q 808 419 811 443 q 885 419 833 419 q 996 420 936 419 q 1107 422 1056 421 q 1182 424 1158 422 q 1190 415 1190 424 q 1178 394 1190 407 q 1138 376 1165 381 l 801 376 q 794 325 799 364 q 784 236 789 286 q 776 139 779 186 q 772 63 772 92 q 774 43 772 47 q 921 42 824 43 q 1157 42 1018 42 q 1234 47 1188 42 q 1317 64 1281 53 l 1318 64 q 1324 50 1324 64 q 1314 18 1324 36 q 1282 0 1304 0 q 1006 -1 1143 0 q 719 -1 868 -1 q 696 15 696 -1 q 700 55 696 15 q 710 153 704 94 q 723 273 715 211 q 738 379 731 335 q 532 376 633 378 q 325 375 431 375 q 188 196 256 290 q 79 6 119 101 q 67 -7 76 -4 q 49 -10 58 -10 m 358 417 l 742 417 q 759 534 749 471 q 781 660 769 597 q 803 777 792 722 q 824 869 814 832 q 749 815 794 854 q 650 725 704 776 q 541 617 596 674 q 438 509 486 561 q 358 417 390 457 m 696 15 l 696 15 q 696 15 696 15 z "},"B":{"ha":876,"x_min":114,"x_max":826,"o":"m 188 -22 q 142 -2 165 -22 q 118 32 118 18 q 133 44 118 44 q 151 40 135 44 q 143 108 146 69 q 140 192 140 146 q 147 363 140 271 q 165 549 153 456 q 190 725 176 642 q 218 868 204 808 l 144 868 q 114 879 114 869 q 131 894 114 886 q 172 903 149 903 l 226 903 q 258 950 233 939 q 311 961 283 961 q 332 947 332 961 q 319 919 332 933 q 304 899 307 906 q 389 888 339 896 q 491 866 439 881 q 588 826 543 851 q 662 765 633 801 q 690 675 690 728 q 667 596 690 633 q 609 528 644 558 q 535 474 574 497 q 464 438 496 451 q 497 440 479 439 q 533 440 514 440 q 631 433 579 440 q 726 408 682 426 q 799 358 771 390 q 826 274 826 325 q 780 145 826 200 q 658 55 733 90 q 496 2 583 19 q 328 -15 408 -15 q 268 -13 297 -15 q 214 -6 239 -11 q 188 -22 207 -22 m 239 429 q 297 434 253 429 q 396 453 340 439 q 505 494 451 468 q 594 561 558 519 q 629 664 629 603 q 628 678 629 671 q 626 694 628 686 q 573 769 613 739 q 482 819 533 800 q 380 850 431 839 q 294 865 329 861 l 293 865 q 276 801 286 844 q 254 706 265 758 q 233 599 243 653 q 215 500 222 544 q 207 431 208 456 q 217 430 208 431 q 239 429 225 429 m 331 19 q 478 32 403 19 q 619 72 554 44 q 723 147 683 100 q 763 260 763 193 q 730 337 761 307 q 650 383 699 367 q 547 405 601 399 q 446 411 493 411 q 324 403 382 411 q 204 386 267 396 q 201 334 203 368 q 200 258 200 300 q 202 136 200 199 q 208 31 204 74 q 331 19 261 19 z "},"C":{"ha":950,"x_min":82,"x_max":904,"o":"m 483 -18 q 262 32 351 -18 q 127 173 172 82 q 82 385 82 264 q 117 588 82 492 q 219 758 151 683 q 385 875 286 832 q 611 918 483 918 q 694 912 651 918 q 774 888 738 906 q 832 837 810 871 q 854 749 854 803 q 838 684 854 706 q 799 663 822 663 q 769 689 769 663 q 783 733 769 713 q 797 772 797 754 q 769 831 797 807 q 698 869 740 856 q 614 883 656 883 q 419 841 506 883 q 274 727 333 799 q 182 566 214 656 q 150 381 150 476 q 185 201 150 285 q 291 66 219 118 q 471 14 363 14 q 639 40 567 14 q 762 102 711 65 q 843 174 813 139 q 888 229 874 210 q 897 236 894 236 q 904 215 904 236 q 876 133 904 169 q 800 67 847 96 q 697 20 753 39 q 585 -8 640 1 q 483 -18 529 -18 z "},"Ć":{"ha":950,"x_min":82,"x_max":904,"o":"m 483 -18 q 262 32 351 -18 q 127 173 172 82 q 82 385 82 264 q 117 588 82 492 q 219 758 151 683 q 385 875 286 832 q 611 918 483 918 q 694 912 651 918 q 774 888 738 906 q 832 837 810 871 q 854 749 854 803 q 838 684 854 706 q 799 663 822 663 q 769 689 769 663 q 783 733 769 713 q 797 772 797 754 q 769 831 797 807 q 698 869 740 856 q 614 883 656 883 q 419 841 506 883 q 274 727 333 799 q 182 566 214 656 q 150 381 150 476 q 185 201 150 285 q 291 66 219 118 q 471 14 363 14 q 639 40 567 14 q 762 102 711 65 q 843 174 813 139 q 888 229 874 210 q 897 236 894 236 q 904 215 904 236 q 876 133 904 169 q 800 67 847 96 q 697 20 753 39 q 585 -8 640 1 q 483 -18 529 -18 m 500 975 q 496 979 496 975 q 524 1012 496 988 q 597 1069 553 1037 q 686 1132 640 1102 q 699 1137 693 1137 q 720 1125 712 1137 q 726 1101 728 1112 l 726 1098 q 716 1082 726 1088 q 659 1052 698 1071 q 579 1012 620 1032 q 507 976 537 992 q 500 975 504 975 z "},"Č":{"ha":950,"x_min":82,"x_max":904,"o":"m 483 -18 q 262 32 351 -18 q 127 173 172 82 q 82 385 82 264 q 117 588 82 492 q 219 758 151 683 q 385 875 286 832 q 611 918 483 918 q 694 912 651 918 q 774 888 738 906 q 832 837 810 871 q 854 749 854 803 q 838 684 854 706 q 799 663 822 663 q 769 689 769 663 q 783 733 769 713 q 797 772 797 754 q 769 831 797 807 q 698 869 740 856 q 614 883 656 883 q 419 841 506 883 q 274 727 333 799 q 182 566 214 656 q 150 381 150 476 q 185 201 150 285 q 291 66 219 118 q 471 14 363 14 q 639 40 567 14 q 762 102 711 65 q 843 174 813 139 q 888 229 874 210 q 897 236 894 236 q 904 215 904 236 q 876 133 904 169 q 800 67 847 96 q 697 20 753 39 q 585 -8 640 1 q 483 -18 529 -18 m 786 1108 q 788 1106 789 1108 q 726 1052 762 1080 q 624 985 690 1023 l 616 980 l 613 980 q 604 985 609 980 q 534 1048 559 1020 q 489 1103 510 1076 q 493 1108 484 1108 q 496 1106 494 1108 q 555 1070 523 1086 q 624 1046 587 1055 q 703 1076 660 1056 q 780 1106 746 1096 q 786 1108 783 1108 z "},"Ç":{"ha":950,"x_min":82,"x_max":904,"o":"m 483 -18 q 262 32 351 -18 q 127 173 172 82 q 82 385 82 264 q 117 588 82 492 q 219 758 151 683 q 385 875 286 832 q 611 918 483 918 q 694 912 651 918 q 774 888 738 906 q 832 837 810 871 q 854 749 854 803 q 838 684 854 706 q 799 663 822 663 q 769 689 769 663 q 783 733 769 713 q 797 772 797 754 q 769 831 797 807 q 698 869 740 856 q 614 883 656 883 q 419 841 506 883 q 274 727 333 799 q 182 566 214 656 q 150 381 150 476 q 185 201 150 285 q 291 66 219 118 q 471 14 363 14 q 639 40 567 14 q 762 102 711 65 q 843 174 813 139 q 888 229 874 210 q 897 236 894 236 q 904 215 904 236 q 876 133 904 169 q 800 67 847 96 q 697 20 753 39 q 585 -8 640 1 q 483 -18 529 -18 m 319 -389 q 310 -384 314 -389 q 307 -374 307 -379 q 323 -358 307 -361 q 363 -354 339 -356 q 412 -347 388 -353 q 452 -322 436 -340 q 468 -267 468 -304 q 450 -222 468 -246 q 414 -171 432 -197 q 396 -118 396 -144 q 421 -36 396 -75 q 493 3 446 3 q 503 1 499 3 q 510 -7 508 0 q 463 -39 479 -12 q 446 -94 446 -65 q 466 -137 446 -114 q 506 -189 486 -161 q 526 -251 526 -217 q 491 -331 526 -300 q 408 -375 456 -361 q 319 -389 360 -389 z "},"D":{"ha":1076,"x_min":128,"x_max":1007,"o":"m 283 -12 q 170 4 211 -12 q 129 46 129 21 q 139 57 129 57 q 147 56 143 57 q 140 117 142 82 q 138 190 138 151 q 144 356 138 267 q 164 537 151 446 q 191 709 176 628 q 221 849 206 790 l 210 849 q 168 844 192 849 q 138 840 144 840 q 128 854 128 840 q 140 883 128 867 q 178 900 153 900 l 232 900 q 253 946 238 931 q 304 961 269 961 q 324 946 324 961 q 317 931 319 936 q 307 904 314 925 l 343 904 q 528 889 435 904 q 708 842 622 874 q 861 760 793 811 q 968 640 929 710 q 1007 478 1007 569 q 971 328 1007 396 q 874 206 935 260 q 738 110 814 151 q 581 42 663 69 q 422 1 499 15 q 283 -12 346 -12 m 325 25 q 465 46 389 25 q 615 101 540 67 q 753 181 690 136 q 853 274 815 226 q 932 403 908 344 q 956 524 956 463 q 919 655 956 600 q 822 745 882 710 q 692 802 763 781 q 551 834 621 824 q 426 848 482 844 q 342 851 371 851 l 293 851 q 224 539 250 704 q 199 218 199 374 q 199 182 199 200 q 200 146 199 164 q 225 54 203 83 q 325 25 247 25 z "},"Ð":{"ha":1076,"x_min":17,"x_max":1007,"o":"m 283 -12 q 170 4 211 -12 q 129 46 129 21 q 139 57 129 57 q 147 56 143 57 q 139 119 142 83 q 136 197 136 156 q 140 317 136 254 q 102 315 121 315 q 67 315 83 315 q 33 323 49 315 q 17 343 17 331 q 29 360 17 354 q 76 367 42 367 q 111 366 93 367 q 143 364 129 365 q 162 538 150 450 q 188 703 174 625 q 217 838 203 781 l 206 838 q 164 833 188 838 q 133 829 140 829 q 124 843 124 829 q 136 872 124 856 q 174 889 149 889 l 228 889 q 251 943 235 925 q 304 961 267 961 q 324 946 324 961 q 315 925 319 936 q 303 893 310 914 q 333 894 318 894 q 364 894 349 894 q 536 880 447 894 q 709 833 625 865 q 860 753 793 801 q 967 635 928 704 q 1007 478 1007 567 q 971 328 1007 396 q 874 206 935 260 q 738 110 814 151 q 581 42 663 69 q 422 1 499 15 q 283 -12 346 -12 m 325 25 q 465 46 389 25 q 615 101 540 67 q 753 181 690 136 q 853 274 815 226 q 932 403 908 344 q 956 524 956 463 q 901 667 956 607 q 758 766 847 728 q 560 823 668 804 q 343 842 451 842 q 317 842 331 842 q 289 840 304 842 q 233 606 256 726 q 203 364 211 485 q 245 364 218 364 q 300 363 272 364 q 347 361 328 363 q 365 356 365 360 q 315 336 365 344 q 200 321 265 328 q 198 276 199 299 q 197 232 197 254 q 198 188 197 210 q 200 146 199 167 q 225 54 203 83 q 325 25 247 25 z "},"Ď":{"ha":1076,"x_min":128,"x_max":1007,"o":"m 283 -12 q 170 4 211 -12 q 129 46 129 21 q 139 57 129 57 q 147 56 143 57 q 140 117 142 82 q 138 190 138 151 q 144 356 138 267 q 164 537 151 446 q 191 709 176 628 q 221 849 206 790 l 210 849 q 168 844 192 849 q 138 840 144 840 q 128 854 128 840 q 140 883 128 867 q 178 900 153 900 l 232 900 q 253 946 238 931 q 304 961 269 961 q 324 946 324 961 q 317 931 319 936 q 307 904 314 925 l 343 904 q 528 889 435 904 q 708 842 622 874 q 861 760 793 811 q 968 640 929 710 q 1007 478 1007 569 q 971 328 1007 396 q 874 206 935 260 q 738 110 814 151 q 581 42 663 69 q 422 1 499 15 q 283 -12 346 -12 m 325 25 q 465 46 389 25 q 615 101 540 67 q 753 181 690 136 q 853 274 815 226 q 932 403 908 344 q 956 524 956 463 q 919 655 956 600 q 822 745 882 710 q 692 802 763 781 q 551 834 621 824 q 426 848 482 844 q 342 851 371 851 l 293 851 q 224 539 250 704 q 199 218 199 374 q 199 182 199 200 q 200 146 199 164 q 225 54 203 83 q 325 25 247 25 m 714 1108 q 715 1106 717 1108 q 654 1052 690 1080 q 552 985 618 1023 l 544 980 l 541 980 q 532 985 537 980 q 462 1048 486 1020 q 416 1103 438 1076 q 421 1108 412 1108 q 423 1106 422 1108 q 483 1070 451 1086 q 552 1046 515 1055 q 631 1076 588 1056 q 708 1106 674 1096 q 714 1108 711 1108 z "},"Đ":{"ha":1076,"x_min":17,"x_max":1007,"o":"m 283 -12 q 170 4 211 -12 q 129 46 129 21 q 139 57 129 57 q 147 56 143 57 q 139 119 142 83 q 136 197 136 156 q 140 317 136 254 q 102 315 121 315 q 67 315 83 315 q 33 323 49 315 q 17 343 17 331 q 29 360 17 354 q 76 367 42 367 q 111 366 93 367 q 143 364 129 365 q 162 538 150 450 q 188 703 174 625 q 217 838 203 781 l 206 838 q 164 833 188 838 q 133 829 140 829 q 124 843 124 829 q 136 872 124 856 q 174 889 149 889 l 228 889 q 251 943 235 925 q 304 961 267 961 q 324 946 324 961 q 315 925 319 936 q 303 893 310 914 q 333 894 318 894 q 364 894 349 894 q 536 880 447 894 q 709 833 625 865 q 860 753 793 801 q 967 635 928 704 q 1007 478 1007 567 q 971 328 1007 396 q 874 206 935 260 q 738 110 814 151 q 581 42 663 69 q 422 1 499 15 q 283 -12 346 -12 m 325 25 q 465 46 389 25 q 615 101 540 67 q 753 181 690 136 q 853 274 815 226 q 932 403 908 344 q 956 524 956 463 q 901 667 956 607 q 758 766 847 728 q 560 823 668 804 q 343 842 451 842 q 317 842 331 842 q 289 840 304 842 q 233 606 256 726 q 203 364 211 485 q 245 364 218 364 q 300 363 272 364 q 347 361 328 363 q 365 356 365 360 q 315 336 365 344 q 200 321 265 328 q 198 276 199 299 q 197 232 197 254 q 198 188 197 210 q 200 146 199 167 q 225 54 203 83 q 325 25 247 25 z "},"E":{"ha":801,"x_min":76,"x_max":742,"o":"m 494 -1 l 315 -1 q 203 -1 258 -1 q 112 2 147 0 q 76 7 76 4 q 93 35 76 18 q 125 54 110 51 q 124 67 124 60 q 124 82 124 74 q 128 174 124 118 q 140 299 132 231 q 154 436 147 367 l 136 436 q 122 446 122 436 q 133 467 122 456 q 158 479 144 478 q 189 695 172 590 q 224 867 206 800 l 150 867 q 119 878 119 867 q 137 892 119 885 q 178 900 154 900 l 232 900 q 260 950 239 939 q 311 961 282 961 q 332 947 332 961 q 324 926 332 938 q 311 901 317 914 q 360 901 325 901 q 483 900 396 900 q 585 901 526 900 q 721 901 644 901 q 742 881 742 901 q 728 843 742 867 q 699 819 714 819 q 680 837 689 819 q 651 856 671 854 q 595 858 633 858 q 533 858 557 858 q 499 858 515 858 q 468 857 483 857 q 395 858 432 857 q 297 860 358 858 q 268 740 283 811 q 241 599 253 669 q 222 479 229 529 q 322 479 264 479 q 441 480 381 479 q 550 481 501 481 q 619 483 599 482 q 628 475 628 483 q 615 453 628 467 q 575 436 603 440 l 217 436 q 208 347 214 400 q 199 238 203 294 q 196 129 196 181 q 197 82 196 104 q 201 43 199 60 q 338 42 251 43 q 563 42 424 42 q 640 47 593 42 q 722 64 686 53 l 724 64 q 729 50 729 64 q 719 18 729 36 q 688 0 710 0 q 593 -1 642 0 q 494 -1 544 -1 z "},"É":{"ha":801,"x_min":76,"x_max":742,"o":"m 494 -1 l 315 -1 q 203 -1 258 -1 q 112 2 147 0 q 76 7 76 4 q 93 35 76 18 q 125 54 110 51 q 124 67 124 60 q 124 82 124 74 q 128 174 124 118 q 140 299 132 231 q 154 436 147 367 l 136 436 q 122 446 122 436 q 133 467 122 456 q 158 479 144 478 q 189 695 172 590 q 224 867 206 800 l 150 867 q 119 878 119 867 q 137 892 119 885 q 178 900 154 900 l 232 900 q 260 950 239 939 q 311 961 282 961 q 332 947 332 961 q 324 926 332 938 q 311 901 317 914 q 360 901 325 901 q 483 900 396 900 q 585 901 526 900 q 721 901 644 901 q 742 881 742 901 q 728 843 742 867 q 699 819 714 819 q 680 837 689 819 q 651 856 671 854 q 595 858 633 858 q 533 858 557 858 q 499 858 515 858 q 468 857 483 857 q 395 858 432 857 q 297 860 358 858 q 268 740 283 811 q 241 599 253 669 q 222 479 229 529 q 322 479 264 479 q 441 480 381 479 q 550 481 501 481 q 619 483 599 482 q 628 475 628 483 q 615 453 628 467 q 575 436 603 440 l 217 436 q 208 347 214 400 q 199 238 203 294 q 196 129 196 181 q 197 82 196 104 q 201 43 199 60 q 338 42 251 43 q 563 42 424 42 q 640 47 593 42 q 722 64 686 53 l 724 64 q 729 50 729 64 q 719 18 729 36 q 688 0 710 0 q 593 -1 642 0 q 494 -1 544 -1 m 400 975 q 396 979 396 975 q 424 1012 396 988 q 497 1069 453 1037 q 586 1132 540 1102 q 599 1137 593 1137 q 620 1125 612 1137 q 626 1101 628 1112 l 626 1098 q 616 1082 626 1088 q 559 1052 598 1071 q 479 1012 520 1032 q 407 976 437 992 q 400 975 404 975 z "},"Ě":{"ha":801,"x_min":76,"x_max":742,"o":"m 494 -1 l 315 -1 q 203 -1 258 -1 q 112 2 147 0 q 76 7 76 4 q 93 35 76 18 q 125 54 110 51 q 124 67 124 60 q 124 82 124 74 q 128 174 124 118 q 140 299 132 231 q 154 436 147 367 l 136 436 q 122 446 122 436 q 133 467 122 456 q 158 479 144 478 q 189 695 172 590 q 224 867 206 800 l 150 867 q 119 878 119 867 q 137 892 119 885 q 178 900 154 900 l 232 900 q 260 950 239 939 q 311 961 282 961 q 332 947 332 961 q 324 926 332 938 q 311 901 317 914 q 360 901 325 901 q 483 900 396 900 q 585 901 526 900 q 721 901 644 901 q 742 881 742 901 q 728 843 742 867 q 699 819 714 819 q 680 837 689 819 q 651 856 671 854 q 595 858 633 858 q 533 858 557 858 q 499 858 515 858 q 468 857 483 857 q 395 858 432 857 q 297 860 358 858 q 268 740 283 811 q 241 599 253 669 q 222 479 229 529 q 322 479 264 479 q 441 480 381 479 q 550 481 501 481 q 619 483 599 482 q 628 475 628 483 q 615 453 628 467 q 575 436 603 440 l 217 436 q 208 347 214 400 q 199 238 203 294 q 196 129 196 181 q 197 82 196 104 q 201 43 199 60 q 338 42 251 43 q 563 42 424 42 q 640 47 593 42 q 722 64 686 53 l 724 64 q 729 50 729 64 q 719 18 729 36 q 688 0 710 0 q 593 -1 642 0 q 494 -1 544 -1 m 686 1108 q 688 1106 689 1108 q 626 1052 662 1080 q 524 985 590 1023 l 516 980 l 513 980 q 504 985 509 980 q 434 1048 459 1020 q 389 1103 410 1076 q 393 1108 384 1108 q 396 1106 394 1108 q 455 1070 423 1086 q 524 1046 487 1055 q 603 1076 560 1056 q 680 1106 646 1096 q 686 1108 683 1108 z "},"Ê":{"ha":801,"x_min":76,"x_max":742,"o":"m 494 -1 l 315 -1 q 203 -1 258 -1 q 112 2 147 0 q 76 7 76 4 q 93 35 76 18 q 125 54 110 51 q 124 67 124 60 q 124 82 124 74 q 128 174 124 118 q 140 299 132 231 q 154 436 147 367 l 136 436 q 122 446 122 436 q 133 467 122 456 q 158 479 144 478 q 189 695 172 590 q 224 867 206 800 l 150 867 q 119 878 119 867 q 137 892 119 885 q 178 900 154 900 l 232 900 q 260 950 239 939 q 311 961 282 961 q 332 947 332 961 q 324 926 332 938 q 311 901 317 914 q 360 901 325 901 q 483 900 396 900 q 585 901 526 900 q 721 901 644 901 q 742 881 742 901 q 728 843 742 867 q 699 819 714 819 q 680 837 689 819 q 651 856 671 854 q 595 858 633 858 q 533 858 557 858 q 499 858 515 858 q 468 857 483 857 q 395 858 432 857 q 297 860 358 858 q 268 740 283 811 q 241 599 253 669 q 222 479 229 529 q 322 479 264 479 q 441 480 381 479 q 550 481 501 481 q 619 483 599 482 q 628 475 628 483 q 615 453 628 467 q 575 436 603 440 l 217 436 q 208 347 214 400 q 199 238 203 294 q 196 129 196 181 q 197 82 196 104 q 201 43 199 60 q 338 42 251 43 q 563 42 424 42 q 640 47 593 42 q 722 64 686 53 l 724 64 q 729 50 729 64 q 719 18 729 36 q 688 0 710 0 q 593 -1 642 0 q 494 -1 544 -1 m 368 1010 q 367 1011 365 1010 q 426 1064 392 1036 q 525 1129 461 1092 l 533 1133 l 536 1133 q 544 1129 540 1133 q 613 1067 589 1094 q 657 1014 636 1040 q 653 1010 661 1010 q 650 1011 651 1010 q 592 1046 624 1031 q 525 1069 561 1061 q 449 1040 490 1060 q 374 1011 407 1021 q 368 1010 371 1010 z "},"Ế":{"ha":801,"x_min":76,"x_max":742,"o":"m 494 -1 l 315 -1 q 203 -1 258 -1 q 112 2 147 0 q 76 7 76 4 q 93 35 76 18 q 125 54 110 51 q 124 67 124 60 q 124 82 124 74 q 128 174 124 118 q 140 299 132 231 q 154 436 147 367 l 136 436 q 122 446 122 436 q 133 467 122 456 q 158 479 144 478 q 189 695 172 590 q 224 867 206 800 l 150 867 q 119 878 119 867 q 137 892 119 885 q 178 900 154 900 l 232 900 q 260 950 239 939 q 311 961 282 961 q 332 947 332 961 q 324 926 332 938 q 311 901 317 914 q 360 901 325 901 q 483 900 396 900 q 585 901 526 900 q 721 901 644 901 q 742 881 742 901 q 728 843 742 867 q 699 819 714 819 q 680 837 689 819 q 651 856 671 854 q 595 858 633 858 q 533 858 557 858 q 499 858 515 858 q 468 857 483 857 q 395 858 432 857 q 297 860 358 858 q 268 740 283 811 q 241 599 253 669 q 222 479 229 529 q 322 479 264 479 q 441 480 381 479 q 550 481 501 481 q 619 483 599 482 q 628 475 628 483 q 615 453 628 467 q 575 436 603 440 l 217 436 q 208 347 214 400 q 199 238 203 294 q 196 129 196 181 q 197 82 196 104 q 201 43 199 60 q 338 42 251 43 q 563 42 424 42 q 640 47 593 42 q 722 64 686 53 l 724 64 q 729 50 729 64 q 719 18 729 36 q 688 0 710 0 q 593 -1 642 0 q 494 -1 544 -1 m 401 1108 q 399 1114 397 1110 q 433 1137 400 1121 q 515 1172 465 1153 q 615 1208 564 1192 q 628 1210 622 1211 q 644 1194 640 1207 q 644 1169 649 1181 q 644 1167 644 1168 q 631 1154 642 1157 q 569 1140 610 1149 q 484 1122 528 1131 q 408 1108 440 1114 q 401 1108 406 1107 m 372 979 q 371 981 371 979 q 417 1016 371 990 q 526 1078 464 1042 q 531 1081 529 1079 q 535 1082 533 1082 l 538 1082 q 546 1078 542 1082 q 608 1024 590 1044 q 653 983 626 1003 q 649 979 657 979 q 647 980 647 979 q 646 981 647 981 q 589 1003 615 994 q 526 1021 563 1013 q 451 1001 492 1011 q 378 981 410 990 q 372 979 375 979 z "},"Ệ":{"ha":801,"x_min":76,"x_max":742,"o":"m 494 -1 l 315 -1 q 203 -1 258 -1 q 112 2 147 0 q 76 7 76 4 q 93 35 76 18 q 125 54 110 51 q 124 67 124 60 q 124 82 124 74 q 128 174 124 118 q 140 299 132 231 q 154 436 147 367 l 136 436 q 122 446 122 436 q 133 467 122 456 q 158 479 144 478 q 189 695 172 590 q 224 867 206 800 l 150 867 q 119 878 119 867 q 137 892 119 885 q 178 900 154 900 l 232 900 q 260 950 239 939 q 311 961 282 961 q 332 947 332 961 q 324 926 332 938 q 311 901 317 914 q 360 901 325 901 q 483 900 396 900 q 585 901 526 900 q 721 901 644 901 q 742 881 742 901 q 728 843 742 867 q 699 819 714 819 q 680 837 689 819 q 651 856 671 854 q 595 858 633 858 q 533 858 557 858 q 499 858 515 858 q 468 857 483 857 q 395 858 432 857 q 297 860 358 858 q 268 740 283 811 q 241 599 253 669 q 222 479 229 529 q 322 479 264 479 q 441 480 381 479 q 550 481 501 481 q 619 483 599 482 q 628 475 628 483 q 615 453 628 467 q 575 436 603 440 l 217 436 q 208 347 214 400 q 199 238 203 294 q 196 129 196 181 q 197 82 196 104 q 201 43 199 60 q 338 42 251 43 q 563 42 424 42 q 640 47 593 42 q 722 64 686 53 l 724 64 q 729 50 729 64 q 719 18 729 36 q 688 0 710 0 q 593 -1 642 0 q 494 -1 544 -1 m 364 -173 q 346 -160 355 -173 q 338 -141 338 -148 q 356 -114 338 -128 q 397 -89 375 -100 q 432 -78 420 -78 q 436 -79 435 -78 l 436 -78 q 437 -79 436 -79 q 437 -80 437 -80 q 429 -89 437 -81 q 419 -99 421 -96 q 405 -126 411 -107 q 389 -158 399 -144 q 364 -173 380 -173 m 368 1010 q 367 1011 365 1010 q 426 1064 392 1036 q 525 1129 461 1092 l 533 1133 l 536 1133 q 544 1129 540 1133 q 613 1067 589 1094 q 657 1014 636 1040 q 653 1010 661 1010 q 650 1011 651 1010 q 592 1046 624 1031 q 525 1069 561 1061 q 449 1040 490 1060 q 374 1011 407 1021 q 368 1010 371 1010 z "},"Ề":{"ha":801,"x_min":76,"x_max":742,"o":"m 494 -1 l 315 -1 q 203 -1 258 -1 q 112 2 147 0 q 76 7 76 4 q 93 35 76 18 q 125 54 110 51 q 124 67 124 60 q 124 82 124 74 q 128 174 124 118 q 140 299 132 231 q 154 436 147 367 l 136 436 q 122 446 122 436 q 133 467 122 456 q 158 479 144 478 q 189 695 172 590 q 224 867 206 800 l 150 867 q 119 878 119 867 q 137 892 119 885 q 178 900 154 900 l 232 900 q 260 950 239 939 q 311 961 282 961 q 332 947 332 961 q 324 926 332 938 q 311 901 317 914 q 360 901 325 901 q 483 900 396 900 q 585 901 526 900 q 721 901 644 901 q 742 881 742 901 q 728 843 742 867 q 699 819 714 819 q 680 837 689 819 q 651 856 671 854 q 595 858 633 858 q 533 858 557 858 q 499 858 515 858 q 468 857 483 857 q 395 858 432 857 q 297 860 358 858 q 268 740 283 811 q 241 599 253 669 q 222 479 229 529 q 322 479 264 479 q 441 480 381 479 q 550 481 501 481 q 619 483 599 482 q 628 475 628 483 q 615 453 628 467 q 575 436 603 440 l 217 436 q 208 347 214 400 q 199 238 203 294 q 196 129 196 181 q 197 82 196 104 q 201 43 199 60 q 338 42 251 43 q 563 42 424 42 q 640 47 593 42 q 722 64 686 53 l 724 64 q 729 50 729 64 q 719 18 729 36 q 688 0 710 0 q 593 -1 642 0 q 494 -1 544 -1 m 651 1114 q 644 1114 647 1113 q 569 1128 613 1119 q 484 1145 525 1136 q 422 1160 443 1154 q 408 1172 411 1163 q 408 1174 408 1174 q 408 1175 408 1174 q 408 1199 404 1186 q 425 1215 413 1213 q 438 1214 431 1217 q 538 1178 489 1197 q 620 1142 588 1158 q 654 1119 653 1126 q 651 1114 656 1115 m 372 979 q 371 981 371 979 q 417 1016 371 990 q 526 1078 464 1042 q 531 1081 529 1079 q 535 1082 533 1082 l 538 1082 q 546 1078 542 1082 q 608 1024 590 1044 q 653 983 626 1003 q 649 979 657 979 q 647 980 647 979 q 646 981 647 981 q 589 1003 615 994 q 526 1021 563 1013 q 451 1001 492 1011 q 378 981 410 990 q 372 979 375 979 z "},"Ể":{"ha":801,"x_min":76,"x_max":742,"o":"m 494 -1 l 315 -1 q 203 -1 258 -1 q 112 2 147 0 q 76 7 76 4 q 93 35 76 18 q 125 54 110 51 q 124 67 124 60 q 124 82 124 74 q 128 174 124 118 q 140 299 132 231 q 154 436 147 367 l 136 436 q 122 446 122 436 q 133 467 122 456 q 158 479 144 478 q 189 695 172 590 q 224 867 206 800 l 150 867 q 119 878 119 867 q 137 892 119 885 q 178 900 154 900 l 232 900 q 260 950 239 939 q 311 961 282 961 q 332 947 332 961 q 324 926 332 938 q 311 901 317 914 q 360 901 325 901 q 483 900 396 900 q 585 901 526 900 q 721 901 644 901 q 742 881 742 901 q 728 843 742 867 q 699 819 714 819 q 680 837 689 819 q 651 856 671 854 q 595 858 633 858 q 533 858 557 858 q 499 858 515 858 q 468 857 483 857 q 395 858 432 857 q 297 860 358 858 q 268 740 283 811 q 241 599 253 669 q 222 479 229 529 q 322 479 264 479 q 441 480 381 479 q 550 481 501 481 q 619 483 599 482 q 628 475 628 483 q 615 453 628 467 q 575 436 603 440 l 217 436 q 208 347 214 400 q 199 238 203 294 q 196 129 196 181 q 197 82 196 104 q 201 43 199 60 q 338 42 251 43 q 563 42 424 42 q 640 47 593 42 q 722 64 686 53 l 724 64 q 729 50 729 64 q 719 18 729 36 q 688 0 710 0 q 593 -1 642 0 q 494 -1 544 -1 m 636 1056 q 657 1075 651 1068 q 669 1093 663 1082 q 676 1117 676 1104 q 653 1142 676 1142 q 603 1133 625 1142 q 582 1125 582 1125 q 576 1135 572 1125 q 603 1162 583 1151 q 644 1177 622 1172 q 679 1183 667 1182 q 687 1184 683 1183 q 693 1185 690 1185 q 724 1176 715 1185 q 732 1154 732 1168 q 726 1127 732 1142 q 714 1097 721 1113 q 681 1059 701 1072 q 649 1046 661 1046 q 636 1056 636 1046 m 372 979 q 371 981 371 979 q 417 1016 371 990 q 526 1078 464 1042 q 531 1081 529 1079 q 535 1082 533 1082 l 538 1082 q 546 1078 542 1082 q 608 1024 590 1044 q 653 983 626 1003 q 649 979 657 979 q 647 980 647 979 q 646 981 647 981 q 589 1003 615 994 q 526 1021 563 1013 q 451 1001 492 1011 q 378 981 410 990 q 372 979 375 979 z "},"Ễ":{"ha":801,"x_min":76,"x_max":742,"o":"m 494 -1 l 315 -1 q 203 -1 258 -1 q 112 2 147 0 q 76 7 76 4 q 93 35 76 18 q 125 54 110 51 q 124 67 124 60 q 124 82 124 74 q 128 174 124 118 q 140 299 132 231 q 154 436 147 367 l 136 436 q 122 446 122 436 q 133 467 122 456 q 158 479 144 478 q 189 695 172 590 q 224 867 206 800 l 150 867 q 119 878 119 867 q 137 892 119 885 q 178 900 154 900 l 232 900 q 260 950 239 939 q 311 961 282 961 q 332 947 332 961 q 324 926 332 938 q 311 901 317 914 q 360 901 325 901 q 483 900 396 900 q 585 901 526 900 q 721 901 644 901 q 742 881 742 901 q 728 843 742 867 q 699 819 714 819 q 680 837 689 819 q 651 856 671 854 q 595 858 633 858 q 533 858 557 858 q 499 858 515 858 q 468 857 483 857 q 395 858 432 857 q 297 860 358 858 q 268 740 283 811 q 241 599 253 669 q 222 479 229 529 q 322 479 264 479 q 441 480 381 479 q 550 481 501 481 q 619 483 599 482 q 628 475 628 483 q 615 453 628 467 q 575 436 603 440 l 217 436 q 208 347 214 400 q 199 238 203 294 q 196 129 196 181 q 197 82 196 104 q 201 43 199 60 q 338 42 251 43 q 563 42 424 42 q 640 47 593 42 q 722 64 686 53 l 724 64 q 729 50 729 64 q 719 18 729 36 q 688 0 710 0 q 593 -1 642 0 q 494 -1 544 -1 m 578 1125 q 519 1141 547 1125 q 461 1157 490 1157 q 421 1142 433 1157 q 397 1126 408 1126 q 394 1128 394 1126 q 405 1145 394 1135 q 428 1165 415 1156 q 446 1178 440 1175 q 488 1189 464 1189 q 544 1176 517 1189 q 600 1164 572 1164 q 650 1189 629 1164 q 657 1185 657 1189 q 639 1153 657 1167 q 601 1133 621 1140 q 578 1125 582 1125 m 372 979 q 371 981 371 979 q 417 1016 371 990 q 526 1078 464 1042 q 531 1081 529 1079 q 535 1082 533 1082 l 538 1082 q 546 1078 542 1082 q 608 1024 590 1044 q 653 983 626 1003 q 649 979 657 979 q 647 980 647 979 q 646 981 647 981 q 589 1003 615 994 q 526 1021 563 1013 q 451 1001 492 1011 q 378 981 410 990 q 372 979 375 979 z "},"Ë":{"ha":801,"x_min":76,"x_max":742,"o":"m 494 -1 l 315 -1 q 203 -1 258 -1 q 112 2 147 0 q 76 7 76 4 q 93 35 76 18 q 125 54 110 51 q 124 67 124 60 q 124 82 124 74 q 128 174 124 118 q 140 299 132 231 q 154 436 147 367 l 136 436 q 122 446 122 436 q 133 467 122 456 q 158 479 144 478 q 189 695 172 590 q 224 867 206 800 l 150 867 q 119 878 119 867 q 137 892 119 885 q 178 900 154 900 l 232 900 q 260 950 239 939 q 311 961 282 961 q 332 947 332 961 q 324 926 332 938 q 311 901 317 914 q 360 901 325 901 q 483 900 396 900 q 585 901 526 900 q 721 901 644 901 q 742 881 742 901 q 728 843 742 867 q 699 819 714 819 q 680 837 689 819 q 651 856 671 854 q 595 858 633 858 q 533 858 557 858 q 499 858 515 858 q 468 857 483 857 q 395 858 432 857 q 297 860 358 858 q 268 740 283 811 q 241 599 253 669 q 222 479 229 529 q 322 479 264 479 q 441 480 381 479 q 550 481 501 481 q 619 483 599 482 q 628 475 628 483 q 615 453 628 467 q 575 436 603 440 l 217 436 q 208 347 214 400 q 199 238 203 294 q 196 129 196 181 q 197 82 196 104 q 201 43 199 60 q 338 42 251 43 q 563 42 424 42 q 640 47 593 42 q 722 64 686 53 l 724 64 q 729 50 729 64 q 719 18 729 36 q 688 0 710 0 q 593 -1 642 0 q 494 -1 544 -1 m 571 993 q 550 1005 554 993 q 546 1031 546 1017 q 570 1079 546 1056 q 617 1103 594 1103 q 625 1099 624 1103 q 617 1055 625 1081 q 608 1022 608 1029 q 595 1002 608 1008 q 571 993 582 996 m 421 993 q 402 1005 407 993 q 397 1031 397 1017 q 421 1079 397 1056 q 468 1103 444 1103 q 475 1099 474 1103 q 467 1055 475 1081 q 458 1022 458 1029 q 445 1002 458 1008 q 421 993 432 996 z "},"Ė":{"ha":801,"x_min":76,"x_max":742,"o":"m 494 -1 l 315 -1 q 203 -1 258 -1 q 112 2 147 0 q 76 7 76 4 q 93 35 76 18 q 125 54 110 51 q 124 67 124 60 q 124 82 124 74 q 128 174 124 118 q 140 299 132 231 q 154 436 147 367 l 136 436 q 122 446 122 436 q 133 467 122 456 q 158 479 144 478 q 189 695 172 590 q 224 867 206 800 l 150 867 q 119 878 119 867 q 137 892 119 885 q 178 900 154 900 l 232 900 q 260 950 239 939 q 311 961 282 961 q 332 947 332 961 q 324 926 332 938 q 311 901 317 914 q 360 901 325 901 q 483 900 396 900 q 585 901 526 900 q 721 901 644 901 q 742 881 742 901 q 728 843 742 867 q 699 819 714 819 q 680 837 689 819 q 651 856 671 854 q 595 858 633 858 q 533 858 557 858 q 499 858 515 858 q 468 857 483 857 q 395 858 432 857 q 297 860 358 858 q 268 740 283 811 q 241 599 253 669 q 222 479 229 529 q 322 479 264 479 q 441 480 381 479 q 550 481 501 481 q 619 483 599 482 q 628 475 628 483 q 615 453 628 467 q 575 436 603 440 l 217 436 q 208 347 214 400 q 199 238 203 294 q 196 129 196 181 q 197 82 196 104 q 201 43 199 60 q 338 42 251 43 q 563 42 424 42 q 640 47 593 42 q 722 64 686 53 l 724 64 q 729 50 729 64 q 719 18 729 36 q 688 0 710 0 q 593 -1 642 0 q 494 -1 544 -1 m 508 982 q 489 997 499 982 q 479 1022 479 1013 q 500 1056 479 1038 q 546 1088 521 1074 q 585 1101 571 1101 q 589 1100 588 1101 l 589 1101 q 590 1099 589 1100 q 590 1099 590 1099 q 581 1088 590 1097 q 569 1075 572 1078 q 554 1041 561 1064 q 537 1000 547 1018 q 508 982 526 982 z "},"Ẹ":{"ha":801,"x_min":76,"x_max":742,"o":"m 494 -1 l 315 -1 q 203 -1 258 -1 q 112 2 147 0 q 76 7 76 4 q 93 35 76 18 q 125 54 110 51 q 124 67 124 60 q 124 82 124 74 q 128 174 124 118 q 140 299 132 231 q 154 436 147 367 l 136 436 q 122 446 122 436 q 133 467 122 456 q 158 479 144 478 q 189 695 172 590 q 224 867 206 800 l 150 867 q 119 878 119 867 q 137 892 119 885 q 178 900 154 900 l 232 900 q 260 950 239 939 q 311 961 282 961 q 332 947 332 961 q 324 926 332 938 q 311 901 317 914 q 360 901 325 901 q 483 900 396 900 q 585 901 526 900 q 721 901 644 901 q 742 881 742 901 q 728 843 742 867 q 699 819 714 819 q 680 837 689 819 q 651 856 671 854 q 595 858 633 858 q 533 858 557 858 q 499 858 515 858 q 468 857 483 857 q 395 858 432 857 q 297 860 358 858 q 268 740 283 811 q 241 599 253 669 q 222 479 229 529 q 322 479 264 479 q 441 480 381 479 q 550 481 501 481 q 619 483 599 482 q 628 475 628 483 q 615 453 628 467 q 575 436 603 440 l 217 436 q 208 347 214 400 q 199 238 203 294 q 196 129 196 181 q 197 82 196 104 q 201 43 199 60 q 338 42 251 43 q 563 42 424 42 q 640 47 593 42 q 722 64 686 53 l 724 64 q 729 50 729 64 q 719 18 729 36 q 688 0 710 0 q 593 -1 642 0 q 494 -1 544 -1 m 364 -173 q 346 -160 355 -173 q 338 -141 338 -148 q 356 -114 338 -128 q 397 -89 375 -100 q 432 -78 420 -78 q 436 -79 435 -78 l 436 -78 q 437 -79 436 -79 q 437 -80 437 -80 q 429 -89 437 -81 q 419 -99 421 -96 q 405 -126 411 -107 q 389 -158 399 -144 q 364 -173 380 -173 z "},"È":{"ha":801,"x_min":76,"x_max":742,"o":"m 494 -1 l 315 -1 q 203 -1 258 -1 q 112 2 147 0 q 76 7 76 4 q 93 35 76 18 q 125 54 110 51 q 124 67 124 60 q 124 82 124 74 q 128 174 124 118 q 140 299 132 231 q 154 436 147 367 l 136 436 q 122 446 122 436 q 133 467 122 456 q 158 479 144 478 q 189 695 172 590 q 224 867 206 800 l 150 867 q 119 878 119 867 q 137 892 119 885 q 178 900 154 900 l 232 900 q 260 950 239 939 q 311 961 282 961 q 332 947 332 961 q 324 926 332 938 q 311 901 317 914 q 360 901 325 901 q 483 900 396 900 q 585 901 526 900 q 721 901 644 901 q 742 881 742 901 q 728 843 742 867 q 699 819 714 819 q 680 837 689 819 q 651 856 671 854 q 595 858 633 858 q 533 858 557 858 q 499 858 515 858 q 468 857 483 857 q 395 858 432 857 q 297 860 358 858 q 268 740 283 811 q 241 599 253 669 q 222 479 229 529 q 322 479 264 479 q 441 480 381 479 q 550 481 501 481 q 619 483 599 482 q 628 475 628 483 q 615 453 628 467 q 575 436 603 440 l 217 436 q 208 347 214 400 q 199 238 203 294 q 196 129 196 181 q 197 82 196 104 q 201 43 199 60 q 338 42 251 43 q 563 42 424 42 q 640 47 593 42 q 722 64 686 53 l 724 64 q 729 50 729 64 q 719 18 729 36 q 688 0 710 0 q 593 -1 642 0 q 494 -1 544 -1 m 622 969 q 626 974 626 969 q 598 1007 626 982 q 525 1064 569 1031 q 436 1127 482 1097 q 423 1131 429 1131 q 402 1119 410 1131 q 396 1095 395 1107 l 396 1093 q 406 1077 396 1083 q 463 1046 425 1065 q 543 1007 502 1027 q 615 971 585 987 q 622 969 618 969 z "},"Ẻ":{"ha":801,"x_min":76,"x_max":742,"o":"m 494 -1 l 315 -1 q 203 -1 258 -1 q 112 2 147 0 q 76 7 76 4 q 93 35 76 18 q 125 54 110 51 q 124 67 124 60 q 124 82 124 74 q 128 174 124 118 q 140 299 132 231 q 154 436 147 367 l 136 436 q 122 446 122 436 q 133 467 122 456 q 158 479 144 478 q 189 695 172 590 q 224 867 206 800 l 150 867 q 119 878 119 867 q 137 892 119 885 q 178 900 154 900 l 232 900 q 260 950 239 939 q 311 961 282 961 q 332 947 332 961 q 324 926 332 938 q 311 901 317 914 q 360 901 325 901 q 483 900 396 900 q 585 901 526 900 q 721 901 644 901 q 742 881 742 901 q 728 843 742 867 q 699 819 714 819 q 680 837 689 819 q 651 856 671 854 q 595 858 633 858 q 533 858 557 858 q 499 858 515 858 q 468 857 483 857 q 395 858 432 857 q 297 860 358 858 q 268 740 283 811 q 241 599 253 669 q 222 479 229 529 q 322 479 264 479 q 441 480 381 479 q 550 481 501 481 q 619 483 599 482 q 628 475 628 483 q 615 453 628 467 q 575 436 603 440 l 217 436 q 208 347 214 400 q 199 238 203 294 q 196 129 196 181 q 197 82 196 104 q 201 43 199 60 q 338 42 251 43 q 563 42 424 42 q 640 47 593 42 q 722 64 686 53 l 724 64 q 729 50 729 64 q 719 18 729 36 q 688 0 710 0 q 593 -1 642 0 q 494 -1 544 -1 m 496 997 q 527 1032 518 1017 q 536 1075 536 1047 q 513 1100 536 1100 q 463 1092 485 1100 q 442 1083 442 1083 q 436 1093 432 1083 q 463 1120 443 1110 q 504 1135 482 1131 q 539 1142 526 1140 q 547 1142 543 1142 q 553 1143 550 1143 q 585 1130 575 1143 q 596 1103 596 1117 q 588 1072 596 1090 q 574 1039 581 1054 q 541 1001 561 1014 q 508 988 521 988 q 496 997 496 988 z "},"Ē":{"ha":801,"x_min":76,"x_max":742,"o":"m 494 -1 l 315 -1 q 203 -1 258 -1 q 112 2 147 0 q 76 7 76 4 q 93 35 76 18 q 125 54 110 51 q 124 67 124 60 q 124 82 124 74 q 128 174 124 118 q 140 299 132 231 q 154 436 147 367 l 136 436 q 122 446 122 436 q 133 467 122 456 q 158 479 144 478 q 189 695 172 590 q 224 867 206 800 l 150 867 q 119 878 119 867 q 137 892 119 885 q 178 900 154 900 l 232 900 q 260 950 239 939 q 311 961 282 961 q 332 947 332 961 q 324 926 332 938 q 311 901 317 914 q 360 901 325 901 q 483 900 396 900 q 585 901 526 900 q 721 901 644 901 q 742 881 742 901 q 728 843 742 867 q 699 819 714 819 q 680 837 689 819 q 651 856 671 854 q 595 858 633 858 q 533 858 557 858 q 499 858 515 858 q 468 857 483 857 q 395 858 432 857 q 297 860 358 858 q 268 740 283 811 q 241 599 253 669 q 222 479 229 529 q 322 479 264 479 q 441 480 381 479 q 550 481 501 481 q 619 483 599 482 q 628 475 628 483 q 615 453 628 467 q 575 436 603 440 l 217 436 q 208 347 214 400 q 199 238 203 294 q 196 129 196 181 q 197 82 196 104 q 201 43 199 60 q 338 42 251 43 q 563 42 424 42 q 640 47 593 42 q 722 64 686 53 l 724 64 q 729 50 729 64 q 719 18 729 36 q 688 0 710 0 q 593 -1 642 0 q 494 -1 544 -1 m 410 999 q 383 1001 390 999 q 375 1007 375 1004 q 393 1023 375 1017 q 436 1033 411 1029 q 482 1038 461 1038 q 547 1035 508 1038 q 617 1026 586 1032 q 647 1013 647 1021 q 631 1002 647 1006 q 611 999 615 999 l 410 999 z "},"Ę":{"ha":801,"x_min":76,"x_max":742,"o":"m 494 -1 l 315 -1 q 203 -1 258 -1 q 112 2 147 0 q 76 7 76 4 q 93 35 76 18 q 125 54 110 51 q 124 67 124 60 q 124 82 124 74 q 128 174 124 118 q 140 299 132 231 q 154 436 147 367 l 136 436 q 122 446 122 436 q 133 467 122 456 q 158 479 144 478 q 189 695 172 590 q 224 867 206 800 l 150 867 q 119 878 119 867 q 137 892 119 885 q 178 900 154 900 l 232 900 q 260 950 239 939 q 311 961 282 961 q 332 947 332 961 q 324 926 332 938 q 311 901 317 914 q 360 901 325 901 q 483 900 396 900 q 585 901 526 900 q 721 901 644 901 q 742 881 742 901 q 728 843 742 867 q 699 819 714 819 q 680 837 689 819 q 651 856 671 854 q 595 858 633 858 q 533 858 557 858 q 499 858 515 858 q 468 857 483 857 q 395 858 432 857 q 297 860 358 858 q 268 740 283 811 q 241 599 253 669 q 222 479 229 529 q 322 479 264 479 q 441 480 381 479 q 550 481 501 481 q 619 483 599 482 q 628 475 628 483 q 615 453 628 467 q 575 436 603 440 l 217 436 q 208 347 214 400 q 199 238 203 294 q 196 129 196 181 q 197 82 196 104 q 201 43 199 60 q 338 42 251 43 q 563 42 424 42 q 640 47 593 42 q 722 64 686 53 l 724 64 q 729 50 729 64 q 719 18 729 36 q 688 0 710 0 q 593 -1 642 0 q 494 -1 544 -1 m 411 -210 q 344 -197 368 -210 q 319 -151 319 -183 q 326 -112 319 -137 q 345 -59 333 -86 q 372 -12 357 -32 q 403 13 386 8 q 413 14 407 14 q 424 8 419 14 q 391 -50 408 -14 q 374 -114 374 -86 q 426 -171 374 -171 q 468 -162 446 -171 q 508 -147 490 -154 q 531 -139 526 -139 q 546 -151 546 -139 q 528 -178 546 -167 q 488 -196 511 -189 q 442 -206 464 -203 q 411 -210 421 -210 z "},"Ẽ":{"ha":801,"x_min":76,"x_max":742,"o":"m 494 -1 l 315 -1 q 203 -1 258 -1 q 112 2 147 0 q 76 7 76 4 q 93 35 76 18 q 125 54 110 51 q 124 67 124 60 q 124 82 124 74 q 128 174 124 118 q 140 299 132 231 q 154 436 147 367 l 136 436 q 122 446 122 436 q 133 467 122 456 q 158 479 144 478 q 189 695 172 590 q 224 867 206 800 l 150 867 q 119 878 119 867 q 137 892 119 885 q 178 900 154 900 l 232 900 q 260 950 239 939 q 311 961 282 961 q 332 947 332 961 q 324 926 332 938 q 311 901 317 914 q 360 901 325 901 q 483 900 396 900 q 585 901 526 900 q 721 901 644 901 q 742 881 742 901 q 728 843 742 867 q 699 819 714 819 q 680 837 689 819 q 651 856 671 854 q 595 858 633 858 q 533 858 557 858 q 499 858 515 858 q 468 857 483 857 q 395 858 432 857 q 297 860 358 858 q 268 740 283 811 q 241 599 253 669 q 222 479 229 529 q 322 479 264 479 q 441 480 381 479 q 550 481 501 481 q 619 483 599 482 q 628 475 628 483 q 615 453 628 467 q 575 436 603 440 l 217 436 q 208 347 214 400 q 199 238 203 294 q 196 129 196 181 q 197 82 196 104 q 201 43 199 60 q 338 42 251 43 q 563 42 424 42 q 640 47 593 42 q 722 64 686 53 l 724 64 q 729 50 729 64 q 719 18 729 36 q 688 0 710 0 q 593 -1 642 0 q 494 -1 544 -1 m 571 975 q 525 985 548 975 q 480 1004 502 995 q 435 1013 458 1013 q 401 1004 414 1013 q 379 986 388 995 q 361 977 371 977 q 358 980 358 977 q 371 999 358 987 q 397 1023 383 1012 q 417 1037 412 1034 q 467 1051 439 1051 q 533 1036 501 1051 q 597 1021 564 1021 q 630 1029 616 1021 q 655 1051 644 1037 q 663 1045 663 1051 q 642 1009 663 1024 q 598 985 620 994 q 571 975 576 975 z "},"F":{"ha":750,"x_min":111,"x_max":743,"o":"m 144 -11 q 111 19 111 -11 q 132 228 119 118 q 154 438 144 338 l 138 438 q 124 447 124 438 q 135 468 124 457 q 160 481 146 479 q 187 674 171 578 q 225 868 203 771 l 151 868 q 121 879 121 869 q 138 894 121 886 q 179 901 156 901 l 233 901 q 262 951 240 940 q 311 961 283 961 q 332 947 332 961 q 325 926 332 938 q 313 903 318 915 q 362 902 326 903 q 485 901 397 901 q 587 902 528 901 q 722 903 646 903 q 743 882 743 903 q 729 844 743 868 q 700 821 715 821 q 681 838 690 821 q 653 857 672 856 q 597 860 635 860 q 535 860 558 860 q 501 859 517 860 q 469 858 485 858 q 397 859 433 858 q 299 861 360 860 q 254 683 274 783 q 219 481 235 582 q 319 481 260 481 q 440 481 378 481 q 551 483 501 482 q 621 485 600 483 q 629 476 629 485 q 617 455 629 468 q 576 438 604 442 l 214 438 q 197 294 206 365 q 184 169 189 224 q 179 89 179 115 q 190 60 190 88 q 144 -11 190 -11 z "},"G":{"ha":1083,"x_min":82,"x_max":1032,"o":"m 868 -28 q 850 -19 858 -28 q 842 6 842 -11 q 847 67 842 33 q 858 135 853 100 q 755 42 818 76 q 620 -7 692 8 q 483 -22 549 -22 q 263 28 353 -22 q 128 168 174 78 q 82 379 82 258 q 119 582 82 486 q 231 753 157 678 q 413 871 304 828 q 663 914 521 914 q 754 908 707 914 q 842 884 801 901 q 906 833 882 867 q 931 744 931 799 q 913 680 931 701 q 869 658 894 658 q 843 674 843 658 q 857 713 843 689 q 871 760 871 738 q 842 828 871 801 q 767 867 814 854 q 665 879 719 879 q 446 838 542 879 q 284 724 350 796 q 184 563 218 653 q 150 376 150 474 q 185 197 150 281 q 291 62 219 114 q 471 10 363 10 q 630 33 561 10 q 749 90 699 56 q 831 163 799 125 q 878 231 863 200 q 889 289 885 260 q 897 344 893 318 l 576 344 q 563 354 563 344 q 574 376 563 364 q 600 388 586 388 q 649 388 610 388 q 742 388 688 388 q 854 389 797 389 q 957 390 911 389 q 1024 392 1003 390 q 1032 383 1032 392 q 1019 362 1032 375 q 979 344 1007 349 l 951 344 q 934 289 944 321 q 916 208 924 257 q 908 85 908 160 q 910 56 908 69 q 913 31 913 43 q 898 -12 913 4 q 868 -28 883 -28 z "},"Ģ":{"ha":1083,"x_min":82,"x_max":1032,"o":"m 868 -28 q 850 -19 858 -28 q 842 6 842 -11 q 847 67 842 33 q 858 135 853 100 q 755 42 818 76 q 620 -7 692 8 q 483 -22 549 -22 q 263 28 353 -22 q 128 168 174 78 q 82 379 82 258 q 119 582 82 486 q 231 753 157 678 q 413 871 304 828 q 663 914 521 914 q 754 908 707 914 q 842 884 801 901 q 906 833 882 867 q 931 744 931 799 q 913 680 931 701 q 869 658 894 658 q 843 674 843 658 q 857 713 843 689 q 871 760 871 738 q 842 828 871 801 q 767 867 814 854 q 665 879 719 879 q 446 838 542 879 q 284 724 350 796 q 184 563 218 653 q 150 376 150 474 q 185 197 150 281 q 291 62 219 114 q 471 10 363 10 q 630 33 561 10 q 749 90 699 56 q 831 163 799 125 q 878 231 863 200 q 889 289 885 260 q 897 344 893 318 l 576 344 q 563 354 563 344 q 574 376 563 364 q 600 388 586 388 q 649 388 610 388 q 742 388 688 388 q 854 389 797 389 q 957 390 911 389 q 1024 392 1003 390 q 1032 383 1032 392 q 1019 362 1032 375 q 979 344 1007 349 l 951 344 q 934 289 944 321 q 916 208 924 257 q 908 85 908 160 q 910 56 908 69 q 913 31 913 43 q 898 -12 913 4 q 868 -28 883 -28 m 451 -292 q 447 -289 447 -292 l 447 -287 q 481 -247 461 -272 q 514 -197 500 -222 q 522 -158 528 -172 q 515 -147 521 -151 q 500 -124 500 -136 q 514 -94 500 -110 q 550 -79 528 -79 q 567 -86 561 -79 q 576 -103 574 -96 q 579 -115 578 -110 l 579 -119 q 577 -128 579 -125 q 574 -137 575 -131 q 542 -221 567 -186 q 490 -274 517 -256 q 451 -292 464 -292 z "},"H":{"ha":957,"x_min":111,"x_max":868,"o":"m 140 -11 q 120 -4 129 -11 q 111 17 111 3 q 122 210 111 108 q 144 417 132 313 l 131 417 q 117 426 117 417 q 126 447 117 436 q 149 460 136 458 q 171 611 158 535 q 199 763 183 688 q 211 825 204 790 q 238 886 218 860 q 300 913 258 913 q 321 899 321 913 l 321 896 q 253 696 282 808 q 204 460 225 583 q 301 460 240 460 q 433 460 361 460 q 576 462 506 461 q 703 463 647 463 q 721 607 711 536 q 743 749 731 678 l 743 790 q 767 874 743 836 q 847 913 790 913 q 868 899 868 913 l 868 896 q 804 701 832 813 q 758 463 776 589 q 776 463 768 463 q 790 464 785 464 q 799 456 799 464 q 788 435 799 447 q 753 418 776 424 q 732 206 739 303 q 725 65 725 108 q 731 42 728 47 q 735 29 735 38 q 721 -1 735 10 q 692 -11 707 -11 q 658 19 658 -11 q 678 221 668 122 q 697 417 688 319 l 199 417 q 176 222 183 313 q 168 78 168 131 q 173 48 168 57 q 178 28 178 39 q 165 -1 178 8 q 140 -11 153 -11 z "},"I":{"ha":636,"x_min":64,"x_max":649,"o":"m 286 -11 q 260 0 268 -11 l 78 0 q 64 10 64 0 q 76 31 64 19 q 101 43 88 43 l 256 43 q 295 421 274 231 q 351 789 317 611 l 351 831 q 353 844 351 839 q 354 858 354 850 l 193 858 q 179 868 179 858 q 191 890 179 878 q 217 901 203 901 l 368 901 q 394 924 375 917 q 449 932 413 932 q 469 918 469 932 l 469 915 l 461 903 q 569 903 519 903 q 640 906 618 904 q 649 897 649 906 q 636 876 649 889 q 596 858 624 863 l 444 858 l 444 856 q 401 699 421 789 q 367 513 382 610 q 342 326 351 415 q 326 167 332 236 q 321 65 321 97 q 325 43 321 50 q 445 45 389 44 q 525 47 501 46 q 533 39 533 47 q 521 17 533 31 q 481 0 508 4 l 317 0 q 286 -11 303 -11 z "},"Í":{"ha":636,"x_min":64,"x_max":649,"o":"m 286 -11 q 260 0 268 -11 l 78 0 q 64 10 64 0 q 76 31 64 19 q 101 43 88 43 l 256 43 q 295 421 274 231 q 351 789 317 611 l 351 831 q 353 844 351 839 q 354 858 354 850 l 193 858 q 179 868 179 858 q 191 890 179 878 q 217 901 203 901 l 368 901 q 394 924 375 917 q 449 932 413 932 q 469 918 469 932 l 469 915 l 461 903 q 569 903 519 903 q 640 906 618 904 q 649 897 649 906 q 636 876 649 889 q 596 858 624 863 l 444 858 l 444 856 q 401 699 421 789 q 367 513 382 610 q 342 326 351 415 q 326 167 332 236 q 321 65 321 97 q 325 43 321 50 q 445 45 389 44 q 525 47 501 46 q 533 39 533 47 q 521 17 533 31 q 481 0 508 4 l 317 0 q 286 -11 303 -11 m 318 975 q 314 979 314 975 q 343 1012 314 988 q 415 1069 371 1037 q 504 1132 458 1102 q 517 1137 511 1137 q 538 1125 530 1137 q 544 1101 546 1112 l 544 1098 q 534 1082 544 1088 q 477 1052 516 1071 q 397 1012 438 1032 q 325 976 355 992 q 318 975 323 975 z "},"Î":{"ha":636,"x_min":64,"x_max":649,"o":"m 286 -11 q 260 0 268 -11 l 78 0 q 64 10 64 0 q 76 31 64 19 q 101 43 88 43 l 256 43 q 295 421 274 231 q 351 789 317 611 l 351 831 q 353 844 351 839 q 354 858 354 850 l 193 858 q 179 868 179 858 q 191 890 179 878 q 217 901 203 901 l 368 901 q 394 924 375 917 q 449 932 413 932 q 469 918 469 932 l 469 915 l 461 903 q 569 903 519 903 q 640 906 618 904 q 649 897 649 906 q 636 876 649 889 q 596 858 624 863 l 444 858 l 444 856 q 401 699 421 789 q 367 513 382 610 q 342 326 351 415 q 326 167 332 236 q 321 65 321 97 q 325 43 321 50 q 445 45 389 44 q 525 47 501 46 q 533 39 533 47 q 521 17 533 31 q 481 0 508 4 l 317 0 q 286 -11 303 -11 m 286 1010 q 285 1011 283 1010 q 344 1064 310 1036 q 443 1129 379 1092 l 451 1133 l 454 1133 q 463 1129 458 1133 q 531 1067 507 1094 q 575 1014 554 1040 q 571 1010 579 1010 q 568 1011 569 1010 q 510 1046 542 1031 q 443 1069 479 1061 q 367 1040 408 1060 q 292 1011 325 1021 q 286 1010 289 1010 z "},"Ï":{"ha":636,"x_min":64,"x_max":649,"o":"m 286 -11 q 260 0 268 -11 l 78 0 q 64 10 64 0 q 76 31 64 19 q 101 43 88 43 l 256 43 q 295 421 274 231 q 351 789 317 611 l 351 831 q 353 844 351 839 q 354 858 354 850 l 193 858 q 179 868 179 858 q 191 890 179 878 q 217 901 203 901 l 368 901 q 394 924 375 917 q 449 932 413 932 q 469 918 469 932 l 469 915 l 461 903 q 569 903 519 903 q 640 906 618 904 q 649 897 649 906 q 636 876 649 889 q 596 858 624 863 l 444 858 l 444 856 q 401 699 421 789 q 367 513 382 610 q 342 326 351 415 q 326 167 332 236 q 321 65 321 97 q 325 43 321 50 q 445 45 389 44 q 525 47 501 46 q 533 39 533 47 q 521 17 533 31 q 481 0 508 4 l 317 0 q 286 -11 303 -11 m 489 993 q 468 1005 472 993 q 464 1031 464 1017 q 488 1079 464 1056 q 535 1103 513 1103 q 543 1099 542 1103 q 535 1055 543 1081 q 526 1022 526 1029 q 513 1002 526 1008 q 489 993 500 996 m 339 993 q 320 1005 325 993 q 315 1031 315 1017 q 339 1079 315 1056 q 386 1103 363 1103 q 393 1099 392 1103 q 385 1055 393 1081 q 376 1022 376 1029 q 363 1002 376 1008 q 339 993 350 996 z "},"Ị":{"ha":636,"x_min":64,"x_max":649,"o":"m 286 -11 q 260 0 268 -11 l 78 0 q 64 10 64 0 q 76 31 64 19 q 101 43 88 43 l 256 43 q 295 421 274 231 q 351 789 317 611 l 351 831 q 353 844 351 839 q 354 858 354 850 l 193 858 q 179 868 179 858 q 191 890 179 878 q 217 901 203 901 l 368 901 q 394 924 375 917 q 449 932 413 932 q 469 918 469 932 l 469 915 l 461 903 q 569 903 519 903 q 640 906 618 904 q 649 897 649 906 q 636 876 649 889 q 596 858 624 863 l 444 858 l 444 856 q 401 699 421 789 q 367 513 382 610 q 342 326 351 415 q 326 167 332 236 q 321 65 321 97 q 325 43 321 50 q 445 45 389 44 q 525 47 501 46 q 533 39 533 47 q 521 17 533 31 q 481 0 508 4 l 317 0 q 286 -11 303 -11 m 249 -184 q 231 -172 240 -184 q 223 -152 223 -159 q 241 -125 223 -140 q 282 -100 260 -111 q 317 -89 305 -89 q 321 -90 319 -89 l 321 -89 q 321 -90 321 -90 q 322 -91 322 -91 q 314 -100 322 -92 q 303 -110 306 -107 q 290 -137 296 -119 q 274 -169 283 -155 q 249 -184 265 -184 z "},"Ì":{"ha":636,"x_min":64,"x_max":649,"o":"m 286 -11 q 260 0 268 -11 l 78 0 q 64 10 64 0 q 76 31 64 19 q 101 43 88 43 l 256 43 q 295 421 274 231 q 351 789 317 611 l 351 831 q 353 844 351 839 q 354 858 354 850 l 193 858 q 179 868 179 858 q 191 890 179 878 q 217 901 203 901 l 368 901 q 394 924 375 917 q 449 932 413 932 q 469 918 469 932 l 469 915 l 461 903 q 569 903 519 903 q 640 906 618 904 q 649 897 649 906 q 636 876 649 889 q 596 858 624 863 l 444 858 l 444 856 q 401 699 421 789 q 367 513 382 610 q 342 326 351 415 q 326 167 332 236 q 321 65 321 97 q 325 43 321 50 q 445 45 389 44 q 525 47 501 46 q 533 39 533 47 q 521 17 533 31 q 481 0 508 4 l 317 0 q 286 -11 303 -11 m 540 969 q 544 974 544 969 q 516 1007 544 982 q 444 1064 487 1031 q 354 1127 400 1097 q 341 1131 347 1131 q 321 1119 328 1131 q 314 1095 313 1107 l 314 1093 q 324 1077 314 1083 q 381 1046 343 1065 q 461 1007 420 1027 q 533 971 503 987 q 540 969 536 969 z "},"Ỉ":{"ha":636,"x_min":64,"x_max":649,"o":"m 286 -11 q 260 0 268 -11 l 78 0 q 64 10 64 0 q 76 31 64 19 q 101 43 88 43 l 256 43 q 295 421 274 231 q 351 789 317 611 l 351 831 q 353 844 351 839 q 354 858 354 850 l 193 858 q 179 868 179 858 q 191 890 179 878 q 217 901 203 901 l 368 901 q 394 924 375 917 q 449 932 413 932 q 469 918 469 932 l 469 915 l 461 903 q 569 903 519 903 q 640 906 618 904 q 649 897 649 906 q 636 876 649 889 q 596 858 624 863 l 444 858 l 444 856 q 401 699 421 789 q 367 513 382 610 q 342 326 351 415 q 326 167 332 236 q 321 65 321 97 q 325 43 321 50 q 445 45 389 44 q 525 47 501 46 q 533 39 533 47 q 521 17 533 31 q 481 0 508 4 l 317 0 q 286 -11 303 -11 m 414 997 q 445 1032 436 1017 q 454 1075 454 1047 q 431 1100 454 1100 q 381 1092 403 1100 q 360 1083 360 1083 q 354 1093 350 1083 q 381 1120 361 1110 q 422 1135 400 1131 q 457 1142 444 1140 q 465 1142 461 1142 q 471 1143 468 1143 q 503 1130 493 1143 q 514 1103 514 1117 q 506 1072 514 1090 q 492 1039 499 1054 q 459 1001 479 1014 q 426 988 439 988 q 414 997 414 988 z "},"Ī":{"ha":636,"x_min":64,"x_max":649,"o":"m 286 -11 q 260 0 268 -11 l 78 0 q 64 10 64 0 q 76 31 64 19 q 101 43 88 43 l 256 43 q 295 421 274 231 q 351 789 317 611 l 351 831 q 353 844 351 839 q 354 858 354 850 l 193 858 q 179 868 179 858 q 191 890 179 878 q 217 901 203 901 l 368 901 q 394 924 375 917 q 449 932 413 932 q 469 918 469 932 l 469 915 l 461 903 q 569 903 519 903 q 640 906 618 904 q 649 897 649 906 q 636 876 649 889 q 596 858 624 863 l 444 858 l 444 856 q 401 699 421 789 q 367 513 382 610 q 342 326 351 415 q 326 167 332 236 q 321 65 321 97 q 325 43 321 50 q 445 45 389 44 q 525 47 501 46 q 533 39 533 47 q 521 17 533 31 q 481 0 508 4 l 317 0 q 286 -11 303 -11 m 328 999 q 301 1001 308 999 q 293 1007 293 1004 q 311 1023 293 1017 q 354 1033 329 1029 q 400 1038 379 1038 q 465 1035 426 1038 q 535 1026 504 1032 q 565 1013 565 1021 q 549 1002 565 1006 q 529 999 533 999 l 328 999 z "},"Į":{"ha":636,"x_min":64,"x_max":649,"o":"m 286 -11 q 260 0 268 -11 l 78 0 q 64 10 64 0 q 76 31 64 19 q 101 43 88 43 l 256 43 q 295 421 274 231 q 351 789 317 611 l 351 831 q 353 844 351 839 q 354 858 354 850 l 193 858 q 179 868 179 858 q 191 890 179 878 q 217 901 203 901 l 368 901 q 394 924 375 917 q 449 932 413 932 q 469 918 469 932 l 469 915 l 461 903 q 569 903 519 903 q 640 906 618 904 q 649 897 649 906 q 636 876 649 889 q 596 858 624 863 l 444 858 l 444 856 q 401 699 421 789 q 367 513 382 610 q 342 326 351 415 q 326 167 332 236 q 321 65 321 97 q 325 43 321 50 q 445 45 389 44 q 525 47 501 46 q 533 39 533 47 q 521 17 533 31 q 481 0 508 4 l 317 0 q 286 -11 303 -11 m 297 -210 q 230 -197 254 -210 q 206 -151 206 -183 q 213 -112 206 -137 q 231 -59 219 -86 q 258 -12 243 -32 q 289 13 272 8 q 299 14 293 14 q 310 8 306 14 q 277 -50 294 -14 q 260 -114 260 -86 q 313 -171 260 -171 q 354 -162 332 -171 q 394 -147 376 -154 q 417 -139 413 -139 q 432 -151 432 -139 q 415 -178 432 -167 q 374 -196 397 -189 q 328 -206 350 -203 q 297 -210 307 -210 z "},"Ĩ":{"ha":636,"x_min":64,"x_max":649,"o":"m 286 -11 q 260 0 268 -11 l 78 0 q 64 10 64 0 q 76 31 64 19 q 101 43 88 43 l 256 43 q 295 421 274 231 q 351 789 317 611 l 351 831 q 353 844 351 839 q 354 858 354 850 l 193 858 q 179 868 179 858 q 191 890 179 878 q 217 901 203 901 l 368 901 q 394 924 375 917 q 449 932 413 932 q 469 918 469 932 l 469 915 l 461 903 q 569 903 519 903 q 640 906 618 904 q 649 897 649 906 q 636 876 649 889 q 596 858 624 863 l 444 858 l 444 856 q 401 699 421 789 q 367 513 382 610 q 342 326 351 415 q 326 167 332 236 q 321 65 321 97 q 325 43 321 50 q 445 45 389 44 q 525 47 501 46 q 533 39 533 47 q 521 17 533 31 q 481 0 508 4 l 317 0 q 286 -11 303 -11 m 489 975 q 443 985 466 975 q 398 1004 420 995 q 353 1013 376 1013 q 320 1004 333 1013 q 298 986 306 995 q 279 977 289 977 q 276 980 276 977 q 289 999 276 987 q 315 1023 301 1012 q 335 1037 330 1034 q 385 1051 357 1051 q 451 1036 419 1051 q 515 1021 482 1021 q 548 1029 534 1021 q 573 1051 562 1037 q 581 1045 581 1051 q 560 1009 581 1024 q 516 985 538 994 q 489 975 495 975 z "},"J":{"ha":717,"x_min":54,"x_max":696,"o":"m 281 -46 q 203 -18 243 -46 q 129 51 163 10 q 75 134 96 92 q 54 206 54 176 q 67 232 54 232 q 81 209 71 232 q 108 153 92 186 q 145 86 124 119 q 196 30 167 53 q 260 7 225 7 q 309 30 292 7 q 336 86 326 53 q 351 150 346 119 q 388 369 372 271 q 415 566 403 468 q 438 779 428 664 q 435 793 435 781 q 443 858 435 807 l 276 858 q 263 868 263 858 q 274 890 263 878 q 300 901 286 901 l 458 901 q 526 940 479 940 q 547 926 547 940 l 547 924 l 538 903 q 627 903 586 903 q 688 906 668 904 q 696 897 696 906 q 683 876 696 889 q 643 858 671 863 l 519 858 l 515 843 q 487 708 506 803 q 454 481 468 613 q 440 338 447 411 q 422 196 433 264 q 394 73 411 128 q 349 -14 376 18 q 281 -46 322 -46 z "},"K":{"ha":882,"x_min":101,"x_max":915,"o":"m 690 -36 q 596 -3 651 -36 q 476 83 540 29 q 349 203 413 138 q 228 333 285 268 q 217 344 222 338 q 204 356 211 350 q 188 180 193 258 q 183 65 183 101 q 190 42 186 47 q 193 29 193 38 q 179 -1 193 10 q 150 -11 165 -11 q 117 19 117 -11 q 135 216 126 119 q 154 407 144 313 q 117 451 133 431 q 101 481 101 471 q 111 488 101 488 q 151 478 121 478 l 163 478 q 181 615 171 547 q 201 749 190 682 l 201 790 q 225 874 201 836 q 306 913 249 913 q 326 899 326 913 l 326 896 q 265 710 292 815 q 221 485 238 606 q 258 493 240 490 q 289 501 275 496 q 493 608 401 546 q 653 731 585 669 q 767 841 722 793 q 829 904 811 889 q 826 911 826 907 q 851 940 826 926 q 896 954 876 954 q 915 939 915 954 q 881 878 915 918 q 788 787 846 838 q 658 683 729 736 q 515 581 588 629 q 378 499 442 533 q 272 451 315 464 q 233 421 233 440 q 250 392 233 408 q 365 271 303 336 q 492 147 428 206 q 614 51 556 89 q 717 8 672 13 q 758 30 743 8 q 778 85 772 51 q 783 153 783 118 q 781 188 783 172 q 779 215 779 203 q 792 238 779 238 q 815 210 811 238 q 819 160 819 182 q 799 46 819 89 q 748 -17 778 3 q 690 -36 718 -36 z "},"Ķ":{"ha":882,"x_min":101,"x_max":915,"o":"m 690 -36 q 596 -3 651 -36 q 476 83 540 29 q 349 203 413 138 q 228 333 285 268 q 217 344 222 338 q 204 356 211 350 q 188 180 193 258 q 183 65 183 101 q 190 42 186 47 q 193 29 193 38 q 179 -1 193 10 q 150 -11 165 -11 q 117 19 117 -11 q 135 216 126 119 q 154 407 144 313 q 117 451 133 431 q 101 481 101 471 q 111 488 101 488 q 151 478 121 478 l 163 478 q 181 615 171 547 q 201 749 190 682 l 201 790 q 225 874 201 836 q 306 913 249 913 q 326 899 326 913 l 326 896 q 265 710 292 815 q 221 485 238 606 q 258 493 240 490 q 289 501 275 496 q 493 608 401 546 q 653 731 585 669 q 767 841 722 793 q 829 904 811 889 q 826 911 826 907 q 851 940 826 926 q 896 954 876 954 q 915 939 915 954 q 881 878 915 918 q 788 787 846 838 q 658 683 729 736 q 515 581 588 629 q 378 499 442 533 q 272 451 315 464 q 233 421 233 440 q 250 392 233 408 q 365 271 303 336 q 492 147 428 206 q 614 51 556 89 q 717 8 672 13 q 758 30 743 8 q 778 85 772 51 q 783 153 783 118 q 781 188 783 172 q 779 215 779 203 q 792 238 779 238 q 815 210 811 238 q 819 160 819 182 q 799 46 819 89 q 748 -17 778 3 q 690 -36 718 -36 m 296 -292 q 292 -289 292 -292 l 292 -287 q 325 -247 306 -272 q 358 -197 344 -222 q 367 -158 372 -172 q 360 -147 365 -151 q 344 -124 344 -136 q 358 -94 344 -110 q 394 -79 372 -79 q 411 -86 406 -79 q 420 -103 418 -96 q 424 -115 422 -110 l 424 -119 q 422 -128 424 -125 q 418 -137 419 -131 q 386 -221 411 -186 q 335 -274 361 -256 q 296 -292 308 -292 z "},"L":{"ha":804,"x_min":78,"x_max":729,"o":"m 154 -11 q 128 0 136 -11 l 88 0 q 78 7 78 0 q 94 33 78 18 q 125 54 110 49 q 160 410 142 236 q 207 749 179 583 l 207 790 q 231 874 207 836 q 311 913 254 913 q 332 899 332 913 q 325 874 332 890 q 310 841 318 857 q 300 815 303 825 q 258 663 276 749 q 227 486 240 576 q 206 312 214 396 q 193 163 197 228 q 189 65 189 97 q 190 51 189 56 q 193 43 192 46 q 335 42 244 43 q 563 42 426 42 q 640 47 593 42 q 722 64 686 53 l 724 64 q 729 50 729 64 q 697 6 729 15 q 622 -4 664 -4 q 572 -3 597 -4 q 526 -1 547 -1 q 357 -1 443 -1 q 185 0 271 0 q 154 -11 171 -11 z "},"Ĺ":{"ha":804,"x_min":78,"x_max":729,"o":"m 154 -11 q 128 0 136 -11 l 88 0 q 78 7 78 0 q 94 33 78 18 q 125 54 110 49 q 160 410 142 236 q 207 749 179 583 l 207 790 q 231 874 207 836 q 311 913 254 913 q 332 899 332 913 q 325 874 332 890 q 310 841 318 857 q 300 815 303 825 q 258 663 276 749 q 227 486 240 576 q 206 312 214 396 q 193 163 197 228 q 189 65 189 97 q 190 51 189 56 q 193 43 192 46 q 335 42 244 43 q 563 42 426 42 q 640 47 593 42 q 722 64 686 53 l 724 64 q 729 50 729 64 q 697 6 729 15 q 622 -4 664 -4 q 572 -3 597 -4 q 526 -1 547 -1 q 357 -1 443 -1 q 185 0 271 0 q 154 -11 171 -11 m 192 975 q 188 979 188 975 q 216 1012 188 988 q 288 1069 245 1037 q 378 1132 332 1102 q 391 1137 385 1137 q 411 1125 404 1137 q 418 1101 419 1112 l 418 1098 q 408 1082 418 1088 q 351 1052 389 1071 q 271 1012 312 1032 q 199 976 229 992 q 192 975 196 975 z "},"Ľ":{"ha":804,"x_min":78,"x_max":729,"o":"m 154 -11 q 128 0 136 -11 l 88 0 q 78 7 78 0 q 94 33 78 18 q 125 54 110 49 q 160 410 142 236 q 207 749 179 583 l 207 790 q 231 874 207 836 q 311 913 254 913 q 332 899 332 913 q 325 874 332 890 q 310 841 318 857 q 300 815 303 825 q 258 663 276 749 q 227 486 240 576 q 206 312 214 396 q 193 163 197 228 q 189 65 189 97 q 190 51 189 56 q 193 43 192 46 q 335 42 244 43 q 563 42 426 42 q 640 47 593 42 q 722 64 686 53 l 724 64 q 729 50 729 64 q 697 6 729 15 q 622 -4 664 -4 q 572 -3 597 -4 q 526 -1 547 -1 q 357 -1 443 -1 q 185 0 271 0 q 154 -11 171 -11 m 472 692 q 471 696 471 692 q 473 722 471 711 q 479 743 475 732 q 503 803 493 776 q 524 863 514 831 q 518 859 522 861 q 511 857 514 857 q 507 867 506 857 q 526 892 510 874 q 568 911 542 910 l 571 911 q 579 899 586 911 q 578 894 581 897 q 575 889 576 892 q 573 876 575 883 q 568 861 571 869 q 549 818 563 846 q 519 762 535 790 q 490 713 503 733 q 472 692 476 692 z "},"Ļ":{"ha":804,"x_min":78,"x_max":729,"o":"m 154 -11 q 128 0 136 -11 l 88 0 q 78 7 78 0 q 94 33 78 18 q 125 54 110 49 q 160 410 142 236 q 207 749 179 583 l 207 790 q 231 874 207 836 q 311 913 254 913 q 332 899 332 913 q 325 874 332 890 q 310 841 318 857 q 300 815 303 825 q 258 663 276 749 q 227 486 240 576 q 206 312 214 396 q 193 163 197 228 q 189 65 189 97 q 190 51 189 56 q 193 43 192 46 q 335 42 244 43 q 563 42 426 42 q 640 47 593 42 q 722 64 686 53 l 724 64 q 729 50 729 64 q 697 6 729 15 q 622 -4 664 -4 q 572 -3 597 -4 q 526 -1 547 -1 q 357 -1 443 -1 q 185 0 271 0 q 154 -11 171 -11 m 313 -292 q 308 -289 308 -292 l 308 -287 q 342 -247 322 -272 q 375 -197 361 -222 q 383 -158 389 -172 q 376 -147 382 -151 q 361 -124 361 -136 q 375 -94 361 -110 q 411 -79 389 -79 q 428 -86 422 -79 q 437 -103 435 -96 q 440 -115 439 -110 l 440 -119 q 438 -128 440 -125 q 435 -137 436 -131 q 403 -221 428 -186 q 351 -274 378 -256 q 313 -292 325 -292 z "},"Ł":{"ha":804,"x_min":17,"x_max":729,"o":"m 154 -11 q 128 0 136 -11 l 88 0 q 78 7 78 0 q 94 33 78 18 q 125 54 110 49 q 133 151 129 103 q 143 246 138 199 l 67 221 q 44 217 54 217 q 25 221 33 217 q 17 233 17 225 q 37 260 17 249 q 87 279 57 271 q 147 294 117 288 q 174 525 160 411 q 207 749 189 639 l 207 790 q 231 874 207 836 q 311 913 254 913 q 332 899 332 913 q 325 874 332 890 q 310 841 318 857 q 300 815 303 825 q 258 663 276 749 q 226 485 239 576 q 204 311 213 394 q 274 332 244 324 q 344 354 303 340 q 354 356 350 356 q 360 357 358 357 q 365 354 365 357 q 342 333 365 347 q 281 301 318 318 q 200 268 243 285 q 192 147 194 200 q 189 65 189 93 q 190 51 189 56 q 193 43 192 46 q 335 42 244 43 q 563 42 426 42 q 640 47 593 42 q 722 64 686 53 l 724 64 q 729 50 729 64 q 697 6 729 15 q 622 -4 664 -4 q 572 -3 597 -4 q 526 -1 547 -1 q 357 -1 443 -1 q 185 0 271 0 q 154 -11 171 -11 z "},"M":{"ha":1049,"x_min":76,"x_max":988,"o":"m 96 -11 q 76 13 76 -11 l 76 19 q 135 381 100 189 q 222 763 169 574 q 226 775 222 767 q 217 807 217 783 q 238 889 217 869 q 278 908 260 908 q 292 907 288 908 l 301 910 q 319 913 310 913 q 333 910 326 913 q 339 900 339 907 q 331 875 339 892 q 313 842 322 858 q 300 815 304 825 l 283 774 q 301 601 288 690 q 339 434 314 511 q 402 308 364 357 q 494 260 440 260 q 594 303 533 260 q 728 445 656 347 q 869 707 800 543 l 874 749 l 874 756 q 872 778 874 767 q 869 799 869 789 q 890 878 869 843 q 965 913 910 913 q 981 909 974 913 q 988 897 988 906 q 976 857 988 883 q 963 815 965 831 q 935 679 946 756 q 917 522 924 603 q 908 362 911 440 q 906 218 906 283 q 906 127 906 167 q 910 65 907 88 q 917 41 913 44 q 921 28 921 38 q 909 -1 921 8 q 882 -11 897 -11 q 858 -4 868 -11 q 847 15 847 3 q 851 324 849 174 q 863 617 854 474 q 715 367 788 460 q 581 233 642 274 q 476 193 519 193 q 382 235 422 193 q 313 347 342 278 q 267 494 285 415 q 240 649 249 574 q 195 487 215 569 q 160 326 175 404 q 135 184 144 249 q 122 78 125 119 q 125 51 122 60 q 128 32 128 42 q 116 -1 128 10 q 96 -11 104 -11 z "},"N":{"ha":944,"x_min":119,"x_max":904,"o":"m 738 -12 q 713 18 713 -12 l 722 132 q 679 225 704 189 q 613 303 654 258 q 523 397 571 349 q 431 491 475 446 q 358 569 388 536 q 288 676 303 633 q 271 760 272 719 q 231 597 249 688 q 201 414 214 506 q 183 244 189 322 q 176 121 176 167 q 177 89 176 107 q 178 54 178 71 q 158 0 178 0 q 132 17 144 0 q 119 53 119 33 q 131 178 122 104 q 151 334 139 251 q 176 499 163 417 q 201 650 189 581 q 221 765 213 719 q 219 778 219 772 q 219 790 219 785 q 242 883 219 854 q 303 911 265 911 q 326 908 317 911 q 335 899 335 906 q 326 865 335 885 q 308 826 317 844 q 299 800 299 808 q 328 711 299 758 q 404 612 357 664 q 508 505 451 560 q 622 392 565 450 q 722 274 678 333 l 735 257 l 757 461 q 775 606 765 535 q 797 747 785 676 l 797 789 q 803 847 797 819 q 826 893 808 875 q 883 911 844 911 q 904 897 904 911 l 904 894 q 840 690 867 808 q 794 442 813 572 q 768 193 776 313 q 780 148 776 171 q 783 106 783 125 q 779 62 783 82 q 769 28 775 42 l 769 19 q 757 -4 767 4 q 738 -12 747 -12 z "},"Ń":{"ha":944,"x_min":119,"x_max":904,"o":"m 738 -12 q 713 18 713 -12 l 722 132 q 679 225 704 189 q 613 303 654 258 q 523 397 571 349 q 431 491 475 446 q 358 569 388 536 q 288 676 303 633 q 271 760 272 719 q 231 597 249 688 q 201 414 214 506 q 183 244 189 322 q 176 121 176 167 q 177 89 176 107 q 178 54 178 71 q 158 0 178 0 q 132 17 144 0 q 119 53 119 33 q 131 178 122 104 q 151 334 139 251 q 176 499 163 417 q 201 650 189 581 q 221 765 213 719 q 219 778 219 772 q 219 790 219 785 q 242 883 219 854 q 303 911 265 911 q 326 908 317 911 q 335 899 335 906 q 326 865 335 885 q 308 826 317 844 q 299 800 299 808 q 328 711 299 758 q 404 612 357 664 q 508 505 451 560 q 622 392 565 450 q 722 274 678 333 l 735 257 l 757 461 q 775 606 765 535 q 797 747 785 676 l 797 789 q 803 847 797 819 q 826 893 808 875 q 883 911 844 911 q 904 897 904 911 l 904 894 q 840 690 867 808 q 794 442 813 572 q 768 193 776 313 q 780 148 776 171 q 783 106 783 125 q 779 62 783 82 q 769 28 775 42 l 769 19 q 757 -4 767 4 q 738 -12 747 -12 m 461 975 q 457 979 457 975 q 486 1012 457 988 q 558 1069 514 1037 q 647 1132 601 1102 q 660 1137 654 1137 q 681 1125 673 1137 q 687 1101 689 1112 l 687 1098 q 677 1082 687 1088 q 620 1052 659 1071 q 540 1012 581 1032 q 468 976 498 992 q 461 975 466 975 z "},"Ň":{"ha":944,"x_min":119,"x_max":904,"o":"m 738 -12 q 713 18 713 -12 l 722 132 q 679 225 704 189 q 613 303 654 258 q 523 397 571 349 q 431 491 475 446 q 358 569 388 536 q 288 676 303 633 q 271 760 272 719 q 231 597 249 688 q 201 414 214 506 q 183 244 189 322 q 176 121 176 167 q 177 89 176 107 q 178 54 178 71 q 158 0 178 0 q 132 17 144 0 q 119 53 119 33 q 131 178 122 104 q 151 334 139 251 q 176 499 163 417 q 201 650 189 581 q 221 765 213 719 q 219 778 219 772 q 219 790 219 785 q 242 883 219 854 q 303 911 265 911 q 326 908 317 911 q 335 899 335 906 q 326 865 335 885 q 308 826 317 844 q 299 800 299 808 q 328 711 299 758 q 404 612 357 664 q 508 505 451 560 q 622 392 565 450 q 722 274 678 333 l 735 257 l 757 461 q 775 606 765 535 q 797 747 785 676 l 797 789 q 803 847 797 819 q 826 893 808 875 q 883 911 844 911 q 904 897 904 911 l 904 894 q 840 690 867 808 q 794 442 813 572 q 768 193 776 313 q 780 148 776 171 q 783 106 783 125 q 779 62 783 82 q 769 28 775 42 l 769 19 q 757 -4 767 4 q 738 -12 747 -12 m 747 1108 q 749 1106 750 1108 q 687 1052 723 1080 q 586 985 651 1023 l 577 980 l 574 980 q 566 985 570 980 q 495 1048 520 1020 q 450 1103 471 1076 q 454 1108 445 1108 q 457 1106 455 1108 q 516 1070 484 1086 q 586 1046 548 1055 q 664 1076 621 1056 q 742 1106 707 1096 q 747 1108 744 1108 z "},"Ņ":{"ha":944,"x_min":119,"x_max":904,"o":"m 738 -12 q 713 18 713 -12 l 722 132 q 679 225 704 189 q 613 303 654 258 q 523 397 571 349 q 431 491 475 446 q 358 569 388 536 q 288 676 303 633 q 271 760 272 719 q 231 597 249 688 q 201 414 214 506 q 183 244 189 322 q 176 121 176 167 q 177 89 176 107 q 178 54 178 71 q 158 0 178 0 q 132 17 144 0 q 119 53 119 33 q 131 178 122 104 q 151 334 139 251 q 176 499 163 417 q 201 650 189 581 q 221 765 213 719 q 219 778 219 772 q 219 790 219 785 q 242 883 219 854 q 303 911 265 911 q 326 908 317 911 q 335 899 335 906 q 326 865 335 885 q 308 826 317 844 q 299 800 299 808 q 328 711 299 758 q 404 612 357 664 q 508 505 451 560 q 622 392 565 450 q 722 274 678 333 l 735 257 l 757 461 q 775 606 765 535 q 797 747 785 676 l 797 789 q 803 847 797 819 q 826 893 808 875 q 883 911 844 911 q 904 897 904 911 l 904 894 q 840 690 867 808 q 794 442 813 572 q 768 193 776 313 q 780 148 776 171 q 783 106 783 125 q 779 62 783 82 q 769 28 775 42 l 769 19 q 757 -4 767 4 q 738 -12 747 -12 m 382 -292 q 378 -289 378 -292 l 378 -287 q 411 -247 392 -272 q 444 -197 431 -222 q 453 -158 458 -172 q 446 -147 451 -151 q 431 -124 431 -136 q 444 -94 431 -110 q 481 -79 458 -79 q 497 -86 492 -79 q 506 -103 504 -96 q 510 -115 508 -110 l 510 -119 q 508 -128 510 -125 q 504 -137 506 -131 q 472 -221 497 -186 q 421 -274 447 -256 q 382 -292 394 -292 z "},"Ŋ":{"ha":944,"x_min":119,"x_max":904,"o":"m 590 -381 q 513 -353 553 -381 q 439 -284 472 -325 q 385 -201 406 -243 q 364 -129 364 -158 q 376 -103 364 -103 q 391 -126 381 -103 q 417 -182 401 -149 q 455 -249 433 -215 q 506 -305 476 -282 q 569 -328 535 -328 q 619 -305 601 -328 q 646 -249 636 -282 q 661 -185 656 -215 q 694 20 682 -65 q 714 157 706 106 q 679 225 696 200 q 613 303 654 258 q 523 397 571 349 q 431 491 475 446 q 358 569 388 536 q 288 676 303 633 q 271 760 272 719 q 231 597 249 688 q 201 414 214 506 q 183 244 189 322 q 176 121 176 167 q 177 89 176 107 q 178 54 178 71 q 158 0 178 0 q 132 17 144 0 q 119 53 119 33 q 131 178 122 104 q 151 334 139 251 q 176 499 163 417 q 201 650 189 581 q 221 765 213 719 q 219 778 219 772 q 219 790 219 785 q 242 883 219 854 q 303 911 265 911 q 326 908 317 911 q 335 899 335 906 q 326 865 335 885 q 308 826 317 844 q 299 800 299 808 q 327 710 299 758 q 402 610 356 663 q 505 503 449 558 q 618 390 561 447 q 722 274 675 332 q 742 340 735 288 q 757 461 750 393 q 774 604 764 532 q 797 747 785 676 l 797 789 q 803 847 797 819 q 826 893 808 875 q 883 911 844 911 q 904 897 904 911 l 904 894 q 842 703 869 814 q 798 469 815 592 q 771 232 781 347 q 771 186 774 214 q 783 106 783 144 q 779 62 783 82 q 769 28 775 42 l 769 19 q 758 -3 767 6 q 739 -12 749 -11 q 719 -149 729 -83 q 695 -267 710 -214 q 656 -350 681 -319 q 590 -381 631 -381 z "},"Ñ":{"ha":944,"x_min":119,"x_max":904,"o":"m 738 -12 q 713 18 713 -12 l 722 132 q 679 225 704 189 q 613 303 654 258 q 523 397 571 349 q 431 491 475 446 q 358 569 388 536 q 288 676 303 633 q 271 760 272 719 q 231 597 249 688 q 201 414 214 506 q 183 244 189 322 q 176 121 176 167 q 177 89 176 107 q 178 54 178 71 q 158 0 178 0 q 132 17 144 0 q 119 53 119 33 q 131 178 122 104 q 151 334 139 251 q 176 499 163 417 q 201 650 189 581 q 221 765 213 719 q 219 778 219 772 q 219 790 219 785 q 242 883 219 854 q 303 911 265 911 q 326 908 317 911 q 335 899 335 906 q 326 865 335 885 q 308 826 317 844 q 299 800 299 808 q 328 711 299 758 q 404 612 357 664 q 508 505 451 560 q 622 392 565 450 q 722 274 678 333 l 735 257 l 757 461 q 775 606 765 535 q 797 747 785 676 l 797 789 q 803 847 797 819 q 826 893 808 875 q 883 911 844 911 q 904 897 904 911 l 904 894 q 840 690 867 808 q 794 442 813 572 q 768 193 776 313 q 780 148 776 171 q 783 106 783 125 q 779 62 783 82 q 769 28 775 42 l 769 19 q 757 -4 767 4 q 738 -12 747 -12 m 632 975 q 586 985 609 975 q 541 1004 563 995 q 496 1013 520 1013 q 463 1004 476 1013 q 441 986 450 995 q 422 977 432 977 q 419 980 419 977 q 432 999 419 987 q 458 1023 444 1012 q 478 1037 473 1034 q 528 1051 500 1051 q 594 1036 562 1051 q 658 1021 625 1021 q 691 1029 677 1021 q 716 1051 705 1037 q 724 1045 724 1051 q 703 1009 724 1024 q 660 985 681 994 q 632 975 638 975 z "},"O":{"ha":1106,"x_min":86,"x_max":1040,"o":"m 483 -25 q 260 25 349 -25 q 129 159 172 75 q 86 344 86 243 q 131 564 86 453 q 271 763 176 675 q 210 733 239 749 q 175 717 181 717 q 163 729 163 717 q 181 750 163 738 q 227 776 200 763 q 281 800 254 789 q 324 817 308 811 q 424 897 368 860 q 543 956 479 933 q 672 979 607 979 q 737 969 704 979 q 769 926 769 958 q 758 886 769 907 q 738 853 747 865 q 957 753 874 833 q 1040 515 1040 672 q 992 288 1040 389 q 865 118 944 188 q 685 12 785 49 q 483 -25 586 -25 m 396 838 q 490 856 436 850 q 600 863 544 863 q 658 861 629 863 q 714 857 688 860 q 726 904 726 886 q 674 938 726 938 q 577 924 629 938 q 478 888 525 910 q 396 838 431 865 m 493 8 q 660 42 575 8 q 816 141 744 76 q 932 299 888 206 q 976 511 976 392 q 944 660 976 593 q 856 772 913 728 q 724 825 799 815 q 702 806 711 811 q 689 800 693 800 q 682 806 682 800 q 694 828 682 818 q 667 829 681 829 q 638 829 653 829 q 484 817 560 829 q 351 790 408 806 q 237 667 281 738 q 173 518 193 596 q 153 364 153 440 q 189 188 153 269 q 300 58 225 107 q 493 8 375 8 z "},"Ó":{"ha":1106,"x_min":86,"x_max":1040,"o":"m 483 -25 q 260 25 349 -25 q 129 159 172 75 q 86 344 86 243 q 131 564 86 453 q 271 763 176 675 q 210 733 239 749 q 175 717 181 717 q 163 729 163 717 q 181 750 163 738 q 227 776 200 763 q 281 800 254 789 q 324 817 308 811 q 424 897 368 860 q 543 956 479 933 q 672 979 607 979 q 737 969 704 979 q 769 926 769 958 q 758 886 769 907 q 738 853 747 865 q 957 753 874 833 q 1040 515 1040 672 q 992 288 1040 389 q 865 118 944 188 q 685 12 785 49 q 483 -25 586 -25 m 396 838 q 490 856 436 850 q 600 863 544 863 q 658 861 629 863 q 714 857 688 860 q 726 904 726 886 q 674 938 726 938 q 577 924 629 938 q 478 888 525 910 q 396 838 431 865 m 493 8 q 660 42 575 8 q 816 141 744 76 q 932 299 888 206 q 976 511 976 392 q 944 660 976 593 q 856 772 913 728 q 724 825 799 815 q 702 806 711 811 q 689 800 693 800 q 682 806 682 800 q 694 828 682 818 q 667 829 681 829 q 638 829 653 829 q 484 817 560 829 q 351 790 408 806 q 237 667 281 738 q 173 518 193 596 q 153 364 153 440 q 189 188 153 269 q 300 58 225 107 q 493 8 375 8 m 510 1024 q 506 1028 506 1024 q 534 1061 506 1037 q 606 1118 563 1085 q 696 1181 650 1151 q 709 1185 703 1185 q 729 1173 722 1185 q 736 1150 737 1161 l 736 1147 q 726 1131 736 1137 q 669 1100 707 1120 q 589 1061 630 1081 q 517 1025 547 1041 q 510 1024 514 1024 z "},"Ô":{"ha":1106,"x_min":86,"x_max":1040,"o":"m 483 -25 q 260 25 349 -25 q 129 159 172 75 q 86 344 86 243 q 131 564 86 453 q 271 763 176 675 q 210 733 239 749 q 175 717 181 717 q 163 729 163 717 q 181 750 163 738 q 227 776 200 763 q 281 800 254 789 q 324 817 308 811 q 424 897 368 860 q 543 956 479 933 q 672 979 607 979 q 737 969 704 979 q 769 926 769 958 q 758 886 769 907 q 738 853 747 865 q 957 753 874 833 q 1040 515 1040 672 q 992 288 1040 389 q 865 118 944 188 q 685 12 785 49 q 483 -25 586 -25 m 396 838 q 490 856 436 850 q 600 863 544 863 q 658 861 629 863 q 714 857 688 860 q 726 904 726 886 q 674 938 726 938 q 577 924 629 938 q 478 888 525 910 q 396 838 431 865 m 493 8 q 660 42 575 8 q 816 141 744 76 q 932 299 888 206 q 976 511 976 392 q 944 660 976 593 q 856 772 913 728 q 724 825 799 815 q 702 806 711 811 q 689 800 693 800 q 682 806 682 800 q 694 828 682 818 q 667 829 681 829 q 638 829 653 829 q 484 817 560 829 q 351 790 408 806 q 237 667 281 738 q 173 518 193 596 q 153 364 153 440 q 189 188 153 269 q 300 58 225 107 q 493 8 375 8 m 478 1058 q 476 1060 475 1058 q 536 1113 501 1085 q 635 1178 571 1140 l 643 1182 l 646 1182 q 654 1178 650 1182 q 722 1116 699 1143 q 767 1063 746 1089 q 763 1058 771 1058 q 760 1060 761 1058 q 702 1094 733 1079 q 635 1118 671 1110 q 558 1089 600 1108 q 483 1060 517 1069 q 478 1058 481 1058 z "},"Ố":{"ha":1106,"x_min":86,"x_max":1040,"o":"m 483 -25 q 260 25 349 -25 q 129 159 172 75 q 86 344 86 243 q 131 564 86 453 q 271 763 176 675 q 210 733 239 749 q 175 717 181 717 q 163 729 163 717 q 181 750 163 738 q 227 776 200 763 q 281 800 254 789 q 324 817 308 811 q 424 897 368 860 q 543 956 479 933 q 672 979 607 979 q 737 969 704 979 q 769 926 769 958 q 758 886 769 907 q 738 853 747 865 q 957 753 874 833 q 1040 515 1040 672 q 992 288 1040 389 q 865 118 944 188 q 685 12 785 49 q 483 -25 586 -25 m 396 838 q 490 856 436 850 q 600 863 544 863 q 658 861 629 863 q 714 857 688 860 q 726 904 726 886 q 674 938 726 938 q 577 924 629 938 q 478 888 525 910 q 396 838 431 865 m 493 8 q 660 42 575 8 q 816 141 744 76 q 932 299 888 206 q 976 511 976 392 q 944 660 976 593 q 856 772 913 728 q 724 825 799 815 q 702 806 711 811 q 689 800 693 800 q 682 806 682 800 q 694 828 682 818 q 667 829 681 829 q 638 829 653 829 q 484 817 560 829 q 351 790 408 806 q 237 667 281 738 q 173 518 193 596 q 153 364 153 440 q 189 188 153 269 q 300 58 225 107 q 493 8 375 8 m 511 1157 q 508 1163 507 1158 q 542 1185 510 1169 q 624 1221 575 1201 q 725 1257 674 1240 q 738 1258 732 1260 q 754 1242 750 1256 q 754 1218 758 1229 q 754 1215 754 1217 q 740 1203 751 1206 q 678 1188 719 1197 q 594 1171 638 1179 q 518 1157 550 1163 q 511 1157 515 1156 m 482 1028 q 481 1029 481 1028 q 527 1065 481 1039 q 636 1126 574 1090 q 641 1129 639 1128 q 644 1131 643 1131 l 647 1131 q 656 1126 651 1131 q 718 1072 700 1093 q 763 1032 736 1051 q 758 1028 767 1028 q 757 1028 757 1028 q 756 1029 757 1029 q 699 1052 725 1043 q 636 1069 672 1061 q 560 1049 601 1060 q 488 1029 519 1039 q 482 1028 485 1028 z "},"Ộ":{"ha":1106,"x_min":86,"x_max":1040,"o":"m 483 -25 q 260 25 349 -25 q 129 159 172 75 q 86 344 86 243 q 131 564 86 453 q 271 763 176 675 q 210 733 239 749 q 175 717 181 717 q 163 729 163 717 q 181 750 163 738 q 227 776 200 763 q 281 800 254 789 q 324 817 308 811 q 424 897 368 860 q 543 956 479 933 q 672 979 607 979 q 737 969 704 979 q 769 926 769 958 q 758 886 769 907 q 738 853 747 865 q 957 753 874 833 q 1040 515 1040 672 q 992 288 1040 389 q 865 118 944 188 q 685 12 785 49 q 483 -25 586 -25 m 396 838 q 490 856 436 850 q 600 863 544 863 q 658 861 629 863 q 714 857 688 860 q 726 904 726 886 q 674 938 726 938 q 577 924 629 938 q 478 888 525 910 q 396 838 431 865 m 493 8 q 660 42 575 8 q 816 141 744 76 q 932 299 888 206 q 976 511 976 392 q 944 660 976 593 q 856 772 913 728 q 724 825 799 815 q 702 806 711 811 q 689 800 693 800 q 682 806 682 800 q 694 828 682 818 q 667 829 681 829 q 638 829 653 829 q 484 817 560 829 q 351 790 408 806 q 237 667 281 738 q 173 518 193 596 q 153 364 153 440 q 189 188 153 269 q 300 58 225 107 q 493 8 375 8 m 446 -198 q 428 -185 437 -198 q 420 -166 420 -173 q 438 -139 420 -153 q 479 -114 457 -125 q 514 -103 502 -103 q 518 -104 517 -103 l 518 -103 q 519 -104 518 -104 q 519 -105 519 -105 q 511 -114 519 -106 q 501 -124 503 -121 q 487 -151 493 -132 q 471 -183 481 -169 q 446 -198 462 -198 m 478 1058 q 476 1060 475 1058 q 536 1113 501 1085 q 635 1178 571 1140 l 643 1182 l 646 1182 q 654 1178 650 1182 q 722 1116 699 1143 q 767 1063 746 1089 q 763 1058 771 1058 q 760 1060 761 1058 q 702 1094 733 1079 q 635 1118 671 1110 q 558 1089 600 1108 q 483 1060 517 1069 q 478 1058 481 1058 z "},"Ồ":{"ha":1106,"x_min":86,"x_max":1040,"o":"m 483 -25 q 260 25 349 -25 q 129 159 172 75 q 86 344 86 243 q 131 564 86 453 q 271 763 176 675 q 210 733 239 749 q 175 717 181 717 q 163 729 163 717 q 181 750 163 738 q 227 776 200 763 q 281 800 254 789 q 324 817 308 811 q 424 897 368 860 q 543 956 479 933 q 672 979 607 979 q 737 969 704 979 q 769 926 769 958 q 758 886 769 907 q 738 853 747 865 q 957 753 874 833 q 1040 515 1040 672 q 992 288 1040 389 q 865 118 944 188 q 685 12 785 49 q 483 -25 586 -25 m 396 838 q 490 856 436 850 q 600 863 544 863 q 658 861 629 863 q 714 857 688 860 q 726 904 726 886 q 674 938 726 938 q 577 924 629 938 q 478 888 525 910 q 396 838 431 865 m 493 8 q 660 42 575 8 q 816 141 744 76 q 932 299 888 206 q 976 511 976 392 q 944 660 976 593 q 856 772 913 728 q 724 825 799 815 q 702 806 711 811 q 689 800 693 800 q 682 806 682 800 q 694 828 682 818 q 667 829 681 829 q 638 829 653 829 q 484 817 560 829 q 351 790 408 806 q 237 667 281 738 q 173 518 193 596 q 153 364 153 440 q 189 188 153 269 q 300 58 225 107 q 493 8 375 8 m 761 1163 q 754 1163 757 1161 q 678 1176 722 1168 q 594 1194 635 1185 q 532 1208 553 1203 q 518 1221 521 1211 q 518 1222 518 1222 q 518 1224 518 1222 q 518 1248 514 1235 q 535 1264 522 1261 q 547 1263 540 1265 q 648 1226 599 1246 q 730 1191 697 1207 q 764 1168 763 1175 q 761 1163 765 1164 m 482 1028 q 481 1029 481 1028 q 527 1065 481 1039 q 636 1126 574 1090 q 641 1129 639 1128 q 644 1131 643 1131 l 647 1131 q 656 1126 651 1131 q 718 1072 700 1093 q 763 1032 736 1051 q 758 1028 767 1028 q 757 1028 757 1028 q 756 1029 757 1029 q 699 1052 725 1043 q 636 1069 672 1061 q 560 1049 601 1060 q 488 1029 519 1039 q 482 1028 485 1028 z "},"Ổ":{"ha":1106,"x_min":86,"x_max":1040,"o":"m 483 -25 q 260 25 349 -25 q 129 159 172 75 q 86 344 86 243 q 131 564 86 453 q 271 763 176 675 q 210 733 239 749 q 175 717 181 717 q 163 729 163 717 q 181 750 163 738 q 227 776 200 763 q 281 800 254 789 q 324 817 308 811 q 424 897 368 860 q 543 956 479 933 q 672 979 607 979 q 737 969 704 979 q 769 926 769 958 q 758 886 769 907 q 738 853 747 865 q 957 753 874 833 q 1040 515 1040 672 q 992 288 1040 389 q 865 118 944 188 q 685 12 785 49 q 483 -25 586 -25 m 396 838 q 490 856 436 850 q 600 863 544 863 q 658 861 629 863 q 714 857 688 860 q 726 904 726 886 q 674 938 726 938 q 577 924 629 938 q 478 888 525 910 q 396 838 431 865 m 493 8 q 660 42 575 8 q 816 141 744 76 q 932 299 888 206 q 976 511 976 392 q 944 660 976 593 q 856 772 913 728 q 724 825 799 815 q 702 806 711 811 q 689 800 693 800 q 682 806 682 800 q 694 828 682 818 q 667 829 681 829 q 638 829 653 829 q 484 817 560 829 q 351 790 408 806 q 237 667 281 738 q 173 518 193 596 q 153 364 153 440 q 189 188 153 269 q 300 58 225 107 q 493 8 375 8 m 746 1104 q 767 1124 761 1117 q 779 1142 772 1131 q 786 1165 786 1153 q 763 1190 786 1190 q 713 1182 735 1190 q 692 1174 692 1174 q 686 1183 682 1174 q 713 1210 693 1200 q 754 1226 732 1221 q 789 1232 776 1231 q 797 1233 793 1232 q 803 1233 800 1233 q 833 1225 825 1233 q 842 1203 842 1217 q 836 1176 842 1190 q 824 1146 831 1161 q 791 1108 811 1121 q 758 1094 771 1094 q 746 1104 746 1094 m 482 1028 q 481 1029 481 1028 q 527 1065 481 1039 q 636 1126 574 1090 q 641 1129 639 1128 q 644 1131 643 1131 l 647 1131 q 656 1126 651 1131 q 718 1072 700 1093 q 763 1032 736 1051 q 758 1028 767 1028 q 757 1028 757 1028 q 756 1029 757 1029 q 699 1052 725 1043 q 636 1069 672 1061 q 560 1049 601 1060 q 488 1029 519 1039 q 482 1028 485 1028 z "},"Ỗ":{"ha":1106,"x_min":86,"x_max":1040,"o":"m 483 -25 q 260 25 349 -25 q 129 159 172 75 q 86 344 86 243 q 131 564 86 453 q 271 763 176 675 q 210 733 239 749 q 175 717 181 717 q 163 729 163 717 q 181 750 163 738 q 227 776 200 763 q 281 800 254 789 q 324 817 308 811 q 424 897 368 860 q 543 956 479 933 q 672 979 607 979 q 737 969 704 979 q 769 926 769 958 q 758 886 769 907 q 738 853 747 865 q 957 753 874 833 q 1040 515 1040 672 q 992 288 1040 389 q 865 118 944 188 q 685 12 785 49 q 483 -25 586 -25 m 396 838 q 490 856 436 850 q 600 863 544 863 q 658 861 629 863 q 714 857 688 860 q 726 904 726 886 q 674 938 726 938 q 577 924 629 938 q 478 888 525 910 q 396 838 431 865 m 493 8 q 660 42 575 8 q 816 141 744 76 q 932 299 888 206 q 976 511 976 392 q 944 660 976 593 q 856 772 913 728 q 724 825 799 815 q 702 806 711 811 q 689 800 693 800 q 682 806 682 800 q 694 828 682 818 q 667 829 681 829 q 638 829 653 829 q 484 817 560 829 q 351 790 408 806 q 237 667 281 738 q 173 518 193 596 q 153 364 153 440 q 189 188 153 269 q 300 58 225 107 q 493 8 375 8 m 688 1174 q 628 1190 657 1174 q 571 1206 600 1206 q 531 1190 543 1206 q 507 1175 518 1175 q 504 1176 504 1175 q 515 1194 504 1183 q 538 1214 525 1204 q 556 1226 550 1224 q 597 1238 574 1238 q 654 1225 626 1238 q 710 1213 682 1213 q 760 1238 739 1213 q 767 1233 767 1238 q 749 1202 767 1215 q 711 1181 731 1189 q 688 1174 692 1174 m 482 1028 q 481 1029 481 1028 q 527 1065 481 1039 q 636 1126 574 1090 q 641 1129 639 1128 q 644 1131 643 1131 l 647 1131 q 656 1126 651 1131 q 718 1072 700 1093 q 763 1032 736 1051 q 758 1028 767 1028 q 757 1028 757 1028 q 756 1029 757 1029 q 699 1052 725 1043 q 636 1069 672 1061 q 560 1049 601 1060 q 488 1029 519 1039 q 482 1028 485 1028 z "},"Ö":{"ha":1106,"x_min":86,"x_max":1040,"o":"m 483 -25 q 260 25 349 -25 q 129 159 172 75 q 86 344 86 243 q 131 564 86 453 q 271 763 176 675 q 210 733 239 749 q 175 717 181 717 q 163 729 163 717 q 181 750 163 738 q 227 776 200 763 q 281 800 254 789 q 324 817 308 811 q 424 897 368 860 q 543 956 479 933 q 672 979 607 979 q 737 969 704 979 q 769 926 769 958 q 758 886 769 907 q 738 853 747 865 q 957 753 874 833 q 1040 515 1040 672 q 992 288 1040 389 q 865 118 944 188 q 685 12 785 49 q 483 -25 586 -25 m 396 838 q 490 856 436 850 q 600 863 544 863 q 658 861 629 863 q 714 857 688 860 q 726 904 726 886 q 674 938 726 938 q 577 924 629 938 q 478 888 525 910 q 396 838 431 865 m 493 8 q 660 42 575 8 q 816 141 744 76 q 932 299 888 206 q 976 511 976 392 q 944 660 976 593 q 856 772 913 728 q 724 825 799 815 q 702 806 711 811 q 689 800 693 800 q 682 806 682 800 q 694 828 682 818 q 667 829 681 829 q 638 829 653 829 q 484 817 560 829 q 351 790 408 806 q 237 667 281 738 q 173 518 193 596 q 153 364 153 440 q 189 188 153 269 q 300 58 225 107 q 493 8 375 8 m 681 1042 q 660 1053 664 1042 q 656 1079 656 1065 q 680 1128 656 1104 q 726 1151 704 1151 q 735 1147 733 1151 q 726 1103 735 1129 q 718 1071 718 1078 q 705 1051 718 1057 q 681 1042 692 1044 m 531 1042 q 512 1053 517 1042 q 507 1079 507 1065 q 531 1128 507 1104 q 578 1151 554 1151 q 585 1147 583 1151 q 576 1103 585 1129 q 568 1071 568 1078 q 555 1051 568 1057 q 531 1042 542 1044 z "},"Ọ":{"ha":1106,"x_min":86,"x_max":1040,"o":"m 483 -25 q 260 25 349 -25 q 129 159 172 75 q 86 344 86 243 q 131 564 86 453 q 271 763 176 675 q 210 733 239 749 q 175 717 181 717 q 163 729 163 717 q 181 750 163 738 q 227 776 200 763 q 281 800 254 789 q 324 817 308 811 q 424 897 368 860 q 543 956 479 933 q 672 979 607 979 q 737 969 704 979 q 769 926 769 958 q 758 886 769 907 q 738 853 747 865 q 957 753 874 833 q 1040 515 1040 672 q 992 288 1040 389 q 865 118 944 188 q 685 12 785 49 q 483 -25 586 -25 m 396 838 q 490 856 436 850 q 600 863 544 863 q 658 861 629 863 q 714 857 688 860 q 726 904 726 886 q 674 938 726 938 q 577 924 629 938 q 478 888 525 910 q 396 838 431 865 m 493 8 q 660 42 575 8 q 816 141 744 76 q 932 299 888 206 q 976 511 976 392 q 944 660 976 593 q 856 772 913 728 q 724 825 799 815 q 702 806 711 811 q 689 800 693 800 q 682 806 682 800 q 694 828 682 818 q 667 829 681 829 q 638 829 653 829 q 484 817 560 829 q 351 790 408 806 q 237 667 281 738 q 173 518 193 596 q 153 364 153 440 q 189 188 153 269 q 300 58 225 107 q 493 8 375 8 m 446 -198 q 428 -185 437 -198 q 420 -166 420 -173 q 438 -139 420 -153 q 479 -114 457 -125 q 514 -103 502 -103 q 518 -104 517 -103 l 518 -103 q 519 -104 518 -104 q 519 -105 519 -105 q 511 -114 519 -106 q 501 -124 503 -121 q 487 -151 493 -132 q 471 -183 481 -169 q 446 -198 462 -198 z "},"Ò":{"ha":1106,"x_min":86,"x_max":1040,"o":"m 483 -25 q 260 25 349 -25 q 129 159 172 75 q 86 344 86 243 q 131 564 86 453 q 271 763 176 675 q 210 733 239 749 q 175 717 181 717 q 163 729 163 717 q 181 750 163 738 q 227 776 200 763 q 281 800 254 789 q 324 817 308 811 q 424 897 368 860 q 543 956 479 933 q 672 979 607 979 q 737 969 704 979 q 769 926 769 958 q 758 886 769 907 q 738 853 747 865 q 957 753 874 833 q 1040 515 1040 672 q 992 288 1040 389 q 865 118 944 188 q 685 12 785 49 q 483 -25 586 -25 m 396 838 q 490 856 436 850 q 600 863 544 863 q 658 861 629 863 q 714 857 688 860 q 726 904 726 886 q 674 938 726 938 q 577 924 629 938 q 478 888 525 910 q 396 838 431 865 m 493 8 q 660 42 575 8 q 816 141 744 76 q 932 299 888 206 q 976 511 976 392 q 944 660 976 593 q 856 772 913 728 q 724 825 799 815 q 702 806 711 811 q 689 800 693 800 q 682 806 682 800 q 694 828 682 818 q 667 829 681 829 q 638 829 653 829 q 484 817 560 829 q 351 790 408 806 q 237 667 281 738 q 173 518 193 596 q 153 364 153 440 q 189 188 153 269 q 300 58 225 107 q 493 8 375 8 m 732 1018 q 736 1022 736 1018 q 707 1055 736 1031 q 635 1113 679 1080 q 546 1175 592 1145 q 533 1180 539 1180 q 512 1168 520 1180 q 506 1144 504 1155 l 506 1141 q 516 1125 506 1131 q 573 1095 534 1114 q 653 1055 612 1075 q 725 1020 695 1035 q 732 1018 727 1018 z "},"Ỏ":{"ha":1106,"x_min":86,"x_max":1040,"o":"m 483 -25 q 260 25 349 -25 q 129 159 172 75 q 86 344 86 243 q 131 564 86 453 q 271 763 176 675 q 210 733 239 749 q 175 717 181 717 q 163 729 163 717 q 181 750 163 738 q 227 776 200 763 q 281 800 254 789 q 324 817 308 811 q 424 897 368 860 q 543 956 479 933 q 672 979 607 979 q 737 969 704 979 q 769 926 769 958 q 758 886 769 907 q 738 853 747 865 q 957 753 874 833 q 1040 515 1040 672 q 992 288 1040 389 q 865 118 944 188 q 685 12 785 49 q 483 -25 586 -25 m 396 838 q 490 856 436 850 q 600 863 544 863 q 658 861 629 863 q 714 857 688 860 q 726 904 726 886 q 674 938 726 938 q 577 924 629 938 q 478 888 525 910 q 396 838 431 865 m 493 8 q 660 42 575 8 q 816 141 744 76 q 932 299 888 206 q 976 511 976 392 q 944 660 976 593 q 856 772 913 728 q 724 825 799 815 q 702 806 711 811 q 689 800 693 800 q 682 806 682 800 q 694 828 682 818 q 667 829 681 829 q 638 829 653 829 q 484 817 560 829 q 351 790 408 806 q 237 667 281 738 q 173 518 193 596 q 153 364 153 440 q 189 188 153 269 q 300 58 225 107 q 493 8 375 8 m 606 1046 q 637 1081 628 1065 q 646 1124 646 1096 q 622 1149 646 1149 q 573 1140 594 1149 q 551 1132 551 1132 q 546 1142 542 1132 q 572 1169 553 1158 q 614 1184 592 1179 q 649 1190 636 1189 q 656 1191 653 1190 q 663 1192 660 1192 q 695 1178 685 1192 q 706 1151 706 1165 q 698 1121 706 1139 q 683 1088 690 1103 q 651 1049 671 1063 q 618 1036 631 1036 q 606 1046 606 1036 z "},"Ơ":{"ha":1106,"x_min":86,"x_max":1093,"o":"m 483 -25 q 260 25 349 -25 q 129 159 172 75 q 86 344 86 243 q 131 564 86 453 q 271 763 176 675 q 210 733 239 749 q 175 717 181 717 q 163 729 163 717 q 181 750 163 738 q 227 776 200 763 q 281 800 254 789 q 324 817 308 811 q 424 897 368 860 q 543 956 479 933 q 672 979 607 979 q 737 969 704 979 q 769 926 769 958 q 758 886 769 907 q 738 853 747 865 q 957 753 874 833 q 1040 515 1040 672 q 992 288 1040 389 q 865 118 944 188 q 685 12 785 49 q 483 -25 586 -25 m 396 838 q 490 856 436 850 q 600 863 544 863 q 658 861 629 863 q 714 857 688 860 q 726 904 726 886 q 674 938 726 938 q 577 924 629 938 q 478 888 525 910 q 396 838 431 865 m 493 8 q 660 42 575 8 q 816 141 744 76 q 932 299 888 206 q 976 511 976 392 q 944 660 976 593 q 856 772 913 728 q 724 825 799 815 q 702 806 711 811 q 689 800 693 800 q 682 806 682 800 q 694 828 682 818 q 667 829 681 829 q 638 829 653 829 q 484 817 560 829 q 351 790 408 806 q 237 667 281 738 q 173 518 193 596 q 153 364 153 440 q 189 188 153 269 q 300 58 225 107 q 493 8 375 8 m 949 740 l 942 740 q 908 750 924 740 q 885 781 889 764 q 890 794 882 794 q 894 790 890 794 q 906 778 897 786 q 939 761 921 761 q 999 800 967 761 q 1061 915 1031 839 q 1082 942 1071 942 q 1093 914 1093 942 q 1090 888 1093 903 q 1079 857 1086 872 q 1017 772 1053 800 q 949 740 981 744 z "},"Ớ":{"ha":1106,"x_min":86,"x_max":1093,"o":"m 483 -25 q 260 25 349 -25 q 129 159 172 75 q 86 344 86 243 q 131 564 86 453 q 271 763 176 675 q 210 733 239 749 q 175 717 181 717 q 163 729 163 717 q 181 750 163 738 q 227 776 200 763 q 281 800 254 789 q 324 817 308 811 q 424 897 368 860 q 543 956 479 933 q 672 979 607 979 q 737 969 704 979 q 769 926 769 958 q 758 886 769 907 q 738 853 747 865 q 957 753 874 833 q 1040 515 1040 672 q 992 288 1040 389 q 865 118 944 188 q 685 12 785 49 q 483 -25 586 -25 m 396 838 q 490 856 436 850 q 600 863 544 863 q 658 861 629 863 q 714 857 688 860 q 726 904 726 886 q 674 938 726 938 q 577 924 629 938 q 478 888 525 910 q 396 838 431 865 m 493 8 q 660 42 575 8 q 816 141 744 76 q 932 299 888 206 q 976 511 976 392 q 944 660 976 593 q 856 772 913 728 q 724 825 799 815 q 702 806 711 811 q 689 800 693 800 q 682 806 682 800 q 694 828 682 818 q 667 829 681 829 q 638 829 653 829 q 484 817 560 829 q 351 790 408 806 q 237 667 281 738 q 173 518 193 596 q 153 364 153 440 q 189 188 153 269 q 300 58 225 107 q 493 8 375 8 m 949 740 l 942 740 q 908 750 924 740 q 885 781 889 764 q 890 794 882 794 q 894 790 890 794 q 906 778 897 786 q 939 761 921 761 q 999 800 967 761 q 1061 915 1031 839 q 1082 942 1071 942 q 1093 914 1093 942 q 1090 888 1093 903 q 1079 857 1086 872 q 1017 772 1053 800 q 949 740 981 744 m 510 1024 q 506 1028 506 1024 q 534 1061 506 1037 q 606 1118 563 1085 q 696 1181 650 1151 q 709 1185 703 1185 q 729 1173 722 1185 q 736 1150 737 1161 l 736 1147 q 726 1131 736 1137 q 669 1100 707 1120 q 589 1061 630 1081 q 517 1025 547 1041 q 510 1024 514 1024 z "},"Ợ":{"ha":1106,"x_min":86,"x_max":1093,"o":"m 483 -25 q 260 25 349 -25 q 129 159 172 75 q 86 344 86 243 q 131 564 86 453 q 271 763 176 675 q 210 733 239 749 q 175 717 181 717 q 163 729 163 717 q 181 750 163 738 q 227 776 200 763 q 281 800 254 789 q 324 817 308 811 q 424 897 368 860 q 543 956 479 933 q 672 979 607 979 q 737 969 704 979 q 769 926 769 958 q 758 886 769 907 q 738 853 747 865 q 957 753 874 833 q 1040 515 1040 672 q 992 288 1040 389 q 865 118 944 188 q 685 12 785 49 q 483 -25 586 -25 m 396 838 q 490 856 436 850 q 600 863 544 863 q 658 861 629 863 q 714 857 688 860 q 726 904 726 886 q 674 938 726 938 q 577 924 629 938 q 478 888 525 910 q 396 838 431 865 m 493 8 q 660 42 575 8 q 816 141 744 76 q 932 299 888 206 q 976 511 976 392 q 944 660 976 593 q 856 772 913 728 q 724 825 799 815 q 702 806 711 811 q 689 800 693 800 q 682 806 682 800 q 694 828 682 818 q 667 829 681 829 q 638 829 653 829 q 484 817 560 829 q 351 790 408 806 q 237 667 281 738 q 173 518 193 596 q 153 364 153 440 q 189 188 153 269 q 300 58 225 107 q 493 8 375 8 m 949 740 l 942 740 q 908 750 924 740 q 885 781 889 764 q 890 794 882 794 q 894 790 890 794 q 906 778 897 786 q 939 761 921 761 q 999 800 967 761 q 1061 915 1031 839 q 1082 942 1071 942 q 1093 914 1093 942 q 1090 888 1093 903 q 1079 857 1086 872 q 1017 772 1053 800 q 949 740 981 744 m 446 -198 q 428 -185 437 -198 q 420 -166 420 -173 q 438 -139 420 -153 q 479 -114 457 -125 q 514 -103 502 -103 q 518 -104 517 -103 l 518 -103 q 519 -104 518 -104 q 519 -105 519 -105 q 511 -114 519 -106 q 501 -124 503 -121 q 487 -151 493 -132 q 471 -183 481 -169 q 446 -198 462 -198 z "},"Ờ":{"ha":1106,"x_min":86,"x_max":1093,"o":"m 483 -25 q 260 25 349 -25 q 129 159 172 75 q 86 344 86 243 q 131 564 86 453 q 271 763 176 675 q 210 733 239 749 q 175 717 181 717 q 163 729 163 717 q 181 750 163 738 q 227 776 200 763 q 281 800 254 789 q 324 817 308 811 q 424 897 368 860 q 543 956 479 933 q 672 979 607 979 q 737 969 704 979 q 769 926 769 958 q 758 886 769 907 q 738 853 747 865 q 957 753 874 833 q 1040 515 1040 672 q 992 288 1040 389 q 865 118 944 188 q 685 12 785 49 q 483 -25 586 -25 m 396 838 q 490 856 436 850 q 600 863 544 863 q 658 861 629 863 q 714 857 688 860 q 726 904 726 886 q 674 938 726 938 q 577 924 629 938 q 478 888 525 910 q 396 838 431 865 m 493 8 q 660 42 575 8 q 816 141 744 76 q 932 299 888 206 q 976 511 976 392 q 944 660 976 593 q 856 772 913 728 q 724 825 799 815 q 702 806 711 811 q 689 800 693 800 q 682 806 682 800 q 694 828 682 818 q 667 829 681 829 q 638 829 653 829 q 484 817 560 829 q 351 790 408 806 q 237 667 281 738 q 173 518 193 596 q 153 364 153 440 q 189 188 153 269 q 300 58 225 107 q 493 8 375 8 m 949 740 l 942 740 q 908 750 924 740 q 885 781 889 764 q 890 794 882 794 q 894 790 890 794 q 906 778 897 786 q 939 761 921 761 q 999 800 967 761 q 1061 915 1031 839 q 1082 942 1071 942 q 1093 914 1093 942 q 1090 888 1093 903 q 1079 857 1086 872 q 1017 772 1053 800 q 949 740 981 744 m 732 1018 q 736 1022 736 1018 q 707 1055 736 1031 q 635 1113 679 1080 q 546 1175 592 1145 q 533 1180 539 1180 q 512 1168 520 1180 q 506 1144 504 1155 l 506 1141 q 516 1125 506 1131 q 573 1095 534 1114 q 653 1055 612 1075 q 725 1020 695 1035 q 732 1018 727 1018 z "},"Ở":{"ha":1106,"x_min":86,"x_max":1093,"o":"m 483 -25 q 260 25 349 -25 q 129 159 172 75 q 86 344 86 243 q 131 564 86 453 q 271 763 176 675 q 210 733 239 749 q 175 717 181 717 q 163 729 163 717 q 181 750 163 738 q 227 776 200 763 q 281 800 254 789 q 324 817 308 811 q 424 897 368 860 q 543 956 479 933 q 672 979 607 979 q 737 969 704 979 q 769 926 769 958 q 758 886 769 907 q 738 853 747 865 q 957 753 874 833 q 1040 515 1040 672 q 992 288 1040 389 q 865 118 944 188 q 685 12 785 49 q 483 -25 586 -25 m 396 838 q 490 856 436 850 q 600 863 544 863 q 658 861 629 863 q 714 857 688 860 q 726 904 726 886 q 674 938 726 938 q 577 924 629 938 q 478 888 525 910 q 396 838 431 865 m 493 8 q 660 42 575 8 q 816 141 744 76 q 932 299 888 206 q 976 511 976 392 q 944 660 976 593 q 856 772 913 728 q 724 825 799 815 q 702 806 711 811 q 689 800 693 800 q 682 806 682 800 q 694 828 682 818 q 667 829 681 829 q 638 829 653 829 q 484 817 560 829 q 351 790 408 806 q 237 667 281 738 q 173 518 193 596 q 153 364 153 440 q 189 188 153 269 q 300 58 225 107 q 493 8 375 8 m 949 740 l 942 740 q 908 750 924 740 q 885 781 889 764 q 890 794 882 794 q 894 790 890 794 q 906 778 897 786 q 939 761 921 761 q 999 800 967 761 q 1061 915 1031 839 q 1082 942 1071 942 q 1093 914 1093 942 q 1090 888 1093 903 q 1079 857 1086 872 q 1017 772 1053 800 q 949 740 981 744 m 606 1046 q 637 1081 628 1065 q 646 1124 646 1096 q 622 1149 646 1149 q 573 1140 594 1149 q 551 1132 551 1132 q 546 1142 542 1132 q 572 1169 553 1158 q 614 1184 592 1179 q 649 1190 636 1189 q 656 1191 653 1190 q 663 1192 660 1192 q 695 1178 685 1192 q 706 1151 706 1165 q 698 1121 706 1139 q 683 1088 690 1103 q 651 1049 671 1063 q 618 1036 631 1036 q 606 1046 606 1036 z "},"Ỡ":{"ha":1106,"x_min":86,"x_max":1093,"o":"m 483 -25 q 260 25 349 -25 q 129 159 172 75 q 86 344 86 243 q 131 564 86 453 q 271 763 176 675 q 210 733 239 749 q 175 717 181 717 q 163 729 163 717 q 181 750 163 738 q 227 776 200 763 q 281 800 254 789 q 324 817 308 811 q 424 897 368 860 q 543 956 479 933 q 672 979 607 979 q 737 969 704 979 q 769 926 769 958 q 758 886 769 907 q 738 853 747 865 q 957 753 874 833 q 1040 515 1040 672 q 992 288 1040 389 q 865 118 944 188 q 685 12 785 49 q 483 -25 586 -25 m 396 838 q 490 856 436 850 q 600 863 544 863 q 658 861 629 863 q 714 857 688 860 q 726 904 726 886 q 674 938 726 938 q 577 924 629 938 q 478 888 525 910 q 396 838 431 865 m 493 8 q 660 42 575 8 q 816 141 744 76 q 932 299 888 206 q 976 511 976 392 q 944 660 976 593 q 856 772 913 728 q 724 825 799 815 q 702 806 711 811 q 689 800 693 800 q 682 806 682 800 q 694 828 682 818 q 667 829 681 829 q 638 829 653 829 q 484 817 560 829 q 351 790 408 806 q 237 667 281 738 q 173 518 193 596 q 153 364 153 440 q 189 188 153 269 q 300 58 225 107 q 493 8 375 8 m 949 740 l 942 740 q 908 750 924 740 q 885 781 889 764 q 890 794 882 794 q 894 790 890 794 q 906 778 897 786 q 939 761 921 761 q 999 800 967 761 q 1061 915 1031 839 q 1082 942 1071 942 q 1093 914 1093 942 q 1090 888 1093 903 q 1079 857 1086 872 q 1017 772 1053 800 q 949 740 981 744 m 681 1024 q 635 1034 657 1024 q 590 1053 612 1044 q 545 1062 568 1062 q 511 1053 524 1062 q 489 1035 498 1044 q 471 1026 480 1026 q 468 1028 468 1026 q 480 1048 468 1035 q 507 1071 493 1060 q 527 1085 521 1082 q 576 1099 549 1099 q 642 1085 611 1099 q 707 1070 674 1070 q 740 1078 726 1070 q 764 1099 753 1085 q 773 1094 773 1099 q 751 1057 773 1073 q 708 1033 730 1042 q 681 1024 686 1024 z "},"Ő":{"ha":1106,"x_min":86,"x_max":1040,"o":"m 483 -25 q 260 25 349 -25 q 129 159 172 75 q 86 344 86 243 q 131 564 86 453 q 271 763 176 675 q 210 733 239 749 q 175 717 181 717 q 163 729 163 717 q 181 750 163 738 q 227 776 200 763 q 281 800 254 789 q 324 817 308 811 q 424 897 368 860 q 543 956 479 933 q 672 979 607 979 q 737 969 704 979 q 769 926 769 958 q 758 886 769 907 q 738 853 747 865 q 957 753 874 833 q 1040 515 1040 672 q 992 288 1040 389 q 865 118 944 188 q 685 12 785 49 q 483 -25 586 -25 m 396 838 q 490 856 436 850 q 600 863 544 863 q 658 861 629 863 q 714 857 688 860 q 726 904 726 886 q 674 938 726 938 q 577 924 629 938 q 478 888 525 910 q 396 838 431 865 m 493 8 q 660 42 575 8 q 816 141 744 76 q 932 299 888 206 q 976 511 976 392 q 944 660 976 593 q 856 772 913 728 q 724 825 799 815 q 702 806 711 811 q 689 800 693 800 q 682 806 682 800 q 694 828 682 818 q 667 829 681 829 q 638 829 653 829 q 484 817 560 829 q 351 790 408 806 q 237 667 281 738 q 173 518 193 596 q 153 364 153 440 q 189 188 153 269 q 300 58 225 107 q 493 8 375 8 m 708 1040 q 701 1058 701 1040 q 706 1078 701 1068 q 719 1122 711 1092 q 740 1178 728 1151 q 768 1204 753 1204 q 795 1193 783 1204 q 807 1169 807 1182 q 804 1160 807 1165 q 787 1132 800 1151 q 758 1091 774 1113 q 728 1055 742 1069 q 708 1040 714 1040 m 535 1040 q 528 1057 528 1040 q 532 1078 528 1068 q 546 1122 538 1092 q 567 1178 554 1151 q 594 1204 579 1204 q 622 1193 610 1204 q 633 1169 633 1182 q 631 1160 633 1165 q 613 1131 626 1150 q 584 1090 600 1111 q 555 1055 568 1069 q 535 1040 542 1040 z "},"Ō":{"ha":1106,"x_min":86,"x_max":1040,"o":"m 483 -25 q 260 25 349 -25 q 129 159 172 75 q 86 344 86 243 q 131 564 86 453 q 271 763 176 675 q 210 733 239 749 q 175 717 181 717 q 163 729 163 717 q 181 750 163 738 q 227 776 200 763 q 281 800 254 789 q 324 817 308 811 q 424 897 368 860 q 543 956 479 933 q 672 979 607 979 q 737 969 704 979 q 769 926 769 958 q 758 886 769 907 q 738 853 747 865 q 957 753 874 833 q 1040 515 1040 672 q 992 288 1040 389 q 865 118 944 188 q 685 12 785 49 q 483 -25 586 -25 m 396 838 q 490 856 436 850 q 600 863 544 863 q 658 861 629 863 q 714 857 688 860 q 726 904 726 886 q 674 938 726 938 q 577 924 629 938 q 478 888 525 910 q 396 838 431 865 m 493 8 q 660 42 575 8 q 816 141 744 76 q 932 299 888 206 q 976 511 976 392 q 944 660 976 593 q 856 772 913 728 q 724 825 799 815 q 702 806 711 811 q 689 800 693 800 q 682 806 682 800 q 694 828 682 818 q 667 829 681 829 q 638 829 653 829 q 484 817 560 829 q 351 790 408 806 q 237 667 281 738 q 173 518 193 596 q 153 364 153 440 q 189 188 153 269 q 300 58 225 107 q 493 8 375 8 m 519 1047 q 492 1050 500 1047 q 485 1056 485 1053 q 503 1072 485 1065 q 546 1082 521 1078 q 592 1086 571 1086 q 657 1083 618 1086 q 726 1075 696 1081 q 757 1061 757 1069 q 741 1051 757 1054 q 721 1047 725 1047 l 519 1047 z "},"Ø":{"ha":1086,"x_min":86,"x_max":1040,"o":"m 210 -165 q 185 -153 193 -165 q 176 -121 176 -140 q 190 -47 176 -89 q 229 43 204 -4 q 122 173 157 94 q 86 344 86 251 q 131 564 86 453 q 271 763 176 675 q 210 733 239 749 q 175 717 181 717 q 163 729 163 717 q 181 750 163 738 q 227 776 200 763 q 281 800 254 789 q 324 817 308 811 q 424 897 368 860 q 543 956 479 933 q 672 979 607 979 q 737 969 704 979 q 769 926 769 958 q 758 886 769 907 q 738 853 747 865 q 770 847 754 850 q 800 840 786 844 q 892 942 854 901 q 940 982 931 982 q 954 974 949 982 q 960 957 960 967 q 940 922 960 946 q 895 870 921 897 q 851 822 869 843 q 990 711 939 786 q 1040 515 1040 636 q 992 288 1040 389 q 865 118 944 188 q 685 12 785 49 q 483 -25 586 -25 q 366 -13 419 -25 q 269 21 313 -1 q 222 -104 222 -62 q 232 -131 222 -122 q 242 -144 242 -140 q 229 -158 242 -151 q 210 -165 217 -165 m 396 838 q 490 856 436 850 q 600 863 544 863 q 658 861 629 863 q 714 857 688 860 q 726 904 726 886 q 674 938 726 938 q 577 924 629 938 q 478 888 525 910 q 396 838 431 865 m 256 92 q 370 274 304 175 q 510 473 436 372 q 653 662 583 574 q 776 813 722 750 q 724 825 751 821 q 702 806 711 811 q 689 800 693 800 q 682 806 682 800 q 694 828 682 818 q 667 829 681 829 q 638 829 653 829 q 484 817 560 829 q 351 790 408 806 q 237 667 281 738 q 173 518 193 596 q 153 364 153 440 q 178 213 153 283 q 256 92 203 142 m 493 8 q 660 42 575 8 q 816 141 744 76 q 932 299 888 206 q 976 511 976 392 q 935 677 976 603 q 825 790 894 751 q 677 608 753 706 q 529 413 601 511 q 396 225 457 315 q 293 63 335 135 q 382 22 332 36 q 493 8 432 8 z "},"Õ":{"ha":1106,"x_min":86,"x_max":1040,"o":"m 483 -25 q 260 25 349 -25 q 129 159 172 75 q 86 344 86 243 q 131 564 86 453 q 271 763 176 675 q 210 733 239 749 q 175 717 181 717 q 163 729 163 717 q 181 750 163 738 q 227 776 200 763 q 281 800 254 789 q 324 817 308 811 q 424 897 368 860 q 543 956 479 933 q 672 979 607 979 q 737 969 704 979 q 769 926 769 958 q 758 886 769 907 q 738 853 747 865 q 957 753 874 833 q 1040 515 1040 672 q 992 288 1040 389 q 865 118 944 188 q 685 12 785 49 q 483 -25 586 -25 m 396 838 q 490 856 436 850 q 600 863 544 863 q 658 861 629 863 q 714 857 688 860 q 726 904 726 886 q 674 938 726 938 q 577 924 629 938 q 478 888 525 910 q 396 838 431 865 m 493 8 q 660 42 575 8 q 816 141 744 76 q 932 299 888 206 q 976 511 976 392 q 944 660 976 593 q 856 772 913 728 q 724 825 799 815 q 702 806 711 811 q 689 800 693 800 q 682 806 682 800 q 694 828 682 818 q 667 829 681 829 q 638 829 653 829 q 484 817 560 829 q 351 790 408 806 q 237 667 281 738 q 173 518 193 596 q 153 364 153 440 q 189 188 153 269 q 300 58 225 107 q 493 8 375 8 m 681 1024 q 635 1034 657 1024 q 590 1053 612 1044 q 545 1062 568 1062 q 511 1053 524 1062 q 489 1035 498 1044 q 471 1026 480 1026 q 468 1028 468 1026 q 480 1048 468 1035 q 507 1071 493 1060 q 527 1085 521 1082 q 576 1099 549 1099 q 642 1085 611 1099 q 707 1070 674 1070 q 740 1078 726 1070 q 764 1099 753 1085 q 773 1094 773 1099 q 751 1057 773 1073 q 708 1033 730 1042 q 681 1024 686 1024 z "},"Œ":{"ha":1531,"x_min":86,"x_max":1485,"o":"m 483 -25 q 260 25 349 -25 q 129 159 172 75 q 86 344 86 243 q 131 564 86 453 q 271 763 176 675 q 210 733 239 749 q 175 717 181 717 q 163 729 163 717 q 181 750 163 738 q 227 776 200 763 q 281 800 254 789 q 324 817 308 811 q 424 897 368 860 q 543 956 479 933 q 672 979 607 979 q 737 969 704 979 q 769 926 769 958 q 758 886 769 907 q 738 853 747 865 q 856 815 803 843 q 947 746 908 788 q 956 802 951 776 q 967 847 961 828 l 893 847 q 863 858 863 849 q 880 873 863 865 q 921 881 897 881 l 975 881 q 1003 945 983 929 q 1060 961 1024 961 q 1081 947 1081 961 q 1070 917 1081 938 q 1054 882 1060 896 q 1103 881 1068 882 q 1226 881 1139 881 q 1328 881 1269 881 q 1464 882 1388 882 q 1485 861 1485 882 q 1471 824 1485 847 q 1442 800 1457 800 q 1423 817 1432 800 q 1394 836 1414 835 q 1338 839 1376 839 q 1276 839 1300 839 q 1242 838 1258 839 q 1211 838 1226 838 q 1138 838 1175 838 q 1040 840 1101 839 q 1011 721 1026 792 q 984 580 996 650 q 965 460 972 510 q 1065 460 1007 460 q 1184 460 1124 460 q 1293 462 1244 461 q 1363 464 1342 463 q 1371 456 1371 464 q 1358 434 1371 447 q 1318 417 1346 421 l 960 417 q 949 292 954 367 q 943 147 943 217 q 950 43 943 88 q 1086 42 1000 43 q 1311 42 1172 42 q 1388 47 1342 42 q 1471 64 1435 53 l 1472 64 q 1478 50 1478 64 q 1468 18 1478 36 q 1436 0 1458 0 q 1342 -1 1390 0 q 1243 -1 1293 -1 l 1086 -1 q 966 -1 1026 -1 q 866 1 906 0 q 826 6 826 3 q 846 31 826 15 q 882 50 865 47 q 881 60 882 54 q 881 71 881 65 q 881 101 881 85 q 883 135 882 117 q 697 16 803 57 q 483 -25 592 -25 m 396 838 q 490 856 436 850 q 600 863 544 863 q 658 861 629 863 q 714 857 688 860 q 726 904 726 886 q 674 938 726 938 q 577 924 629 938 q 478 888 525 910 q 396 838 431 865 m 493 8 q 638 35 561 8 q 781 106 714 61 q 888 206 849 150 q 900 356 893 275 q 917 519 907 436 q 936 674 926 601 q 849 775 904 735 q 724 825 794 815 q 702 806 711 811 q 689 800 693 800 q 682 806 682 800 q 694 828 682 818 q 667 829 681 829 q 638 829 653 829 q 484 817 560 829 q 351 790 408 806 q 237 667 281 738 q 173 518 193 596 q 153 364 153 440 q 189 188 153 269 q 300 58 225 107 q 493 8 375 8 z "},"P":{"ha":726,"x_min":107,"x_max":692,"o":"m 138 -3 q 115 1 122 -3 q 107 19 107 6 q 113 128 107 57 q 130 289 119 200 q 153 472 140 378 q 181 651 167 565 q 207 797 194 736 l 207 800 q 205 809 207 806 q 203 818 203 813 q 207 846 203 826 q 214 875 211 865 l 206 875 q 177 874 192 875 q 151 872 163 872 q 121 883 121 874 q 155 902 121 897 q 222 907 189 907 q 251 946 226 931 q 310 961 275 961 q 332 944 332 961 q 320 923 325 928 q 310 901 315 918 q 395 891 346 899 q 496 869 444 883 q 592 832 547 856 q 664 772 636 808 q 692 685 692 736 q 670 594 692 638 q 615 514 649 550 q 543 452 581 478 q 472 415 506 426 q 372 392 425 399 q 274 386 318 386 q 217 388 240 386 q 188 393 194 390 q 178 322 183 369 q 171 217 174 275 q 168 103 168 160 q 172 45 168 68 q 176 24 176 22 q 173 16 176 17 q 168 11 169 15 q 156 1 165 4 q 138 -3 147 -3 m 283 421 q 322 422 303 421 q 356 424 342 422 q 444 447 396 428 q 534 499 492 467 q 603 576 576 532 q 631 676 631 621 q 596 760 631 725 q 508 817 561 794 q 399 853 456 840 q 299 869 343 865 q 276 806 289 849 q 250 708 263 763 q 226 599 238 654 q 206 499 214 544 q 196 429 199 454 q 226 423 200 425 q 283 421 253 421 z "},"Þ":{"ha":414,"x_min":-89,"x_max":542,"o":"m -50 -351 q -76 -340 -64 -351 q -89 -303 -89 -329 q -78 -240 -89 -283 q -49 -141 -67 -197 q -12 -24 -32 -85 q 28 90 8 36 q 61 183 47 144 q 54 215 54 200 q 64 253 54 235 q 96 285 74 271 q 137 410 114 339 q 183 553 160 482 q 222 678 206 624 q 243 750 239 732 q 233 753 243 753 q 212 757 222 754 q 201 767 201 760 q 216 788 201 781 q 245 799 231 794 q 260 806 260 803 q 297 901 283 868 q 316 949 310 935 q 327 969 322 964 q 338 981 332 975 q 369 996 353 996 q 394 968 394 996 q 386 936 394 956 l 333 810 q 434 712 386 776 q 512 560 482 647 q 542 374 542 474 q 507 224 542 289 q 410 122 472 158 q 264 85 349 85 q 180 95 222 85 q 107 131 138 106 q 69 37 88 92 q 35 -74 50 -18 q 10 -173 19 -131 q 1 -229 1 -215 q 6 -255 1 -244 q 11 -279 11 -265 q 6 -305 11 -287 q -13 -337 0 -322 q -50 -351 -26 -351 m 263 121 q 378 159 335 121 q 442 257 422 197 q 463 382 463 317 q 461 420 463 401 q 457 457 460 439 q 416 603 444 546 q 359 692 388 660 q 315 738 331 725 q 249 551 294 690 q 131 172 203 411 q 193 133 158 144 q 263 121 228 121 z "},"Q":{"ha":1106,"x_min":86,"x_max":1067,"o":"m 911 -336 q 810 -306 856 -336 q 728 -228 765 -276 q 657 -124 690 -181 q 589 -15 624 -68 q 536 -22 563 -19 q 483 -25 510 -25 q 260 25 349 -25 q 129 159 172 75 q 86 344 86 243 q 131 564 86 453 q 271 763 176 675 q 210 733 239 749 q 175 717 181 717 q 163 729 163 717 q 181 750 163 738 q 227 776 200 763 q 281 800 254 789 q 324 817 308 811 q 424 897 368 860 q 543 956 479 933 q 672 979 607 979 q 737 969 704 979 q 769 926 769 958 q 758 886 769 907 q 738 853 747 865 q 957 753 874 833 q 1040 515 1040 672 q 985 272 1040 378 q 838 97 929 167 q 639 -3 747 28 q 699 -95 665 -44 q 771 -192 732 -146 q 853 -267 810 -237 q 944 -297 897 -297 q 1001 -277 981 -297 q 1031 -230 1021 -257 q 1048 -183 1042 -203 q 1060 -162 1054 -162 q 1065 -170 1064 -162 q 1067 -185 1067 -178 q 1042 -272 1067 -239 q 981 -321 1017 -306 q 911 -336 944 -336 m 396 838 q 490 856 436 850 q 600 863 544 863 q 658 861 629 863 q 714 857 688 860 q 726 904 726 886 q 674 938 726 938 q 577 924 629 938 q 478 888 525 910 q 396 838 431 865 m 493 8 q 531 10 513 8 q 569 15 550 11 q 511 90 543 54 q 446 149 479 125 q 379 172 413 172 q 348 160 360 172 q 327 136 336 149 q 307 124 318 124 q 304 126 304 124 q 322 165 304 146 q 366 198 340 185 q 414 211 392 211 q 489 183 453 211 q 558 112 525 154 q 619 28 592 69 q 792 120 711 56 q 925 283 874 185 q 976 511 976 382 q 944 660 976 593 q 856 772 913 728 q 724 825 799 815 q 702 806 711 811 q 689 800 693 800 q 682 806 682 800 q 694 828 682 818 q 667 829 681 829 q 638 829 653 829 q 484 817 560 829 q 351 790 408 806 q 237 667 281 738 q 173 518 193 596 q 153 364 153 440 q 189 188 153 269 q 300 58 225 107 q 493 8 375 8 z "},"R":{"ha":811,"x_min":106,"x_max":783,"o":"m 654 -36 q 562 -3 615 -36 q 449 83 508 31 q 331 197 390 136 q 219 311 271 257 l 181 346 q 172 234 175 300 q 168 103 168 168 q 172 45 168 68 q 176 24 176 22 q 173 16 176 17 q 168 11 169 15 q 156 1 165 4 q 138 -3 147 -3 q 115 1 122 -3 q 107 19 107 6 q 111 110 107 53 q 123 240 115 168 q 140 386 131 311 q 116 415 126 401 q 106 435 106 428 q 114 440 106 440 q 146 432 122 432 q 165 563 154 496 q 188 690 176 629 q 210 794 200 751 l 210 797 q 208 806 210 803 q 206 815 206 810 q 210 843 206 824 q 217 872 214 863 l 208 872 q 180 871 194 872 q 154 869 165 869 q 124 881 124 871 q 158 899 124 894 q 225 904 192 904 q 252 946 231 931 q 310 961 274 961 q 332 944 332 961 q 322 922 325 928 q 313 899 318 915 q 398 888 349 896 q 499 867 447 881 q 596 828 551 853 q 668 768 640 804 q 696 679 696 732 q 663 572 696 624 q 584 483 631 521 q 494 428 538 444 q 370 395 431 403 q 265 388 310 388 l 250 388 q 226 381 226 388 q 240 360 226 374 q 347 254 289 313 q 465 141 404 196 q 581 49 525 86 q 681 8 636 13 q 722 30 707 8 q 742 85 736 51 q 747 153 747 118 q 745 188 747 172 q 743 215 743 203 q 756 238 743 238 q 779 210 775 238 q 783 160 783 182 q 763 46 783 89 q 712 -17 742 3 q 654 -36 682 -36 m 283 421 q 322 422 303 421 q 356 424 342 422 q 444 447 396 428 q 535 497 492 465 q 606 572 578 529 q 633 668 633 615 q 633 685 633 676 q 631 704 633 694 q 578 776 617 746 q 488 827 539 807 q 387 857 436 847 q 303 867 338 867 l 301 867 q 278 803 292 846 q 252 707 265 761 q 227 599 239 653 q 207 499 215 544 q 196 429 199 454 q 226 423 200 425 q 283 421 253 421 z "},"Ŕ":{"ha":811,"x_min":106,"x_max":783,"o":"m 654 -36 q 562 -3 615 -36 q 449 83 508 31 q 331 197 390 136 q 219 311 271 257 l 181 346 q 172 234 175 300 q 168 103 168 168 q 172 45 168 68 q 176 24 176 22 q 173 16 176 17 q 168 11 169 15 q 156 1 165 4 q 138 -3 147 -3 q 115 1 122 -3 q 107 19 107 6 q 111 110 107 53 q 123 240 115 168 q 140 386 131 311 q 116 415 126 401 q 106 435 106 428 q 114 440 106 440 q 146 432 122 432 q 165 563 154 496 q 188 690 176 629 q 210 794 200 751 l 210 797 q 208 806 210 803 q 206 815 206 810 q 210 843 206 824 q 217 872 214 863 l 208 872 q 180 871 194 872 q 154 869 165 869 q 124 881 124 871 q 158 899 124 894 q 225 904 192 904 q 252 946 231 931 q 310 961 274 961 q 332 944 332 961 q 322 922 325 928 q 313 899 318 915 q 398 888 349 896 q 499 867 447 881 q 596 828 551 853 q 668 768 640 804 q 696 679 696 732 q 663 572 696 624 q 584 483 631 521 q 494 428 538 444 q 370 395 431 403 q 265 388 310 388 l 250 388 q 226 381 226 388 q 240 360 226 374 q 347 254 289 313 q 465 141 404 196 q 581 49 525 86 q 681 8 636 13 q 722 30 707 8 q 742 85 736 51 q 747 153 747 118 q 745 188 747 172 q 743 215 743 203 q 756 238 743 238 q 779 210 775 238 q 783 160 783 182 q 763 46 783 89 q 712 -17 742 3 q 654 -36 682 -36 m 283 421 q 322 422 303 421 q 356 424 342 422 q 444 447 396 428 q 535 497 492 465 q 606 572 578 529 q 633 668 633 615 q 633 685 633 676 q 631 704 633 694 q 578 776 617 746 q 488 827 539 807 q 387 857 436 847 q 303 867 338 867 l 301 867 q 278 803 292 846 q 252 707 265 761 q 227 599 239 653 q 207 499 215 544 q 196 429 199 454 q 226 423 200 425 q 283 421 253 421 m 353 975 q 349 979 349 975 q 377 1012 349 988 q 450 1069 406 1037 q 539 1132 493 1102 q 552 1137 546 1137 q 573 1125 565 1137 q 579 1101 580 1112 l 579 1098 q 569 1082 579 1088 q 512 1052 550 1071 q 432 1012 473 1032 q 360 976 390 992 q 353 975 357 975 z "},"Ř":{"ha":811,"x_min":106,"x_max":783,"o":"m 654 -36 q 562 -3 615 -36 q 449 83 508 31 q 331 197 390 136 q 219 311 271 257 l 181 346 q 172 234 175 300 q 168 103 168 168 q 172 45 168 68 q 176 24 176 22 q 173 16 176 17 q 168 11 169 15 q 156 1 165 4 q 138 -3 147 -3 q 115 1 122 -3 q 107 19 107 6 q 111 110 107 53 q 123 240 115 168 q 140 386 131 311 q 116 415 126 401 q 106 435 106 428 q 114 440 106 440 q 146 432 122 432 q 165 563 154 496 q 188 690 176 629 q 210 794 200 751 l 210 797 q 208 806 210 803 q 206 815 206 810 q 210 843 206 824 q 217 872 214 863 l 208 872 q 180 871 194 872 q 154 869 165 869 q 124 881 124 871 q 158 899 124 894 q 225 904 192 904 q 252 946 231 931 q 310 961 274 961 q 332 944 332 961 q 322 922 325 928 q 313 899 318 915 q 398 888 349 896 q 499 867 447 881 q 596 828 551 853 q 668 768 640 804 q 696 679 696 732 q 663 572 696 624 q 584 483 631 521 q 494 428 538 444 q 370 395 431 403 q 265 388 310 388 l 250 388 q 226 381 226 388 q 240 360 226 374 q 347 254 289 313 q 465 141 404 196 q 581 49 525 86 q 681 8 636 13 q 722 30 707 8 q 742 85 736 51 q 747 153 747 118 q 745 188 747 172 q 743 215 743 203 q 756 238 743 238 q 779 210 775 238 q 783 160 783 182 q 763 46 783 89 q 712 -17 742 3 q 654 -36 682 -36 m 283 421 q 322 422 303 421 q 356 424 342 422 q 444 447 396 428 q 535 497 492 465 q 606 572 578 529 q 633 668 633 615 q 633 685 633 676 q 631 704 633 694 q 578 776 617 746 q 488 827 539 807 q 387 857 436 847 q 303 867 338 867 l 301 867 q 278 803 292 846 q 252 707 265 761 q 227 599 239 653 q 207 499 215 544 q 196 429 199 454 q 226 423 200 425 q 283 421 253 421 m 639 1108 q 640 1106 642 1108 q 579 1052 615 1080 q 477 985 543 1023 l 469 980 l 466 980 q 457 985 462 980 q 387 1048 411 1020 q 341 1103 363 1076 q 346 1108 337 1108 q 348 1106 347 1108 q 408 1070 376 1086 q 477 1046 440 1055 q 556 1076 513 1056 q 633 1106 599 1096 q 639 1108 636 1108 z "},"Ŗ":{"ha":811,"x_min":106,"x_max":783,"o":"m 654 -36 q 562 -3 615 -36 q 449 83 508 31 q 331 197 390 136 q 219 311 271 257 l 181 346 q 172 234 175 300 q 168 103 168 168 q 172 45 168 68 q 176 24 176 22 q 173 16 176 17 q 168 11 169 15 q 156 1 165 4 q 138 -3 147 -3 q 115 1 122 -3 q 107 19 107 6 q 111 110 107 53 q 123 240 115 168 q 140 386 131 311 q 116 415 126 401 q 106 435 106 428 q 114 440 106 440 q 146 432 122 432 q 165 563 154 496 q 188 690 176 629 q 210 794 200 751 l 210 797 q 208 806 210 803 q 206 815 206 810 q 210 843 206 824 q 217 872 214 863 l 208 872 q 180 871 194 872 q 154 869 165 869 q 124 881 124 871 q 158 899 124 894 q 225 904 192 904 q 252 946 231 931 q 310 961 274 961 q 332 944 332 961 q 322 922 325 928 q 313 899 318 915 q 398 888 349 896 q 499 867 447 881 q 596 828 551 853 q 668 768 640 804 q 696 679 696 732 q 663 572 696 624 q 584 483 631 521 q 494 428 538 444 q 370 395 431 403 q 265 388 310 388 l 250 388 q 226 381 226 388 q 240 360 226 374 q 347 254 289 313 q 465 141 404 196 q 581 49 525 86 q 681 8 636 13 q 722 30 707 8 q 742 85 736 51 q 747 153 747 118 q 745 188 747 172 q 743 215 743 203 q 756 238 743 238 q 779 210 775 238 q 783 160 783 182 q 763 46 783 89 q 712 -17 742 3 q 654 -36 682 -36 m 283 421 q 322 422 303 421 q 356 424 342 422 q 444 447 396 428 q 535 497 492 465 q 606 572 578 529 q 633 668 633 615 q 633 685 633 676 q 631 704 633 694 q 578 776 617 746 q 488 827 539 807 q 387 857 436 847 q 303 867 338 867 l 301 867 q 278 803 292 846 q 252 707 265 761 q 227 599 239 653 q 207 499 215 544 q 196 429 199 454 q 226 423 200 425 q 283 421 253 421 m 315 -292 q 311 -289 311 -292 l 311 -287 q 344 -247 325 -272 q 378 -197 364 -222 q 386 -158 392 -172 q 379 -147 385 -151 q 364 -124 364 -136 q 378 -94 364 -110 q 414 -79 392 -79 q 431 -86 425 -79 q 440 -103 438 -96 q 443 -115 442 -110 l 443 -119 q 441 -128 443 -125 q 438 -137 439 -131 q 406 -221 431 -186 q 354 -274 381 -256 q 315 -292 328 -292 z "},"S":{"ha":721,"x_min":54,"x_max":679,"o":"m 207 -24 q 109 -8 142 -24 q 65 30 76 7 q 54 75 54 53 l 54 85 q 61 115 54 96 q 92 133 68 133 q 104 116 103 133 q 117 79 106 99 q 174 32 139 43 q 261 21 208 21 q 359 36 307 21 q 457 79 411 51 q 531 146 503 107 q 560 233 560 185 q 528 307 560 278 q 447 358 497 336 q 342 401 397 381 q 238 449 288 421 q 156 517 188 476 q 125 618 125 557 q 159 732 125 678 q 252 828 193 786 q 385 895 311 871 q 540 919 460 919 q 629 898 600 919 q 669 845 658 876 q 679 782 679 814 q 675 758 679 775 q 662 728 671 742 q 640 715 653 715 q 631 733 631 715 l 631 761 q 592 847 631 825 q 497 868 554 868 q 406 855 460 868 q 301 815 353 842 q 216 749 250 788 q 182 657 182 710 q 183 651 182 654 q 183 644 183 647 q 226 548 190 586 q 313 485 261 510 q 420 440 364 460 q 525 400 476 421 q 604 351 574 379 q 635 276 635 322 q 600 169 635 222 q 506 72 565 115 q 369 2 446 28 q 207 -24 292 -24 z "},"Ś":{"ha":721,"x_min":54,"x_max":679,"o":"m 207 -24 q 109 -8 142 -24 q 65 30 76 7 q 54 75 54 53 l 54 85 q 61 115 54 96 q 92 133 68 133 q 104 116 103 133 q 117 79 106 99 q 174 32 139 43 q 261 21 208 21 q 359 36 307 21 q 457 79 411 51 q 531 146 503 107 q 560 233 560 185 q 528 307 560 278 q 447 358 497 336 q 342 401 397 381 q 238 449 288 421 q 156 517 188 476 q 125 618 125 557 q 159 732 125 678 q 252 828 193 786 q 385 895 311 871 q 540 919 460 919 q 629 898 600 919 q 669 845 658 876 q 679 782 679 814 q 675 758 679 775 q 662 728 671 742 q 640 715 653 715 q 631 733 631 715 l 631 761 q 592 847 631 825 q 497 868 554 868 q 406 855 460 868 q 301 815 353 842 q 216 749 250 788 q 182 657 182 710 q 183 651 182 654 q 183 644 183 647 q 226 548 190 586 q 313 485 261 510 q 420 440 364 460 q 525 400 476 421 q 604 351 574 379 q 635 276 635 322 q 600 169 635 222 q 506 72 565 115 q 369 2 446 28 q 207 -24 292 -24 m 315 975 q 311 979 311 975 q 340 1012 311 988 q 412 1069 368 1037 q 501 1132 456 1102 q 514 1137 509 1137 q 535 1125 527 1137 q 541 1101 543 1112 l 541 1098 q 531 1082 541 1088 q 474 1052 513 1071 q 394 1012 436 1032 q 323 976 353 992 q 315 975 320 975 z "},"Š":{"ha":721,"x_min":54,"x_max":679,"o":"m 207 -24 q 109 -8 142 -24 q 65 30 76 7 q 54 75 54 53 l 54 85 q 61 115 54 96 q 92 133 68 133 q 104 116 103 133 q 117 79 106 99 q 174 32 139 43 q 261 21 208 21 q 359 36 307 21 q 457 79 411 51 q 531 146 503 107 q 560 233 560 185 q 528 307 560 278 q 447 358 497 336 q 342 401 397 381 q 238 449 288 421 q 156 517 188 476 q 125 618 125 557 q 159 732 125 678 q 252 828 193 786 q 385 895 311 871 q 540 919 460 919 q 629 898 600 919 q 669 845 658 876 q 679 782 679 814 q 675 758 679 775 q 662 728 671 742 q 640 715 653 715 q 631 733 631 715 l 631 761 q 592 847 631 825 q 497 868 554 868 q 406 855 460 868 q 301 815 353 842 q 216 749 250 788 q 182 657 182 710 q 183 651 182 654 q 183 644 183 647 q 226 548 190 586 q 313 485 261 510 q 420 440 364 460 q 525 400 476 421 q 604 351 574 379 q 635 276 635 322 q 600 169 635 222 q 506 72 565 115 q 369 2 446 28 q 207 -24 292 -24 m 601 1108 q 603 1106 604 1108 q 541 1052 577 1080 q 440 985 506 1023 l 431 980 l 428 980 q 420 985 424 980 q 350 1048 374 1020 q 304 1103 325 1076 q 308 1108 300 1108 q 311 1106 310 1108 q 370 1070 338 1086 q 440 1046 403 1055 q 518 1076 476 1056 q 596 1106 561 1096 q 601 1108 599 1108 z "},"Ş":{"ha":721,"x_min":54,"x_max":679,"o":"m 207 -24 q 109 -8 142 -24 q 65 30 76 7 q 54 75 54 53 l 54 85 q 61 115 54 96 q 92 133 68 133 q 104 116 103 133 q 117 79 106 99 q 174 32 139 43 q 261 21 208 21 q 359 36 307 21 q 457 79 411 51 q 531 146 503 107 q 560 233 560 185 q 528 307 560 278 q 447 358 497 336 q 342 401 397 381 q 238 449 288 421 q 156 517 188 476 q 125 618 125 557 q 159 732 125 678 q 252 828 193 786 q 385 895 311 871 q 540 919 460 919 q 629 898 600 919 q 669 845 658 876 q 679 782 679 814 q 675 758 679 775 q 662 728 671 742 q 640 715 653 715 q 631 733 631 715 l 631 761 q 592 847 631 825 q 497 868 554 868 q 406 855 460 868 q 301 815 353 842 q 216 749 250 788 q 182 657 182 710 q 183 651 182 654 q 183 644 183 647 q 226 548 190 586 q 313 485 261 510 q 420 440 364 460 q 525 400 476 421 q 604 351 574 379 q 635 276 635 322 q 600 169 635 222 q 506 72 565 115 q 369 2 446 28 q 207 -24 292 -24 m 89 -389 q 80 -384 83 -389 q 76 -374 76 -379 q 92 -358 76 -361 q 133 -354 108 -356 q 181 -347 157 -353 q 222 -322 206 -340 q 238 -267 238 -304 q 219 -222 238 -246 q 183 -171 201 -197 q 165 -118 165 -144 q 190 -36 165 -75 q 263 3 215 3 q 273 1 268 3 q 279 -7 278 0 q 232 -39 249 -12 q 215 -94 215 -65 q 235 -137 215 -114 q 276 -189 256 -161 q 296 -251 296 -217 q 260 -331 296 -300 q 177 -375 225 -361 q 89 -389 129 -389 z "},"ẞ":{"ha":1385,"x_min":54,"x_max":1329,"o":"m 207 -24 q 109 -8 142 -24 q 65 30 76 7 q 54 75 54 53 l 54 85 q 61 115 54 96 q 92 133 68 133 q 104 116 103 133 q 117 79 106 99 q 174 32 139 43 q 261 21 208 21 q 359 36 307 21 q 457 79 411 51 q 531 146 503 107 q 560 233 560 185 q 528 307 560 278 q 447 358 497 336 q 342 401 397 381 q 238 449 288 421 q 156 517 188 476 q 125 618 125 557 q 159 732 125 678 q 252 828 193 786 q 385 895 311 871 q 540 919 460 919 q 629 898 600 919 q 669 845 658 876 q 679 782 679 814 q 675 758 679 775 q 662 728 671 742 q 640 715 653 715 q 631 733 631 715 l 631 761 q 592 847 631 825 q 497 868 554 868 q 406 855 460 868 q 301 815 353 842 q 216 749 250 788 q 182 657 182 710 q 183 651 182 654 q 183 644 183 647 q 226 548 190 586 q 313 485 261 510 q 420 440 364 460 q 525 400 476 421 q 604 351 574 379 q 635 276 635 322 q 600 169 635 222 q 506 72 565 115 q 369 2 446 28 q 207 -24 292 -24 m 857 -24 q 759 -8 792 -24 q 715 30 726 7 q 704 75 704 53 l 704 85 q 711 115 704 96 q 742 133 718 133 q 754 116 753 133 q 767 79 756 99 q 824 32 789 43 q 911 21 858 21 q 1009 36 957 21 q 1107 79 1061 51 q 1181 146 1153 107 q 1210 233 1210 185 q 1178 307 1210 278 q 1097 358 1147 336 q 992 401 1047 381 q 888 449 938 421 q 806 517 838 476 q 775 618 775 557 q 809 732 775 678 q 902 828 843 786 q 1035 895 961 871 q 1190 919 1110 919 q 1279 898 1250 919 q 1319 845 1308 876 q 1329 782 1329 814 q 1325 758 1329 775 q 1312 728 1321 742 q 1290 715 1303 715 q 1281 733 1281 715 l 1281 761 q 1242 847 1281 825 q 1147 868 1204 868 q 1056 855 1110 868 q 951 815 1003 842 q 866 749 900 788 q 832 657 832 710 q 833 651 832 654 q 833 644 833 647 q 876 548 840 586 q 963 485 911 510 q 1070 440 1014 460 q 1175 400 1126 421 q 1254 351 1224 379 q 1285 276 1285 322 q 1250 169 1285 222 q 1156 72 1215 115 q 1019 2 1096 28 q 857 -24 942 -24 z "},"T":{"ha":853,"x_min":39,"x_max":829,"o":"m 331 -11 q 297 19 297 -11 q 329 390 315 213 q 378 751 343 568 l 378 793 q 382 826 378 808 q 392 858 386 844 l 53 858 q 39 868 39 858 q 51 890 39 878 q 76 901 63 901 l 431 901 q 481 914 450 914 q 494 912 488 914 q 503 903 501 910 q 644 903 578 903 q 758 905 711 904 q 821 906 806 906 q 829 897 829 906 q 817 876 829 889 q 776 858 804 863 l 485 858 q 442 703 461 792 q 408 518 422 614 q 383 333 393 422 q 369 172 374 243 q 364 65 364 101 q 370 42 367 47 q 374 29 374 38 q 360 -1 374 10 q 331 -11 346 -11 z "},"Ŧ":{"ha":853,"x_min":39,"x_max":829,"o":"m 331 -11 q 297 19 297 -11 q 329 390 315 213 q 378 751 343 568 l 378 793 q 382 826 378 808 q 392 858 386 844 l 53 858 q 39 868 39 858 q 51 890 39 878 q 76 901 63 901 l 431 901 q 481 914 450 914 q 494 912 488 914 q 503 903 501 910 q 644 903 578 903 q 758 905 711 904 q 821 906 806 906 q 829 897 829 906 q 817 876 829 889 q 776 858 804 863 l 485 858 q 442 703 461 792 q 408 518 422 614 q 383 333 393 422 q 369 172 374 243 q 364 65 364 101 q 370 42 367 47 q 374 29 374 38 q 360 -1 374 10 q 331 -11 346 -11 m 275 683 q 242 686 252 683 q 233 692 233 689 q 255 708 233 701 q 307 718 277 714 q 363 722 338 722 q 443 719 395 722 q 527 711 490 717 q 564 697 564 706 q 545 687 564 690 q 520 683 525 683 l 275 683 z "},"Ť":{"ha":853,"x_min":39,"x_max":829,"o":"m 331 -11 q 297 19 297 -11 q 329 390 315 213 q 378 751 343 568 l 378 793 q 382 826 378 808 q 392 858 386 844 l 53 858 q 39 868 39 858 q 51 890 39 878 q 76 901 63 901 l 431 901 q 481 914 450 914 q 494 912 488 914 q 503 903 501 910 q 644 903 578 903 q 758 905 711 904 q 821 906 806 906 q 829 897 829 906 q 817 876 829 889 q 776 858 804 863 l 485 858 q 442 703 461 792 q 408 518 422 614 q 383 333 393 422 q 369 172 374 243 q 364 65 364 101 q 370 42 367 47 q 374 29 374 38 q 360 -1 374 10 q 331 -11 346 -11 m 601 1108 q 603 1106 604 1108 q 541 1052 577 1080 q 440 985 506 1023 l 431 980 l 428 980 q 420 985 424 980 q 350 1048 374 1020 q 304 1103 325 1076 q 308 1108 300 1108 q 311 1106 310 1108 q 370 1070 338 1086 q 440 1046 403 1055 q 518 1076 476 1056 q 596 1106 561 1096 q 601 1108 599 1108 z "},"Ţ":{"ha":853,"x_min":39,"x_max":829,"o":"m 331 -11 q 297 19 297 -11 q 329 390 315 213 q 378 751 343 568 l 378 793 q 382 826 378 808 q 392 858 386 844 l 53 858 q 39 868 39 858 q 51 890 39 878 q 76 901 63 901 l 431 901 q 481 914 450 914 q 494 912 488 914 q 503 903 501 910 q 644 903 578 903 q 758 905 711 904 q 821 906 806 906 q 829 897 829 906 q 817 876 829 889 q 776 858 804 863 l 485 858 q 442 703 461 792 q 408 518 422 614 q 383 333 393 422 q 369 172 374 243 q 364 65 364 101 q 370 42 367 47 q 374 29 374 38 q 360 -1 374 10 q 331 -11 346 -11 m 188 -361 q 178 -356 182 -361 q 175 -346 175 -351 q 191 -331 175 -333 q 231 -326 207 -328 q 280 -319 256 -325 q 320 -294 304 -312 q 336 -239 336 -276 q 318 -194 336 -218 q 282 -143 300 -169 q 264 -90 264 -117 q 289 -8 264 -47 q 361 31 314 31 q 372 29 367 31 q 378 21 376 28 q 331 -11 347 15 q 314 -67 314 -37 q 334 -110 314 -86 q 374 -161 354 -133 q 394 -224 394 -189 q 359 -303 394 -272 q 276 -347 324 -333 q 188 -361 228 -361 z "},"U":{"ha":897,"x_min":78,"x_max":840,"o":"m 664 -11 q 631 19 631 -11 q 652 253 642 139 q 676 479 663 368 q 534 246 604 339 q 401 99 464 153 q 290 22 339 44 q 210 -1 240 -1 q 133 35 163 -1 q 91 132 104 71 q 78 268 78 193 q 90 437 78 349 q 122 608 101 525 q 165 760 142 692 q 157 775 157 763 q 169 821 157 793 q 195 873 181 849 q 218 904 210 897 q 248 920 233 915 q 275 925 263 925 q 302 918 292 925 q 313 901 313 911 q 307 889 313 894 q 255 808 279 864 q 211 685 231 753 q 178 552 192 617 q 161 444 165 488 q 151 342 156 390 q 146 250 146 293 q 167 108 146 161 q 243 54 189 54 q 356 108 288 54 q 525 297 425 163 q 624 457 582 374 q 691 619 667 540 q 715 760 715 699 l 715 790 q 739 874 715 836 q 819 913 763 913 q 840 899 840 913 l 840 896 q 790 743 813 831 q 749 560 767 656 q 721 375 732 465 q 704 213 710 285 q 699 100 699 140 q 710 60 710 85 q 664 -11 710 -11 z "},"Ú":{"ha":897,"x_min":78,"x_max":840,"o":"m 664 -11 q 631 19 631 -11 q 652 253 642 139 q 676 479 663 368 q 534 246 604 339 q 401 99 464 153 q 290 22 339 44 q 210 -1 240 -1 q 133 35 163 -1 q 91 132 104 71 q 78 268 78 193 q 90 437 78 349 q 122 608 101 525 q 165 760 142 692 q 157 775 157 763 q 169 821 157 793 q 195 873 181 849 q 218 904 210 897 q 248 920 233 915 q 275 925 263 925 q 302 918 292 925 q 313 901 313 911 q 307 889 313 894 q 255 808 279 864 q 211 685 231 753 q 178 552 192 617 q 161 444 165 488 q 151 342 156 390 q 146 250 146 293 q 167 108 146 161 q 243 54 189 54 q 356 108 288 54 q 525 297 425 163 q 624 457 582 374 q 691 619 667 540 q 715 760 715 699 l 715 790 q 739 874 715 836 q 819 913 763 913 q 840 899 840 913 l 840 896 q 790 743 813 831 q 749 560 767 656 q 721 375 732 465 q 704 213 710 285 q 699 100 699 140 q 710 60 710 85 q 664 -11 710 -11 m 414 975 q 410 979 410 975 q 438 1012 410 988 q 511 1069 467 1037 q 600 1132 554 1102 q 613 1137 607 1137 q 634 1125 626 1137 q 640 1101 642 1112 l 640 1098 q 630 1082 640 1088 q 573 1052 611 1071 q 493 1012 534 1032 q 421 976 451 992 q 414 975 418 975 z "},"Û":{"ha":897,"x_min":78,"x_max":840,"o":"m 664 -11 q 631 19 631 -11 q 652 253 642 139 q 676 479 663 368 q 534 246 604 339 q 401 99 464 153 q 290 22 339 44 q 210 -1 240 -1 q 133 35 163 -1 q 91 132 104 71 q 78 268 78 193 q 90 437 78 349 q 122 608 101 525 q 165 760 142 692 q 157 775 157 763 q 169 821 157 793 q 195 873 181 849 q 218 904 210 897 q 248 920 233 915 q 275 925 263 925 q 302 918 292 925 q 313 901 313 911 q 307 889 313 894 q 255 808 279 864 q 211 685 231 753 q 178 552 192 617 q 161 444 165 488 q 151 342 156 390 q 146 250 146 293 q 167 108 146 161 q 243 54 189 54 q 356 108 288 54 q 525 297 425 163 q 624 457 582 374 q 691 619 667 540 q 715 760 715 699 l 715 790 q 739 874 715 836 q 819 913 763 913 q 840 899 840 913 l 840 896 q 790 743 813 831 q 749 560 767 656 q 721 375 732 465 q 704 213 710 285 q 699 100 699 140 q 710 60 710 85 q 664 -11 710 -11 m 382 1010 q 381 1011 379 1010 q 440 1064 406 1036 q 539 1129 475 1092 l 547 1133 l 550 1133 q 558 1129 554 1133 q 626 1067 603 1094 q 671 1014 650 1040 q 667 1010 675 1010 q 664 1011 665 1010 q 606 1046 638 1031 q 539 1069 575 1061 q 463 1040 504 1060 q 388 1011 421 1021 q 382 1010 385 1010 z "},"Ü":{"ha":897,"x_min":78,"x_max":840,"o":"m 664 -11 q 631 19 631 -11 q 652 253 642 139 q 676 479 663 368 q 534 246 604 339 q 401 99 464 153 q 290 22 339 44 q 210 -1 240 -1 q 133 35 163 -1 q 91 132 104 71 q 78 268 78 193 q 90 437 78 349 q 122 608 101 525 q 165 760 142 692 q 157 775 157 763 q 169 821 157 793 q 195 873 181 849 q 218 904 210 897 q 248 920 233 915 q 275 925 263 925 q 302 918 292 925 q 313 901 313 911 q 307 889 313 894 q 255 808 279 864 q 211 685 231 753 q 178 552 192 617 q 161 444 165 488 q 151 342 156 390 q 146 250 146 293 q 167 108 146 161 q 243 54 189 54 q 356 108 288 54 q 525 297 425 163 q 624 457 582 374 q 691 619 667 540 q 715 760 715 699 l 715 790 q 739 874 715 836 q 819 913 763 913 q 840 899 840 913 l 840 896 q 790 743 813 831 q 749 560 767 656 q 721 375 732 465 q 704 213 710 285 q 699 100 699 140 q 710 60 710 85 q 664 -11 710 -11 m 585 993 q 564 1005 568 993 q 560 1031 560 1017 q 584 1079 560 1056 q 631 1103 608 1103 q 639 1099 638 1103 q 631 1055 639 1081 q 622 1022 622 1029 q 609 1002 622 1008 q 585 993 596 996 m 435 993 q 416 1005 421 993 q 411 1031 411 1017 q 435 1079 411 1056 q 482 1103 458 1103 q 489 1099 488 1103 q 481 1055 489 1081 q 472 1022 472 1029 q 459 1002 472 1008 q 435 993 446 996 z "},"Ụ":{"ha":897,"x_min":78,"x_max":840,"o":"m 664 -11 q 631 19 631 -11 q 652 253 642 139 q 676 479 663 368 q 534 246 604 339 q 401 99 464 153 q 290 22 339 44 q 210 -1 240 -1 q 133 35 163 -1 q 91 132 104 71 q 78 268 78 193 q 90 437 78 349 q 122 608 101 525 q 165 760 142 692 q 157 775 157 763 q 169 821 157 793 q 195 873 181 849 q 218 904 210 897 q 248 920 233 915 q 275 925 263 925 q 302 918 292 925 q 313 901 313 911 q 307 889 313 894 q 255 808 279 864 q 211 685 231 753 q 178 552 192 617 q 161 444 165 488 q 151 342 156 390 q 146 250 146 293 q 167 108 146 161 q 243 54 189 54 q 356 108 288 54 q 525 297 425 163 q 624 457 582 374 q 691 619 667 540 q 715 760 715 699 l 715 790 q 739 874 715 836 q 819 913 763 913 q 840 899 840 913 l 840 896 q 790 743 813 831 q 749 560 767 656 q 721 375 732 465 q 704 213 710 285 q 699 100 699 140 q 710 60 710 85 q 664 -11 710 -11 m 221 -173 q 203 -160 212 -173 q 195 -141 195 -148 q 213 -114 195 -128 q 254 -89 232 -100 q 289 -78 277 -78 q 293 -79 292 -78 l 293 -78 q 294 -79 293 -79 q 294 -80 294 -80 q 286 -89 294 -81 q 276 -99 278 -96 q 262 -126 268 -107 q 246 -158 256 -144 q 221 -173 237 -173 z "},"Ù":{"ha":897,"x_min":78,"x_max":840,"o":"m 664 -11 q 631 19 631 -11 q 652 253 642 139 q 676 479 663 368 q 534 246 604 339 q 401 99 464 153 q 290 22 339 44 q 210 -1 240 -1 q 133 35 163 -1 q 91 132 104 71 q 78 268 78 193 q 90 437 78 349 q 122 608 101 525 q 165 760 142 692 q 157 775 157 763 q 169 821 157 793 q 195 873 181 849 q 218 904 210 897 q 248 920 233 915 q 275 925 263 925 q 302 918 292 925 q 313 901 313 911 q 307 889 313 894 q 255 808 279 864 q 211 685 231 753 q 178 552 192 617 q 161 444 165 488 q 151 342 156 390 q 146 250 146 293 q 167 108 146 161 q 243 54 189 54 q 356 108 288 54 q 525 297 425 163 q 624 457 582 374 q 691 619 667 540 q 715 760 715 699 l 715 790 q 739 874 715 836 q 819 913 763 913 q 840 899 840 913 l 840 896 q 790 743 813 831 q 749 560 767 656 q 721 375 732 465 q 704 213 710 285 q 699 100 699 140 q 710 60 710 85 q 664 -11 710 -11 m 636 969 q 640 974 640 969 q 612 1007 640 982 q 539 1064 583 1031 q 450 1127 496 1097 q 437 1131 443 1131 q 416 1119 424 1131 q 410 1095 408 1107 l 410 1093 q 420 1077 410 1083 q 477 1046 439 1065 q 557 1007 516 1027 q 629 971 599 987 q 636 969 632 969 z "},"Ủ":{"ha":897,"x_min":78,"x_max":840,"o":"m 664 -11 q 631 19 631 -11 q 652 253 642 139 q 676 479 663 368 q 534 246 604 339 q 401 99 464 153 q 290 22 339 44 q 210 -1 240 -1 q 133 35 163 -1 q 91 132 104 71 q 78 268 78 193 q 90 437 78 349 q 122 608 101 525 q 165 760 142 692 q 157 775 157 763 q 169 821 157 793 q 195 873 181 849 q 218 904 210 897 q 248 920 233 915 q 275 925 263 925 q 302 918 292 925 q 313 901 313 911 q 307 889 313 894 q 255 808 279 864 q 211 685 231 753 q 178 552 192 617 q 161 444 165 488 q 151 342 156 390 q 146 250 146 293 q 167 108 146 161 q 243 54 189 54 q 356 108 288 54 q 525 297 425 163 q 624 457 582 374 q 691 619 667 540 q 715 760 715 699 l 715 790 q 739 874 715 836 q 819 913 763 913 q 840 899 840 913 l 840 896 q 790 743 813 831 q 749 560 767 656 q 721 375 732 465 q 704 213 710 285 q 699 100 699 140 q 710 60 710 85 q 664 -11 710 -11 m 510 997 q 541 1032 532 1017 q 550 1075 550 1047 q 526 1100 550 1100 q 477 1092 499 1100 q 456 1083 456 1083 q 450 1093 446 1083 q 476 1120 457 1110 q 518 1135 496 1131 q 553 1142 540 1140 q 560 1142 557 1142 q 567 1143 564 1143 q 599 1130 589 1143 q 610 1103 610 1117 q 602 1072 610 1090 q 588 1039 594 1054 q 555 1001 575 1014 q 522 988 535 988 q 510 997 510 988 z "},"Ư":{"ha":897,"x_min":78,"x_max":1013,"o":"m 664 -11 q 631 19 631 -11 q 652 253 642 139 q 676 479 663 368 q 534 246 604 339 q 401 99 464 153 q 290 22 339 44 q 210 -1 240 -1 q 133 35 163 -1 q 91 132 104 71 q 78 268 78 193 q 90 437 78 349 q 122 608 101 525 q 165 760 142 692 q 157 775 157 763 q 169 821 157 793 q 195 873 181 849 q 218 904 210 897 q 248 920 233 915 q 275 925 263 925 q 302 918 292 925 q 313 901 313 911 q 307 889 313 894 q 255 808 279 864 q 211 685 231 753 q 178 552 192 617 q 161 444 165 488 q 151 342 156 390 q 146 250 146 293 q 167 108 146 161 q 243 54 189 54 q 356 108 288 54 q 525 297 425 163 q 624 457 582 374 q 691 619 667 540 q 715 760 715 699 l 715 790 q 739 874 715 836 q 819 913 763 913 q 840 899 840 913 l 840 896 q 790 743 813 831 q 749 560 767 656 q 721 375 732 465 q 704 213 710 285 q 699 100 699 140 q 710 60 710 85 q 664 -11 710 -11 m 868 835 l 861 835 q 828 844 843 835 q 804 875 808 858 q 810 889 801 889 q 813 885 810 889 q 825 872 817 881 q 858 856 840 856 q 918 894 886 856 q 981 1010 950 933 q 1001 1036 990 1036 q 1013 1008 1013 1036 q 1009 982 1013 997 q 999 951 1006 967 q 936 867 972 894 q 868 835 900 839 z "},"Ứ":{"ha":897,"x_min":78,"x_max":1013,"o":"m 664 -11 q 631 19 631 -11 q 652 253 642 139 q 676 479 663 368 q 534 246 604 339 q 401 99 464 153 q 290 22 339 44 q 210 -1 240 -1 q 133 35 163 -1 q 91 132 104 71 q 78 268 78 193 q 90 437 78 349 q 122 608 101 525 q 165 760 142 692 q 157 775 157 763 q 169 821 157 793 q 195 873 181 849 q 218 904 210 897 q 248 920 233 915 q 275 925 263 925 q 302 918 292 925 q 313 901 313 911 q 307 889 313 894 q 255 808 279 864 q 211 685 231 753 q 178 552 192 617 q 161 444 165 488 q 151 342 156 390 q 146 250 146 293 q 167 108 146 161 q 243 54 189 54 q 356 108 288 54 q 525 297 425 163 q 624 457 582 374 q 691 619 667 540 q 715 760 715 699 l 715 790 q 739 874 715 836 q 819 913 763 913 q 840 899 840 913 l 840 896 q 790 743 813 831 q 749 560 767 656 q 721 375 732 465 q 704 213 710 285 q 699 100 699 140 q 710 60 710 85 q 664 -11 710 -11 m 868 835 l 861 835 q 828 844 843 835 q 804 875 808 858 q 810 889 801 889 q 813 885 810 889 q 825 872 817 881 q 858 856 840 856 q 918 894 886 856 q 981 1010 950 933 q 1001 1036 990 1036 q 1013 1008 1013 1036 q 1009 982 1013 997 q 999 951 1006 967 q 936 867 972 894 q 868 835 900 839 m 414 975 q 410 979 410 975 q 438 1012 410 988 q 511 1069 467 1037 q 600 1132 554 1102 q 613 1137 607 1137 q 634 1125 626 1137 q 640 1101 642 1112 l 640 1098 q 630 1082 640 1088 q 573 1052 611 1071 q 493 1012 534 1032 q 421 976 451 992 q 414 975 418 975 z "},"Ự":{"ha":897,"x_min":78,"x_max":1013,"o":"m 664 -11 q 631 19 631 -11 q 652 253 642 139 q 676 479 663 368 q 534 246 604 339 q 401 99 464 153 q 290 22 339 44 q 210 -1 240 -1 q 133 35 163 -1 q 91 132 104 71 q 78 268 78 193 q 90 437 78 349 q 122 608 101 525 q 165 760 142 692 q 157 775 157 763 q 169 821 157 793 q 195 873 181 849 q 218 904 210 897 q 248 920 233 915 q 275 925 263 925 q 302 918 292 925 q 313 901 313 911 q 307 889 313 894 q 255 808 279 864 q 211 685 231 753 q 178 552 192 617 q 161 444 165 488 q 151 342 156 390 q 146 250 146 293 q 167 108 146 161 q 243 54 189 54 q 356 108 288 54 q 525 297 425 163 q 624 457 582 374 q 691 619 667 540 q 715 760 715 699 l 715 790 q 739 874 715 836 q 819 913 763 913 q 840 899 840 913 l 840 896 q 790 743 813 831 q 749 560 767 656 q 721 375 732 465 q 704 213 710 285 q 699 100 699 140 q 710 60 710 85 q 664 -11 710 -11 m 868 835 l 861 835 q 828 844 843 835 q 804 875 808 858 q 810 889 801 889 q 813 885 810 889 q 825 872 817 881 q 858 856 840 856 q 918 894 886 856 q 981 1010 950 933 q 1001 1036 990 1036 q 1013 1008 1013 1036 q 1009 982 1013 997 q 999 951 1006 967 q 936 867 972 894 q 868 835 900 839 m 221 -173 q 203 -160 212 -173 q 195 -141 195 -148 q 213 -114 195 -128 q 254 -89 232 -100 q 289 -78 277 -78 q 293 -79 292 -78 l 293 -78 q 294 -79 293 -79 q 294 -80 294 -80 q 286 -89 294 -81 q 276 -99 278 -96 q 262 -126 268 -107 q 246 -158 256 -144 q 221 -173 237 -173 z "},"Ừ":{"ha":897,"x_min":78,"x_max":1013,"o":"m 664 -11 q 631 19 631 -11 q 652 253 642 139 q 676 479 663 368 q 534 246 604 339 q 401 99 464 153 q 290 22 339 44 q 210 -1 240 -1 q 133 35 163 -1 q 91 132 104 71 q 78 268 78 193 q 90 437 78 349 q 122 608 101 525 q 165 760 142 692 q 157 775 157 763 q 169 821 157 793 q 195 873 181 849 q 218 904 210 897 q 248 920 233 915 q 275 925 263 925 q 302 918 292 925 q 313 901 313 911 q 307 889 313 894 q 255 808 279 864 q 211 685 231 753 q 178 552 192 617 q 161 444 165 488 q 151 342 156 390 q 146 250 146 293 q 167 108 146 161 q 243 54 189 54 q 356 108 288 54 q 525 297 425 163 q 624 457 582 374 q 691 619 667 540 q 715 760 715 699 l 715 790 q 739 874 715 836 q 819 913 763 913 q 840 899 840 913 l 840 896 q 790 743 813 831 q 749 560 767 656 q 721 375 732 465 q 704 213 710 285 q 699 100 699 140 q 710 60 710 85 q 664 -11 710 -11 m 868 835 l 861 835 q 828 844 843 835 q 804 875 808 858 q 810 889 801 889 q 813 885 810 889 q 825 872 817 881 q 858 856 840 856 q 918 894 886 856 q 981 1010 950 933 q 1001 1036 990 1036 q 1013 1008 1013 1036 q 1009 982 1013 997 q 999 951 1006 967 q 936 867 972 894 q 868 835 900 839 m 636 969 q 640 974 640 969 q 612 1007 640 982 q 539 1064 583 1031 q 450 1127 496 1097 q 437 1131 443 1131 q 416 1119 424 1131 q 410 1095 408 1107 l 410 1093 q 420 1077 410 1083 q 477 1046 439 1065 q 557 1007 516 1027 q 629 971 599 987 q 636 969 632 969 z "},"Ử":{"ha":897,"x_min":78,"x_max":1013,"o":"m 664 -11 q 631 19 631 -11 q 652 253 642 139 q 676 479 663 368 q 534 246 604 339 q 401 99 464 153 q 290 22 339 44 q 210 -1 240 -1 q 133 35 163 -1 q 91 132 104 71 q 78 268 78 193 q 90 437 78 349 q 122 608 101 525 q 165 760 142 692 q 157 775 157 763 q 169 821 157 793 q 195 873 181 849 q 218 904 210 897 q 248 920 233 915 q 275 925 263 925 q 302 918 292 925 q 313 901 313 911 q 307 889 313 894 q 255 808 279 864 q 211 685 231 753 q 178 552 192 617 q 161 444 165 488 q 151 342 156 390 q 146 250 146 293 q 167 108 146 161 q 243 54 189 54 q 356 108 288 54 q 525 297 425 163 q 624 457 582 374 q 691 619 667 540 q 715 760 715 699 l 715 790 q 739 874 715 836 q 819 913 763 913 q 840 899 840 913 l 840 896 q 790 743 813 831 q 749 560 767 656 q 721 375 732 465 q 704 213 710 285 q 699 100 699 140 q 710 60 710 85 q 664 -11 710 -11 m 868 835 l 861 835 q 828 844 843 835 q 804 875 808 858 q 810 889 801 889 q 813 885 810 889 q 825 872 817 881 q 858 856 840 856 q 918 894 886 856 q 981 1010 950 933 q 1001 1036 990 1036 q 1013 1008 1013 1036 q 1009 982 1013 997 q 999 951 1006 967 q 936 867 972 894 q 868 835 900 839 m 510 997 q 541 1032 532 1017 q 550 1075 550 1047 q 526 1100 550 1100 q 477 1092 499 1100 q 456 1083 456 1083 q 450 1093 446 1083 q 476 1120 457 1110 q 518 1135 496 1131 q 553 1142 540 1140 q 560 1142 557 1142 q 567 1143 564 1143 q 599 1130 589 1143 q 610 1103 610 1117 q 602 1072 610 1090 q 588 1039 594 1054 q 555 1001 575 1014 q 522 988 535 988 q 510 997 510 988 z "},"Ữ":{"ha":897,"x_min":78,"x_max":1013,"o":"m 664 -11 q 631 19 631 -11 q 652 253 642 139 q 676 479 663 368 q 534 246 604 339 q 401 99 464 153 q 290 22 339 44 q 210 -1 240 -1 q 133 35 163 -1 q 91 132 104 71 q 78 268 78 193 q 90 437 78 349 q 122 608 101 525 q 165 760 142 692 q 157 775 157 763 q 169 821 157 793 q 195 873 181 849 q 218 904 210 897 q 248 920 233 915 q 275 925 263 925 q 302 918 292 925 q 313 901 313 911 q 307 889 313 894 q 255 808 279 864 q 211 685 231 753 q 178 552 192 617 q 161 444 165 488 q 151 342 156 390 q 146 250 146 293 q 167 108 146 161 q 243 54 189 54 q 356 108 288 54 q 525 297 425 163 q 624 457 582 374 q 691 619 667 540 q 715 760 715 699 l 715 790 q 739 874 715 836 q 819 913 763 913 q 840 899 840 913 l 840 896 q 790 743 813 831 q 749 560 767 656 q 721 375 732 465 q 704 213 710 285 q 699 100 699 140 q 710 60 710 85 q 664 -11 710 -11 m 868 835 l 861 835 q 828 844 843 835 q 804 875 808 858 q 810 889 801 889 q 813 885 810 889 q 825 872 817 881 q 858 856 840 856 q 918 894 886 856 q 981 1010 950 933 q 1001 1036 990 1036 q 1013 1008 1013 1036 q 1009 982 1013 997 q 999 951 1006 967 q 936 867 972 894 q 868 835 900 839 m 585 975 q 539 985 562 975 q 494 1004 516 995 q 449 1013 472 1013 q 415 1004 428 1013 q 393 986 402 995 q 375 977 384 977 q 372 980 372 977 q 384 999 372 987 q 411 1023 397 1012 q 431 1037 426 1034 q 481 1051 453 1051 q 546 1036 515 1051 q 611 1021 578 1021 q 644 1029 630 1021 q 669 1051 658 1037 q 677 1045 677 1051 q 656 1009 677 1024 q 612 985 634 994 q 585 975 590 975 z "},"Ű":{"ha":897,"x_min":78,"x_max":840,"o":"m 664 -11 q 631 19 631 -11 q 652 253 642 139 q 676 479 663 368 q 534 246 604 339 q 401 99 464 153 q 290 22 339 44 q 210 -1 240 -1 q 133 35 163 -1 q 91 132 104 71 q 78 268 78 193 q 90 437 78 349 q 122 608 101 525 q 165 760 142 692 q 157 775 157 763 q 169 821 157 793 q 195 873 181 849 q 218 904 210 897 q 248 920 233 915 q 275 925 263 925 q 302 918 292 925 q 313 901 313 911 q 307 889 313 894 q 255 808 279 864 q 211 685 231 753 q 178 552 192 617 q 161 444 165 488 q 151 342 156 390 q 146 250 146 293 q 167 108 146 161 q 243 54 189 54 q 356 108 288 54 q 525 297 425 163 q 624 457 582 374 q 691 619 667 540 q 715 760 715 699 l 715 790 q 739 874 715 836 q 819 913 763 913 q 840 899 840 913 l 840 896 q 790 743 813 831 q 749 560 767 656 q 721 375 732 465 q 704 213 710 285 q 699 100 699 140 q 710 60 710 85 q 664 -11 710 -11 m 613 992 q 606 1010 606 992 q 610 1029 606 1019 q 624 1073 615 1043 q 644 1129 632 1103 q 672 1156 657 1156 q 699 1144 688 1156 q 711 1121 711 1133 q 708 1111 711 1117 q 691 1083 704 1103 q 662 1042 678 1064 q 632 1006 646 1021 q 613 992 618 992 m 439 992 q 432 1008 432 992 q 436 1029 432 1019 q 450 1073 442 1043 q 471 1129 458 1103 q 499 1156 483 1156 q 526 1144 514 1156 q 538 1121 538 1133 q 535 1111 538 1117 q 517 1082 531 1101 q 488 1042 504 1063 q 459 1006 472 1021 q 439 992 446 992 z "},"Ū":{"ha":897,"x_min":78,"x_max":840,"o":"m 664 -11 q 631 19 631 -11 q 652 253 642 139 q 676 479 663 368 q 534 246 604 339 q 401 99 464 153 q 290 22 339 44 q 210 -1 240 -1 q 133 35 163 -1 q 91 132 104 71 q 78 268 78 193 q 90 437 78 349 q 122 608 101 525 q 165 760 142 692 q 157 775 157 763 q 169 821 157 793 q 195 873 181 849 q 218 904 210 897 q 248 920 233 915 q 275 925 263 925 q 302 918 292 925 q 313 901 313 911 q 307 889 313 894 q 255 808 279 864 q 211 685 231 753 q 178 552 192 617 q 161 444 165 488 q 151 342 156 390 q 146 250 146 293 q 167 108 146 161 q 243 54 189 54 q 356 108 288 54 q 525 297 425 163 q 624 457 582 374 q 691 619 667 540 q 715 760 715 699 l 715 790 q 739 874 715 836 q 819 913 763 913 q 840 899 840 913 l 840 896 q 790 743 813 831 q 749 560 767 656 q 721 375 732 465 q 704 213 710 285 q 699 100 699 140 q 710 60 710 85 q 664 -11 710 -11 m 424 999 q 397 1001 404 999 q 389 1007 389 1004 q 407 1023 389 1017 q 450 1033 425 1029 q 496 1038 475 1038 q 561 1035 522 1038 q 631 1026 600 1032 q 661 1013 661 1021 q 645 1002 661 1006 q 625 999 629 999 l 424 999 z "},"Ų":{"ha":897,"x_min":78,"x_max":840,"o":"m 664 -11 q 631 19 631 -11 q 652 253 642 139 q 676 479 663 368 q 534 246 604 339 q 401 99 464 153 q 290 22 339 44 q 210 -1 240 -1 q 133 35 163 -1 q 91 132 104 71 q 78 268 78 193 q 90 437 78 349 q 122 608 101 525 q 165 760 142 692 q 157 775 157 763 q 169 821 157 793 q 195 873 181 849 q 218 904 210 897 q 248 920 233 915 q 275 925 263 925 q 302 918 292 925 q 313 901 313 911 q 307 889 313 894 q 255 808 279 864 q 211 685 231 753 q 178 552 192 617 q 161 444 165 488 q 151 342 156 390 q 146 250 146 293 q 167 108 146 161 q 243 54 189 54 q 356 108 288 54 q 525 297 425 163 q 624 457 582 374 q 691 619 667 540 q 715 760 715 699 l 715 790 q 739 874 715 836 q 819 913 763 913 q 840 899 840 913 l 840 896 q 790 743 813 831 q 749 560 767 656 q 721 375 732 465 q 704 213 710 285 q 699 100 699 140 q 710 60 710 85 q 664 -11 710 -11 m 672 -210 q 605 -197 629 -210 q 581 -151 581 -183 q 588 -112 581 -137 q 606 -59 594 -86 q 633 -12 618 -32 q 664 13 647 8 q 674 14 668 14 q 685 8 681 14 q 652 -50 669 -14 q 635 -114 635 -86 q 688 -171 635 -171 q 729 -162 707 -171 q 769 -147 751 -154 q 792 -139 788 -139 q 807 -151 807 -139 q 790 -178 807 -167 q 749 -196 772 -189 q 703 -206 725 -203 q 672 -210 682 -210 z "},"Ů":{"ha":897,"x_min":78,"x_max":840,"o":"m 664 -11 q 631 19 631 -11 q 652 253 642 139 q 676 479 663 368 q 534 246 604 339 q 401 99 464 153 q 290 22 339 44 q 210 -1 240 -1 q 133 35 163 -1 q 91 132 104 71 q 78 268 78 193 q 90 437 78 349 q 122 608 101 525 q 165 760 142 692 q 157 775 157 763 q 169 821 157 793 q 195 873 181 849 q 218 904 210 897 q 248 920 233 915 q 275 925 263 925 q 302 918 292 925 q 313 901 313 911 q 307 889 313 894 q 255 808 279 864 q 211 685 231 753 q 178 552 192 617 q 161 444 165 488 q 151 342 156 390 q 146 250 146 293 q 167 108 146 161 q 243 54 189 54 q 356 108 288 54 q 525 297 425 163 q 624 457 582 374 q 691 619 667 540 q 715 760 715 699 l 715 790 q 739 874 715 836 q 819 913 763 913 q 840 899 840 913 l 840 896 q 790 743 813 831 q 749 560 767 656 q 721 375 732 465 q 704 213 710 285 q 699 100 699 140 q 710 60 710 85 q 664 -11 710 -11 m 526 993 q 474 1008 496 993 q 453 1049 453 1024 q 476 1099 453 1071 q 533 1149 499 1128 q 604 1171 568 1171 q 661 1149 640 1171 q 682 1099 682 1126 q 637 1019 682 1046 q 526 993 592 993 m 547 1021 q 610 1039 588 1021 q 632 1099 632 1057 q 593 1149 632 1149 q 554 1134 575 1149 q 518 1099 533 1119 q 503 1063 503 1079 q 547 1021 503 1021 z "},"Ũ":{"ha":897,"x_min":78,"x_max":840,"o":"m 664 -11 q 631 19 631 -11 q 652 253 642 139 q 676 479 663 368 q 534 246 604 339 q 401 99 464 153 q 290 22 339 44 q 210 -1 240 -1 q 133 35 163 -1 q 91 132 104 71 q 78 268 78 193 q 90 437 78 349 q 122 608 101 525 q 165 760 142 692 q 157 775 157 763 q 169 821 157 793 q 195 873 181 849 q 218 904 210 897 q 248 920 233 915 q 275 925 263 925 q 302 918 292 925 q 313 901 313 911 q 307 889 313 894 q 255 808 279 864 q 211 685 231 753 q 178 552 192 617 q 161 444 165 488 q 151 342 156 390 q 146 250 146 293 q 167 108 146 161 q 243 54 189 54 q 356 108 288 54 q 525 297 425 163 q 624 457 582 374 q 691 619 667 540 q 715 760 715 699 l 715 790 q 739 874 715 836 q 819 913 763 913 q 840 899 840 913 l 840 896 q 790 743 813 831 q 749 560 767 656 q 721 375 732 465 q 704 213 710 285 q 699 100 699 140 q 710 60 710 85 q 664 -11 710 -11 m 585 975 q 539 985 562 975 q 494 1004 516 995 q 449 1013 472 1013 q 415 1004 428 1013 q 393 986 402 995 q 375 977 384 977 q 372 980 372 977 q 384 999 372 987 q 411 1023 397 1012 q 431 1037 426 1034 q 481 1051 453 1051 q 546 1036 515 1051 q 611 1021 578 1021 q 644 1029 630 1021 q 669 1051 658 1037 q 677 1045 677 1051 q 656 1009 677 1024 q 612 985 634 994 q 585 975 590 975 z "},"V":{"ha":782,"x_min":94,"x_max":801,"o":"m 256 -4 q 162 53 197 -4 q 110 201 126 110 q 94 397 94 293 q 105 585 94 492 q 133 753 115 678 q 124 774 124 754 q 143 862 124 828 q 188 913 163 896 q 229 929 213 929 q 264 907 264 929 q 260 894 264 901 q 228 827 243 874 q 202 720 214 781 q 182 599 190 660 q 169 485 174 538 q 165 404 165 433 q 176 224 165 303 q 212 99 186 144 q 285 54 238 54 q 354 78 315 54 q 444 165 393 103 q 557 338 494 226 q 626 481 593 403 q 685 639 660 560 q 726 785 711 718 q 740 892 740 851 q 737 928 740 915 q 733 950 733 942 q 741 963 733 956 q 772 971 749 971 q 795 957 789 971 q 801 922 801 943 q 788 835 801 892 q 751 708 774 778 q 700 564 728 638 q 644 425 672 490 q 590 313 615 360 q 454 120 517 189 q 342 24 392 51 q 256 -4 292 -4 z "},"W":{"ha":1274,"x_min":78,"x_max":1214,"o":"m 210 -1 q 133 35 163 -1 q 91 132 104 71 q 78 268 78 193 q 90 437 78 349 q 122 608 101 525 q 165 760 142 692 q 157 775 157 763 q 169 821 157 793 q 195 873 181 849 q 218 904 210 897 q 248 920 233 915 q 275 925 263 925 q 302 918 292 925 q 313 901 313 911 q 307 889 313 894 q 255 808 279 864 q 211 685 231 753 q 178 552 192 617 q 161 444 165 488 q 151 342 156 390 q 146 250 146 293 q 167 108 146 161 q 243 54 189 54 q 306 82 265 54 q 397 170 346 110 q 501 328 447 231 q 603 568 556 426 q 619 669 610 621 q 642 758 629 717 q 629 778 629 763 q 646 831 629 810 q 684 862 663 851 q 719 872 706 872 q 749 865 738 872 q 760 847 760 857 q 754 836 760 842 q 713 765 732 814 q 681 651 694 717 q 659 511 667 585 q 651 365 651 438 q 663 211 651 282 q 701 97 675 140 q 767 54 726 54 q 869 115 813 54 q 1001 329 926 176 q 1078 515 1046 418 q 1129 701 1111 613 q 1147 851 1147 789 q 1146 883 1147 871 q 1144 904 1144 896 q 1149 922 1144 914 q 1172 929 1154 929 q 1205 906 1196 929 q 1214 847 1214 882 q 1198 731 1214 800 q 1156 587 1182 663 q 1102 442 1131 511 q 1049 322 1074 372 q 935 136 993 207 q 825 33 876 65 q 738 0 774 0 q 648 47 682 0 q 599 174 614 94 q 585 346 585 253 q 589 446 585 396 q 485 227 540 314 q 376 90 429 140 q 278 19 322 40 q 210 -1 235 -1 z "},"Ẃ":{"ha":1274,"x_min":78,"x_max":1214,"o":"m 210 -1 q 133 35 163 -1 q 91 132 104 71 q 78 268 78 193 q 90 437 78 349 q 122 608 101 525 q 165 760 142 692 q 157 775 157 763 q 169 821 157 793 q 195 873 181 849 q 218 904 210 897 q 248 920 233 915 q 275 925 263 925 q 302 918 292 925 q 313 901 313 911 q 307 889 313 894 q 255 808 279 864 q 211 685 231 753 q 178 552 192 617 q 161 444 165 488 q 151 342 156 390 q 146 250 146 293 q 167 108 146 161 q 243 54 189 54 q 306 82 265 54 q 397 170 346 110 q 501 328 447 231 q 603 568 556 426 q 619 669 610 621 q 642 758 629 717 q 629 778 629 763 q 646 831 629 810 q 684 862 663 851 q 719 872 706 872 q 749 865 738 872 q 760 847 760 857 q 754 836 760 842 q 713 765 732 814 q 681 651 694 717 q 659 511 667 585 q 651 365 651 438 q 663 211 651 282 q 701 97 675 140 q 767 54 726 54 q 869 115 813 54 q 1001 329 926 176 q 1078 515 1046 418 q 1129 701 1111 613 q 1147 851 1147 789 q 1146 883 1147 871 q 1144 904 1144 896 q 1149 922 1144 914 q 1172 929 1154 929 q 1205 906 1196 929 q 1214 847 1214 882 q 1198 731 1214 800 q 1156 587 1182 663 q 1102 442 1131 511 q 1049 322 1074 372 q 935 136 993 207 q 825 33 876 65 q 738 0 774 0 q 648 47 682 0 q 599 174 614 94 q 585 346 585 253 q 589 446 585 396 q 485 227 540 314 q 376 90 429 140 q 278 19 322 40 q 210 -1 235 -1 m 596 975 q 592 979 592 975 q 620 1012 592 988 q 693 1069 649 1037 q 782 1132 736 1102 q 795 1137 789 1137 q 816 1125 808 1137 q 822 1101 823 1112 l 822 1098 q 812 1082 822 1088 q 755 1052 793 1071 q 675 1012 716 1032 q 603 976 633 992 q 596 975 600 975 z "},"Ŵ":{"ha":1274,"x_min":78,"x_max":1214,"o":"m 210 -1 q 133 35 163 -1 q 91 132 104 71 q 78 268 78 193 q 90 437 78 349 q 122 608 101 525 q 165 760 142 692 q 157 775 157 763 q 169 821 157 793 q 195 873 181 849 q 218 904 210 897 q 248 920 233 915 q 275 925 263 925 q 302 918 292 925 q 313 901 313 911 q 307 889 313 894 q 255 808 279 864 q 211 685 231 753 q 178 552 192 617 q 161 444 165 488 q 151 342 156 390 q 146 250 146 293 q 167 108 146 161 q 243 54 189 54 q 306 82 265 54 q 397 170 346 110 q 501 328 447 231 q 603 568 556 426 q 619 669 610 621 q 642 758 629 717 q 629 778 629 763 q 646 831 629 810 q 684 862 663 851 q 719 872 706 872 q 749 865 738 872 q 760 847 760 857 q 754 836 760 842 q 713 765 732 814 q 681 651 694 717 q 659 511 667 585 q 651 365 651 438 q 663 211 651 282 q 701 97 675 140 q 767 54 726 54 q 869 115 813 54 q 1001 329 926 176 q 1078 515 1046 418 q 1129 701 1111 613 q 1147 851 1147 789 q 1146 883 1147 871 q 1144 904 1144 896 q 1149 922 1144 914 q 1172 929 1154 929 q 1205 906 1196 929 q 1214 847 1214 882 q 1198 731 1214 800 q 1156 587 1182 663 q 1102 442 1131 511 q 1049 322 1074 372 q 935 136 993 207 q 825 33 876 65 q 738 0 774 0 q 648 47 682 0 q 599 174 614 94 q 585 346 585 253 q 589 446 585 396 q 485 227 540 314 q 376 90 429 140 q 278 19 322 40 q 210 -1 235 -1 m 564 1010 q 563 1011 561 1010 q 622 1064 588 1036 q 721 1129 657 1092 l 729 1133 l 732 1133 q 740 1129 736 1133 q 808 1067 785 1094 q 853 1014 832 1040 q 849 1010 857 1010 q 846 1011 847 1010 q 788 1046 819 1031 q 721 1069 757 1061 q 644 1040 686 1060 q 569 1011 603 1021 q 564 1010 567 1010 z "},"Ẅ":{"ha":1274,"x_min":78,"x_max":1214,"o":"m 210 -1 q 133 35 163 -1 q 91 132 104 71 q 78 268 78 193 q 90 437 78 349 q 122 608 101 525 q 165 760 142 692 q 157 775 157 763 q 169 821 157 793 q 195 873 181 849 q 218 904 210 897 q 248 920 233 915 q 275 925 263 925 q 302 918 292 925 q 313 901 313 911 q 307 889 313 894 q 255 808 279 864 q 211 685 231 753 q 178 552 192 617 q 161 444 165 488 q 151 342 156 390 q 146 250 146 293 q 167 108 146 161 q 243 54 189 54 q 306 82 265 54 q 397 170 346 110 q 501 328 447 231 q 603 568 556 426 q 619 669 610 621 q 642 758 629 717 q 629 778 629 763 q 646 831 629 810 q 684 862 663 851 q 719 872 706 872 q 749 865 738 872 q 760 847 760 857 q 754 836 760 842 q 713 765 732 814 q 681 651 694 717 q 659 511 667 585 q 651 365 651 438 q 663 211 651 282 q 701 97 675 140 q 767 54 726 54 q 869 115 813 54 q 1001 329 926 176 q 1078 515 1046 418 q 1129 701 1111 613 q 1147 851 1147 789 q 1146 883 1147 871 q 1144 904 1144 896 q 1149 922 1144 914 q 1172 929 1154 929 q 1205 906 1196 929 q 1214 847 1214 882 q 1198 731 1214 800 q 1156 587 1182 663 q 1102 442 1131 511 q 1049 322 1074 372 q 935 136 993 207 q 825 33 876 65 q 738 0 774 0 q 648 47 682 0 q 599 174 614 94 q 585 346 585 253 q 589 446 585 396 q 485 227 540 314 q 376 90 429 140 q 278 19 322 40 q 210 -1 235 -1 m 767 993 q 746 1005 750 993 q 742 1031 742 1017 q 766 1079 742 1056 q 813 1103 790 1103 q 821 1099 819 1103 q 813 1055 821 1081 q 804 1022 804 1029 q 791 1002 804 1008 q 767 993 778 996 m 617 993 q 598 1005 603 993 q 593 1031 593 1017 q 617 1079 593 1056 q 664 1103 640 1103 q 671 1099 669 1103 q 663 1055 671 1081 q 654 1022 654 1029 q 641 1002 654 1008 q 617 993 628 996 z "},"Ẁ":{"ha":1274,"x_min":78,"x_max":1214,"o":"m 210 -1 q 133 35 163 -1 q 91 132 104 71 q 78 268 78 193 q 90 437 78 349 q 122 608 101 525 q 165 760 142 692 q 157 775 157 763 q 169 821 157 793 q 195 873 181 849 q 218 904 210 897 q 248 920 233 915 q 275 925 263 925 q 302 918 292 925 q 313 901 313 911 q 307 889 313 894 q 255 808 279 864 q 211 685 231 753 q 178 552 192 617 q 161 444 165 488 q 151 342 156 390 q 146 250 146 293 q 167 108 146 161 q 243 54 189 54 q 306 82 265 54 q 397 170 346 110 q 501 328 447 231 q 603 568 556 426 q 619 669 610 621 q 642 758 629 717 q 629 778 629 763 q 646 831 629 810 q 684 862 663 851 q 719 872 706 872 q 749 865 738 872 q 760 847 760 857 q 754 836 760 842 q 713 765 732 814 q 681 651 694 717 q 659 511 667 585 q 651 365 651 438 q 663 211 651 282 q 701 97 675 140 q 767 54 726 54 q 869 115 813 54 q 1001 329 926 176 q 1078 515 1046 418 q 1129 701 1111 613 q 1147 851 1147 789 q 1146 883 1147 871 q 1144 904 1144 896 q 1149 922 1144 914 q 1172 929 1154 929 q 1205 906 1196 929 q 1214 847 1214 882 q 1198 731 1214 800 q 1156 587 1182 663 q 1102 442 1131 511 q 1049 322 1074 372 q 935 136 993 207 q 825 33 876 65 q 738 0 774 0 q 648 47 682 0 q 599 174 614 94 q 585 346 585 253 q 589 446 585 396 q 485 227 540 314 q 376 90 429 140 q 278 19 322 40 q 210 -1 235 -1 m 818 969 q 822 974 822 969 q 794 1007 822 982 q 721 1064 765 1031 q 632 1127 678 1097 q 619 1131 625 1131 q 598 1119 606 1131 q 592 1095 590 1107 l 592 1093 q 602 1077 592 1083 q 659 1046 620 1065 q 739 1007 698 1027 q 811 971 781 987 q 818 969 814 969 z "},"X":{"ha":929,"x_min":0,"x_max":897,"o":"m 15 -22 q 0 -4 0 -22 q 4 11 0 3 q 64 109 22 54 q 160 222 106 164 q 269 334 214 281 q 368 428 324 388 q 293 617 328 522 q 219 818 258 713 q 212 845 214 832 q 210 868 210 858 q 235 902 210 896 q 278 908 260 908 q 316 900 293 908 q 339 885 339 892 q 327 876 339 879 q 315 872 315 872 q 297 833 297 868 q 310 753 297 801 q 344 650 324 704 q 384 549 364 596 q 417 472 404 501 q 500 547 451 504 q 600 637 549 589 q 695 733 651 685 q 767 822 739 781 q 794 892 794 863 l 794 908 q 803 922 794 922 q 819 914 810 922 q 828 874 828 906 q 789 778 828 832 q 689 663 750 724 q 560 543 628 603 q 436 432 493 483 q 501 297 465 365 q 574 169 538 228 q 647 75 611 111 q 711 39 682 39 q 766 65 740 39 q 812 128 792 90 q 848 205 832 167 q 874 269 864 243 q 888 294 883 294 q 897 274 897 294 q 897 267 897 271 q 896 260 897 263 q 828 95 871 154 q 740 13 785 36 q 663 -10 696 -10 q 580 42 624 -10 q 491 176 536 93 q 401 356 446 260 l 386 386 q 315 317 356 358 q 229 230 274 276 q 145 138 185 183 q 77 57 106 93 q 40 1 49 21 q 15 -22 31 -22 z "},"Y":{"ha":672,"x_min":42,"x_max":706,"o":"m 117 0 q 101 3 108 0 q 93 14 93 6 q 101 38 93 21 q 119 71 110 54 q 132 96 128 88 q 177 213 153 140 q 201 363 201 286 q 201 374 201 369 q 200 383 201 379 q 125 590 161 486 q 51 811 89 694 q 44 841 46 826 q 42 865 42 856 q 64 901 42 893 q 104 908 86 908 q 140 903 118 908 q 163 889 163 899 q 154 876 163 882 q 147 869 146 869 q 129 831 129 865 q 144 741 129 796 q 180 626 158 686 q 223 514 201 567 q 257 429 244 461 q 307 474 269 440 q 393 558 344 508 q 490 663 442 607 q 576 772 539 718 q 622 868 613 825 q 640 910 629 894 q 674 926 650 926 q 694 922 683 926 q 706 899 706 917 q 683 844 706 881 q 626 766 660 808 q 560 685 592 724 q 419 532 490 600 q 274 394 349 464 q 255 324 265 368 q 238 233 244 279 q 228 157 231 188 q 217 76 225 111 q 188 20 210 40 q 117 0 165 0 z "},"Ý":{"ha":672,"x_min":42,"x_max":706,"o":"m 117 0 q 101 3 108 0 q 93 14 93 6 q 101 38 93 21 q 119 71 110 54 q 132 96 128 88 q 177 213 153 140 q 201 363 201 286 q 201 374 201 369 q 200 383 201 379 q 125 590 161 486 q 51 811 89 694 q 44 841 46 826 q 42 865 42 856 q 64 901 42 893 q 104 908 86 908 q 140 903 118 908 q 163 889 163 899 q 154 876 163 882 q 147 869 146 869 q 129 831 129 865 q 144 741 129 796 q 180 626 158 686 q 223 514 201 567 q 257 429 244 461 q 307 474 269 440 q 393 558 344 508 q 490 663 442 607 q 576 772 539 718 q 622 868 613 825 q 640 910 629 894 q 674 926 650 926 q 694 922 683 926 q 706 899 706 917 q 683 844 706 881 q 626 766 660 808 q 560 685 592 724 q 419 532 490 600 q 274 394 349 464 q 255 324 265 368 q 238 233 244 279 q 228 157 231 188 q 217 76 225 111 q 188 20 210 40 q 117 0 165 0 m 277 975 q 272 979 272 975 q 301 1012 272 988 q 373 1069 329 1037 q 463 1132 417 1102 q 475 1137 470 1137 q 496 1125 488 1137 q 503 1101 504 1112 l 503 1098 q 493 1082 503 1088 q 435 1052 474 1071 q 355 1012 397 1032 q 284 976 314 992 q 277 975 281 975 z "},"Ŷ":{"ha":672,"x_min":42,"x_max":706,"o":"m 117 0 q 101 3 108 0 q 93 14 93 6 q 101 38 93 21 q 119 71 110 54 q 132 96 128 88 q 177 213 153 140 q 201 363 201 286 q 201 374 201 369 q 200 383 201 379 q 125 590 161 486 q 51 811 89 694 q 44 841 46 826 q 42 865 42 856 q 64 901 42 893 q 104 908 86 908 q 140 903 118 908 q 163 889 163 899 q 154 876 163 882 q 147 869 146 869 q 129 831 129 865 q 144 741 129 796 q 180 626 158 686 q 223 514 201 567 q 257 429 244 461 q 307 474 269 440 q 393 558 344 508 q 490 663 442 607 q 576 772 539 718 q 622 868 613 825 q 640 910 629 894 q 674 926 650 926 q 694 922 683 926 q 706 899 706 917 q 683 844 706 881 q 626 766 660 808 q 560 685 592 724 q 419 532 490 600 q 274 394 349 464 q 255 324 265 368 q 238 233 244 279 q 228 157 231 188 q 217 76 225 111 q 188 20 210 40 q 117 0 165 0 m 244 1010 q 243 1011 242 1010 q 303 1064 268 1036 q 401 1129 338 1092 l 410 1133 l 413 1133 q 421 1129 417 1133 q 489 1067 465 1094 q 533 1014 513 1040 q 529 1010 538 1010 q 526 1011 528 1010 q 469 1046 500 1031 q 401 1069 438 1061 q 325 1040 367 1060 q 250 1011 283 1021 q 244 1010 247 1010 z "}}}
